<svg width="229" height="230" viewBox="0 0 229 230" fill="none" xmlns="http://www.w3.org/2000/svg">
<ellipse cx="114.02" cy="115.136" rx="114" ry="114.5" fill="#F4ECED"/>
<path d="M113.875 198.143C67.8604 198.143 30.4492 160.926 30.4492 115.15C30.4492 69.244 67.7301 32.1562 113.875 32.1562C160.02 32.1562 197.301 69.3737 197.301 115.15C197.301 160.926 159.889 198.143 113.875 198.143Z" fill="white"/>
<path d="M173.577 68.7261C199.257 101.534 193.391 148.867 160.412 174.543C127.432 200.219 79.8538 194.254 54.1743 161.445C28.4949 128.637 34.3607 81.3048 67.3399 55.7583C100.189 30.0822 147.767 35.9177 173.577 68.7261Z" fill="url(#paint0_linear_0_1993)"/>
<path d="M152.59 72.2265V134.601C152.59 142.901 146.072 149.644 137.86 149.644C129.778 149.644 123.13 142.901 123.13 134.601V80.6556L103.838 86.2317V116.187C103.838 124.487 97.3202 131.1 89.108 131.23C81.0261 131.23 74.3781 124.487 74.3781 116.187V94.6607L55.0859 100.237V116.057C55.0859 135.25 70.3372 150.681 88.9776 150.681C95.1042 150.681 100.709 148.996 105.663 146.272C110.355 159.629 122.869 169.225 137.599 169.225C156.37 169.225 171.491 153.664 171.491 134.601V66.6504L152.59 72.2265Z" fill="white"/>
<path d="M113.875 24.6357C63.6895 24.6357 23.0195 65.2248 23.0195 115.151C23.0195 165.076 63.6895 205.665 113.875 205.665C164.061 205.665 204.731 165.206 204.731 115.151C204.731 65.2248 164.061 24.6357 113.875 24.6357ZM113.875 198.144C67.8608 198.144 30.4496 160.927 30.4496 115.151C30.4496 69.2448 67.7305 32.157 113.875 32.157C160.02 32.157 197.301 69.3745 197.301 115.151C197.301 160.927 159.89 198.144 113.875 198.144Z" fill="#32352C"/>
<defs>
<linearGradient id="paint0_linear_0_1993" x1="38.1576" y1="115.143" x2="189.572" y2="115.143" gradientUnits="userSpaceOnUse">
<stop stop-color="#FFBA3B"/>
<stop offset="0.5315" stop-color="#FFA53B"/>
<stop offset="1" stop-color="#FF983B"/>
</linearGradient>
</defs>
</svg>
