<svg xmlns="http://www.w3.org/2000/svg" fill="none" viewBox="32.39 14.07 180.42 278.28">
<path d="M131.201 14.074C90.4759 46.4158 60.3264 90.1734 44.611 139.747C28.8956 189.322 28.3291 242.457 42.9839 292.355L168.892 255.376C161.597 230.535 161.879 204.082 169.702 179.402C177.526 154.723 192.536 132.938 212.81 116.837L131.201 14.074Z" fill="url(#paint0_linear_825_14)"/>
<path d="M76.3457 155.295L73.1677 165.095H70.1997L68.3237 159.131L66.3637 165.095H63.3957L60.2177 155.295H63.0737L65.0477 161.553L67.1197 155.295H69.6677L71.6417 161.609L73.6997 155.295H76.3457ZM82.066 165.291C80.61 165.291 79.476 164.894 78.664 164.101C77.8613 163.307 77.46 162.183 77.46 160.727V155.295H80.232V160.643C80.232 162.211 80.8526 162.995 82.094 162.995C83.326 162.995 83.942 162.211 83.942 160.643V155.295H86.672V160.727C86.672 162.183 86.266 163.307 85.454 164.101C84.6513 164.894 83.522 165.291 82.066 165.291ZM94.9108 163.191H90.7668L89.9968 165.095H87.1688L91.4948 155.295H94.2248L98.5648 165.095H95.6808L94.9108 163.191ZM94.0988 161.147L92.8388 158.011L91.5788 161.147H94.0988ZM104.156 165.291C103.12 165.291 102.187 165.071 101.356 164.633C100.535 164.194 99.8859 163.587 99.4099 162.813C98.9432 162.038 98.7099 161.165 98.7099 160.195C98.7099 159.224 98.9432 158.351 99.4099 157.577C99.8859 156.802 100.535 156.195 101.356 155.757C102.187 155.318 103.12 155.099 104.156 155.099C105.192 155.099 106.121 155.318 106.942 155.757C107.773 156.195 108.421 156.802 108.888 157.577C109.364 158.351 109.602 159.224 109.602 160.195C109.602 161.165 109.364 162.038 108.888 162.813C108.421 163.587 107.773 164.194 106.942 164.633C106.121 165.071 105.192 165.291 104.156 165.291ZM104.156 162.995C104.651 162.995 105.099 162.878 105.5 162.645C105.901 162.411 106.219 162.085 106.452 161.665C106.685 161.235 106.802 160.745 106.802 160.195C106.802 159.644 106.685 159.159 106.452 158.739C106.219 158.309 105.901 157.978 105.5 157.745C105.099 157.511 104.651 157.395 104.156 157.395C103.661 157.395 103.213 157.511 102.812 157.745C102.411 157.978 102.093 158.309 101.86 158.739C101.627 159.159 101.51 159.644 101.51 160.195C101.51 160.745 101.627 161.235 101.86 161.665C102.093 162.085 102.411 162.411 102.812 162.645C103.213 162.878 103.661 162.995 104.156 162.995ZM115.94 165.291C114.913 165.291 113.989 165.076 113.168 164.647C112.356 164.208 111.716 163.601 111.25 162.827C110.783 162.052 110.55 161.175 110.55 160.195C110.55 159.215 110.783 158.337 111.25 157.563C111.716 156.788 112.356 156.186 113.168 155.757C113.989 155.318 114.913 155.099 115.94 155.099C116.836 155.099 117.643 155.257 118.362 155.575C119.08 155.892 119.678 156.349 120.154 156.947L118.39 158.543C117.755 157.777 116.985 157.395 116.08 157.395C115.548 157.395 115.072 157.511 114.652 157.745C114.241 157.978 113.919 158.309 113.686 158.739C113.462 159.159 113.35 159.644 113.35 160.195C113.35 160.745 113.462 161.235 113.686 161.665C113.919 162.085 114.241 162.411 114.652 162.645C115.072 162.878 115.548 162.995 116.08 162.995C116.985 162.995 117.755 162.612 118.39 161.847L120.154 163.443C119.678 164.04 119.08 164.497 118.362 164.815C117.643 165.132 116.836 165.291 115.94 165.291ZM126.127 165.291C125.091 165.291 124.157 165.071 123.327 164.633C122.505 164.194 121.857 163.587 121.381 162.813C120.914 162.038 120.681 161.165 120.681 160.195C120.681 159.224 120.914 158.351 121.381 157.577C121.857 156.802 122.505 156.195 123.327 155.757C124.157 155.318 125.091 155.099 126.127 155.099C127.163 155.099 128.091 155.318 128.913 155.757C129.743 156.195 130.392 156.802 130.859 157.577C131.335 158.351 131.573 159.224 131.573 160.195C131.573 161.165 131.335 162.038 130.859 162.813C130.392 163.587 129.743 164.194 128.913 164.633C128.091 165.071 127.163 165.291 126.127 165.291ZM126.127 162.995C126.621 162.995 127.069 162.878 127.471 162.645C127.872 162.411 128.189 162.085 128.423 161.665C128.656 161.235 128.773 160.745 128.773 160.195C128.773 159.644 128.656 159.159 128.423 158.739C128.189 158.309 127.872 157.978 127.471 157.745C127.069 157.511 126.621 157.395 126.127 157.395C125.632 157.395 125.184 157.511 124.783 157.745C124.381 157.978 124.064 158.309 123.831 158.739C123.597 159.159 123.481 159.644 123.481 160.195C123.481 160.745 123.597 161.235 123.831 161.665C124.064 162.085 124.381 162.411 124.783 162.645C125.184 162.878 125.632 162.995 126.127 162.995ZM133.024 155.295H135.796V165.095H133.024V155.295ZM147.093 155.295V165.095H144.811L140.485 159.873V165.095H137.769V155.295H140.051L144.377 160.517V155.295H147.093ZM61.4862 179.953V182.095H53.6182V172.295H61.3042V174.437H56.3622V176.089H60.7162V178.161H56.3622V179.953H61.4862ZM62.443 177.083H66.531V179.127H62.443V177.083ZM73.0921 182.291C72.0654 182.291 71.1414 182.076 70.3201 181.647C69.5081 181.208 68.8688 180.601 68.4021 179.827C67.9354 179.052 67.7021 178.175 67.7021 177.195C67.7021 176.215 67.9354 175.337 68.4021 174.563C68.8688 173.788 69.5081 173.186 70.3201 172.757C71.1414 172.318 72.0654 172.099 73.0921 172.099C73.9881 172.099 74.7954 172.257 75.5141 172.575C76.2328 172.892 76.8301 173.349 77.3061 173.947L75.5421 175.543C74.9074 174.777 74.1374 174.395 73.2321 174.395C72.7001 174.395 72.2241 174.511 71.8041 174.745C71.3934 174.978 71.0714 175.309 70.8381 175.739C70.6141 176.159 70.5021 176.644 70.5021 177.195C70.5021 177.745 70.6141 178.235 70.8381 178.665C71.0714 179.085 71.3934 179.411 71.8041 179.645C72.2241 179.878 72.7001 179.995 73.2321 179.995C74.1374 179.995 74.9074 179.612 75.5421 178.847L77.3061 180.443C76.8301 181.04 76.2328 181.497 75.5141 181.815C74.7954 182.132 73.9881 182.291 73.0921 182.291ZM83.2789 182.291C82.2429 182.291 81.3096 182.071 80.4789 181.633C79.6576 181.194 79.0089 180.587 78.5329 179.813C78.0663 179.038 77.8329 178.165 77.8329 177.195C77.8329 176.224 78.0663 175.351 78.5329 174.577C79.0089 173.802 79.6576 173.195 80.4789 172.757C81.3096 172.318 82.2429 172.099 83.2789 172.099C84.3149 172.099 85.2436 172.318 86.0649 172.757C86.8956 173.195 87.5443 173.802 88.0109 174.577C88.4869 175.351 88.7249 176.224 88.7249 177.195C88.7249 178.165 88.4869 179.038 88.0109 179.813C87.5443 180.587 86.8956 181.194 86.0649 181.633C85.2436 182.071 84.3149 182.291 83.2789 182.291ZM83.2789 179.995C83.7736 179.995 84.2216 179.878 84.6229 179.645C85.0243 179.411 85.3416 179.085 85.5749 178.665C85.8083 178.235 85.9249 177.745 85.9249 177.195C85.9249 176.644 85.8083 176.159 85.5749 175.739C85.3416 175.309 85.0243 174.978 84.6229 174.745C84.2216 174.511 83.7736 174.395 83.2789 174.395C82.7843 174.395 82.3363 174.511 81.9349 174.745C81.5336 174.978 81.2163 175.309 80.9829 175.739C80.7496 176.159 80.6329 176.644 80.6329 177.195C80.6329 177.745 80.7496 178.235 80.9829 178.665C81.2163 179.085 81.5336 179.411 81.9349 179.645C82.3363 179.878 82.7843 179.995 83.2789 179.995ZM99.0248 182.095L98.9968 176.901L96.4768 181.129H95.2448L92.7388 177.041V182.095H90.1768V172.295H92.4588L95.9028 177.951L99.2628 172.295H101.545L101.573 182.095H99.0248ZM112.382 182.095L112.354 176.901L109.834 181.129H108.602L106.096 177.041V182.095H103.534V172.295H105.816L109.26 177.951L112.62 172.295H114.902L114.93 182.095H112.382ZM124.76 179.953V182.095H116.892V172.295H124.578V174.437H119.636V176.089H123.99V178.161H119.636V179.953H124.76ZM130.582 179.491H129.07V182.095H126.298V172.295H130.778C131.665 172.295 132.435 172.444 133.088 172.743C133.741 173.032 134.245 173.452 134.6 174.003C134.955 174.544 135.132 175.183 135.132 175.921C135.132 176.63 134.964 177.251 134.628 177.783C134.301 178.305 133.83 178.716 133.214 179.015L135.328 182.095H132.36L130.582 179.491ZM132.332 175.921C132.332 175.463 132.187 175.109 131.898 174.857C131.609 174.605 131.179 174.479 130.61 174.479H129.07V177.349H130.61C131.179 177.349 131.609 177.227 131.898 176.985C132.187 176.733 132.332 176.378 132.332 175.921ZM141.547 182.291C140.521 182.291 139.597 182.076 138.775 181.647C137.963 181.208 137.324 180.601 136.857 179.827C136.391 179.052 136.157 178.175 136.157 177.195C136.157 176.215 136.391 175.337 136.857 174.563C137.324 173.788 137.963 173.186 138.775 172.757C139.597 172.318 140.521 172.099 141.547 172.099C142.443 172.099 143.251 172.257 143.969 172.575C144.688 172.892 145.285 173.349 145.761 173.947L143.997 175.543C143.363 174.777 142.593 174.395 141.687 174.395C141.155 174.395 140.679 174.511 140.259 174.745C139.849 174.978 139.527 175.309 139.293 175.739C139.069 176.159 138.957 176.644 138.957 177.195C138.957 177.745 139.069 178.235 139.293 178.665C139.527 179.085 139.849 179.411 140.259 179.645C140.679 179.878 141.155 179.995 141.687 179.995C142.593 179.995 143.363 179.612 143.997 178.847L145.761 180.443C145.285 181.04 144.688 181.497 143.969 181.815C143.251 182.132 142.443 182.291 141.547 182.291ZM154.865 179.953V182.095H146.997V172.295H154.683V174.437H149.741V176.089H154.095V178.161H149.741V179.953H154.865Z" fill="white"/>
<g clip-path="url(#clip0_825_14)">
<g filter="url(#filter0_d_825_14)">
<path d="M126.507 57.9694C126.508 55.0747 127.659 52.299 129.706 50.2521C131.753 48.2052 134.528 47.0545 137.423 47.0527C143.417 47.0527 148.34 51.7511 148.34 57.8027C148.338 60.6975 147.187 63.4731 145.14 65.52C143.094 67.5669 140.318 68.7176 137.423 68.7194C136.55 68.715 135.681 68.6008 134.837 68.3794C134.817 68.918 134.589 69.4279 134.201 69.8021C133.813 70.1762 133.295 70.3856 132.757 70.3861H129.84V73.3027C129.84 74.4527 128.907 75.3861 127.757 75.3861H124.84V77.4694C124.84 78.2429 124.533 78.9848 123.986 79.5318C123.439 80.0788 122.697 80.3861 121.923 80.3861H117.757C116.983 80.3861 116.241 80.0788 115.694 79.5318C115.147 78.9848 114.84 78.2429 114.84 77.4694V73.8494C114.84 72.6327 115.323 71.4677 116.183 70.6094L126.573 60.2161C126.624 60.1626 126.661 60.0978 126.681 60.027C126.702 59.9562 126.705 59.8816 126.69 59.8094C126.575 59.2025 126.514 58.5869 126.507 57.9694ZM142.007 55.3027C142.007 54.7502 141.787 54.2203 141.396 53.8296C141.006 53.4389 140.476 53.2194 139.923 53.2194C139.371 53.2194 138.841 53.4389 138.45 53.8296C138.059 54.2203 137.84 54.7502 137.84 55.3027C137.84 55.8553 138.059 56.3852 138.45 56.7759C138.841 57.1666 139.371 57.3861 139.923 57.3861C140.476 57.3861 141.006 57.1666 141.396 56.7759C141.787 56.3852 142.007 55.8553 142.007 55.3027Z" fill="white"/>
</g>
</g>
<line x1="113.164" y1="89.2773" x2="150.019" y2="89.2773" stroke="white" stroke-width="2" stroke-linecap="round"/>
<defs>
<filter id="filter0_d_825_14" x="107.84" y="44.0527" width="47.5" height="47.3333" filterUnits="userSpaceOnUse" color-interpolation-filters="sRGB">
<feFlood flood-opacity="0" result="BackgroundImageFix"/>
<feColorMatrix in="SourceAlpha" type="matrix" values="0 0 0 0 0 0 0 0 0 0 0 0 0 0 0 0 0 0 127 0" result="hardAlpha"/>
<feOffset dy="4"/>
<feGaussianBlur stdDeviation="3.5"/>
<feComposite in2="hardAlpha" operator="out"/>
<feColorMatrix type="matrix" values="0 0 0 0 0 0 0 0 0 0 0 0 0 0 0 0 0 0 0.25 0"/>
<feBlend mode="normal" in2="BackgroundImageFix" result="effect1_dropShadow_825_14"/>
<feBlend mode="normal" in="SourceGraphic" in2="effect1_dropShadow_825_14" result="shape"/>
</filter>
<linearGradient id="paint0_linear_825_14" x1="62.8937" y1="133.982" x2="171.819" y2="181.579" gradientUnits="userSpaceOnUse">
<stop stop-color="#2AA3F7"/>
<stop offset="1" stop-color="#2AB9F7"/>
</linearGradient>
<clipPath id="clip0_825_14">
<rect width="40" height="40" fill="white" transform="translate(111.59 43.6357)"/>
</clipPath>
</defs>
</svg>