<svg width="655" height="519" viewBox="0 0 655 519" fill="none" xmlns="http://www.w3.org/2000/svg">
<g clip-path="url(#clip0_0_1689)">
<path d="M409.176 450.984H262.495C244.81 450.873 230.329 435.84 230.44 418.155L231.987 49.9608C232.098 32.2752 246.468 18.0161 264.153 18.1266L411.055 18.7898C428.741 18.9004 443 33.27 442.889 50.9557L441.342 419.149C441.231 436.835 426.862 451.094 409.176 450.984Z" fill="#263238"/>
<path d="M410.835 31.502L382.317 31.3915C378.448 31.3915 375.353 34.597 375.353 38.5763V43.7714C375.353 47.7507 372.258 50.9562 368.389 50.9562L312.9 50.7352C309.031 50.7352 306.047 47.4191 306.047 43.4398V38.2447C306.047 34.2654 302.952 30.9493 299.194 30.9493H289.135L264.265 30.8388C251.885 30.7283 241.826 40.787 241.715 53.167L240.168 412.518C240.168 424.898 250.116 434.957 262.496 435.067L409.066 435.73C421.446 435.841 431.505 425.782 431.615 413.402L433.163 54.0512C433.163 41.6713 423.215 31.6125 410.835 31.502Z" fill="#FAFAFA"/>
<path d="M283.39 68.2017C283.39 68.3123 278.526 68.5333 272.447 68.5333C266.367 68.5333 261.504 68.4228 261.504 68.2017C261.504 67.9806 266.367 67.8701 272.447 67.8701C278.526 67.9807 283.39 68.0912 283.39 68.2017Z" fill="#263238"/>
<path d="M283.39 64.1109C283.39 64.2214 278.526 64.4425 272.447 64.4425C266.367 64.4425 261.504 64.332 261.504 64.1109C261.504 64.0004 266.367 63.7793 272.447 63.7793C278.526 63.7793 283.39 63.8898 283.39 64.1109Z" fill="#263238"/>
<path d="M283.39 59.9107C283.39 60.0212 278.526 60.2423 272.447 60.2423C266.367 60.2423 261.504 60.1318 261.504 59.9107C261.504 59.8002 266.367 59.5791 272.447 59.5791C278.526 59.6896 283.39 59.8002 283.39 59.9107Z" fill="#263238"/>
<path d="M409.288 411.966H264.045C262.055 411.966 260.508 410.419 260.508 408.429V380.685C260.508 378.695 262.055 377.147 264.045 377.147H409.288C411.278 377.147 412.826 378.695 412.826 380.685V408.429C412.826 410.419 411.278 411.966 409.288 411.966Z" fill="url(#paint0_linear_0_1689)"/>
<g opacity="0.3">
<path d="M295.104 405.775H280.403C278.524 405.775 276.976 404.228 276.976 402.349V387.647C276.976 385.768 278.524 384.221 280.403 384.221H295.104C296.983 384.221 298.531 385.768 298.531 387.647V402.349C298.641 404.228 297.094 405.775 295.104 405.775Z" fill="black"/>
</g>
<path d="M287.808 401.243C287.477 401.243 287.256 401.022 287.256 400.691V389.306C287.256 388.974 287.477 388.753 287.808 388.753C288.14 388.753 288.361 388.974 288.361 389.306V400.691C288.361 401.022 288.14 401.243 287.808 401.243Z" fill="white"/>
<path d="M293.445 395.607H282.281C281.949 395.607 281.728 395.386 281.728 395.054C281.728 394.722 281.949 394.501 282.281 394.501H293.445C293.777 394.501 293.998 394.722 293.998 395.054C293.998 395.275 293.777 395.607 293.445 395.607Z" fill="white"/>
<path d="M317.543 397.043H313.785L313.012 398.812H311.906L315.112 391.627H316.106L319.312 398.812H318.207L317.543 397.043ZM317.212 396.269L315.664 392.732L314.117 396.269H317.212Z" fill="white"/>
<path d="M320.418 391.738H323.402C325.724 391.738 327.271 393.175 327.271 395.275C327.271 397.376 325.724 398.813 323.402 398.813H320.418V391.738ZM323.402 397.928C325.171 397.928 326.276 396.823 326.276 395.275C326.276 393.617 325.171 392.623 323.402 392.623H321.413V398.039H323.402V397.928Z" fill="white"/>
<path d="M328.93 391.738H331.914C334.235 391.738 335.783 393.175 335.783 395.275C335.783 397.376 334.235 398.813 331.914 398.813H328.93V391.738ZM331.914 397.928C333.683 397.928 334.788 396.823 334.788 395.275C334.788 393.617 333.683 392.623 331.914 392.623H329.924V398.039H331.914V397.928Z" fill="white"/>
<path d="M341.529 392.622H339.098V391.737H345.066V392.622H342.635V398.922H341.64V392.622H341.529Z" fill="white"/>
<path d="M345.51 395.275C345.51 393.174 347.168 391.627 349.378 391.627C351.589 391.627 353.137 393.174 353.137 395.275C353.137 397.375 351.479 398.922 349.378 398.922C347.057 398.922 345.51 397.375 345.51 395.275ZM352.031 395.275C352.031 393.727 350.815 392.511 349.268 392.511C347.61 392.511 346.504 393.727 346.504 395.275C346.504 396.822 347.72 398.038 349.268 398.038C350.926 398.038 352.031 396.822 352.031 395.275Z" fill="white"/>
<path d="M356.894 395.275C356.894 393.174 358.552 391.627 360.653 391.627C361.758 391.627 362.753 391.959 363.416 392.732L362.753 393.396C362.2 392.843 361.537 392.511 360.763 392.511C359.105 392.511 358 393.727 358 395.275C358 396.822 359.216 398.038 360.763 398.038C361.537 398.038 362.2 397.706 362.753 397.154L363.416 397.817C362.753 398.591 361.758 398.922 360.653 398.922C358.442 398.922 356.894 397.375 356.894 395.275Z" fill="white"/>
<path d="M369.274 397.043H365.516L364.742 398.812H363.637L366.842 391.627H367.837L371.042 398.812H369.937L369.274 397.043ZM368.832 396.269L367.284 392.732L365.737 396.269H368.832Z" fill="white"/>
<path d="M376.901 398.812L375.354 396.601C375.243 396.601 375.022 396.601 374.912 396.601H373.143V398.812H372.148V391.627H374.912C376.791 391.627 377.896 392.622 377.896 394.169C377.896 395.275 377.344 396.048 376.349 396.38L378.007 398.812H376.901ZM376.901 394.169C376.901 393.174 376.238 392.511 374.912 392.511H373.143V395.717H374.912C376.238 395.827 376.901 395.164 376.901 394.169Z" fill="white"/>
<path d="M380.881 392.623H378.449V391.738H384.418V392.623H381.986V398.923H380.991V392.623H380.881Z" fill="white"/>
<path d="M272.667 310.826L274.546 314.695L278.747 315.248L275.652 318.232L276.425 322.432L272.667 320.443L268.909 322.432L269.572 318.232L266.588 315.248L270.788 314.695L272.667 310.826Z" fill="url(#paint1_linear_0_1689)"/>
<path d="M288.142 310.826L290.021 314.695L294.221 315.248L291.126 318.232L291.9 322.432L288.142 320.443L284.384 322.432L285.047 318.232L282.062 315.248L286.263 314.695L288.142 310.826Z" fill="url(#paint2_linear_0_1689)"/>
<path d="M303.618 310.826L305.498 314.695L309.698 315.248L306.603 318.232L307.377 322.432L303.618 320.443L299.86 322.432L300.634 318.232L297.539 315.248L301.739 314.695L303.618 310.826Z" fill="url(#paint3_linear_0_1689)"/>
<path d="M319.093 310.826L320.972 314.695L325.172 315.248L322.188 318.232L322.851 322.432L319.093 320.443L315.335 322.432L316.109 318.232L313.014 315.248L317.214 314.695L319.093 310.826Z" fill="url(#paint4_linear_0_1689)"/>
<path d="M334.568 310.826L336.447 314.695L340.647 315.248L337.663 318.232L338.326 322.432L334.568 320.443L330.809 322.432L331.583 318.232L328.488 315.248L332.688 314.695L334.568 310.826Z" fill="url(#paint5_linear_0_1689)"/>
<path d="M357.338 319.67V320.554H352.364V319.891L355.127 317.238C355.901 316.575 356.011 316.133 356.011 315.691C356.011 315.027 355.459 314.585 354.574 314.585C353.801 314.585 353.248 314.806 352.806 315.359L352.142 314.806C352.695 314.143 353.579 313.812 354.685 313.812C356.122 313.812 357.006 314.585 357.006 315.691C357.006 316.354 356.785 316.907 355.901 317.901L353.801 319.891H357.338V319.67Z" fill="black"/>
<path d="M362.865 318.453C362.865 319.559 361.981 320.554 360.212 320.554C359.217 320.554 358.223 320.222 357.67 319.669L358.112 318.896C358.554 319.338 359.328 319.669 360.212 319.669C361.207 319.669 361.87 319.227 361.87 318.453C361.87 317.68 361.317 317.238 360.212 317.238H359.659V316.574L361.428 314.474H358.112V313.59H362.644V314.253L360.875 316.464C362.202 316.685 362.865 317.459 362.865 318.453Z" fill="black"/>
<path d="M371.596 320.553L370.159 318.453C370.049 318.453 369.828 318.453 369.717 318.453H368.059V320.553H367.064V313.7H369.717C371.486 313.7 372.591 314.584 372.591 316.132C372.591 317.237 372.038 318.011 371.044 318.343L372.702 320.664H371.596V320.553ZM371.486 316.021C371.486 315.027 370.823 314.474 369.607 314.474H367.949V317.569H369.607C370.823 317.569 371.486 317.016 371.486 316.021Z" fill="black"/>
<path d="M378.67 318.232H374.47C374.581 319.117 375.354 319.78 376.349 319.78C377.012 319.78 377.455 319.559 377.897 319.117L378.449 319.669C378.007 320.222 377.234 320.554 376.349 320.554C374.691 320.554 373.586 319.448 373.586 317.901C373.586 316.353 374.691 315.248 376.239 315.248C377.786 315.248 378.781 316.353 378.781 317.901C378.67 318.011 378.67 318.122 378.67 318.232ZM374.47 317.569H377.786C377.676 316.685 377.012 316.022 376.128 316.022C375.244 316.022 374.47 316.685 374.47 317.569Z" fill="black"/>
<path d="M384.53 315.358L382.208 320.554H381.214L378.892 315.358H379.887L381.656 319.559L383.535 315.358H384.53Z" fill="black"/>
<path d="M385.193 313.7C385.193 313.369 385.414 313.037 385.856 313.037C386.188 313.037 386.519 313.258 386.519 313.59C386.519 313.921 386.298 314.253 385.856 314.253C385.414 314.364 385.193 314.032 385.193 313.7ZM385.414 315.358H386.409V320.554H385.414V315.358Z" fill="black"/>
<path d="M392.819 318.232H388.619C388.729 319.117 389.503 319.78 390.498 319.78C391.161 319.78 391.603 319.559 392.045 319.117L392.598 319.669C392.156 320.222 391.382 320.554 390.498 320.554C388.84 320.554 387.734 319.448 387.734 317.901C387.734 316.353 388.84 315.248 390.387 315.248C391.935 315.248 392.929 316.353 392.929 317.901C392.819 318.011 392.819 318.122 392.819 318.232ZM388.508 317.569H391.824C391.714 316.685 391.05 316.022 390.166 316.022C389.282 316.022 388.619 316.685 388.508 317.569Z" fill="black"/>
<path d="M401.883 315.357L399.893 320.553H399.009L397.461 316.573L395.914 320.553H395.029L393.15 315.357H394.035L395.582 319.447L397.13 315.357H397.903L399.451 319.558L400.998 315.357H401.883Z" fill="black"/>
<path d="M402.105 320.001L402.548 319.227C402.99 319.559 403.653 319.78 404.427 319.78C405.311 319.78 405.642 319.559 405.642 319.117C405.642 317.901 402.326 319.006 402.326 316.906C402.326 316.022 403.211 315.358 404.537 315.358C405.2 315.358 405.974 315.579 406.416 315.801L405.974 316.574C405.532 316.243 404.979 316.132 404.427 316.132C403.653 316.132 403.211 316.464 403.211 316.795C403.211 318.011 406.527 317.016 406.527 319.006C406.527 320.001 405.643 320.554 404.316 320.554C403.432 320.554 402.548 320.333 402.105 320.001Z" fill="black"/>
<path d="M272.667 349.955V352.056H271.562V349.955C269.793 349.845 268.135 349.292 267.141 348.408L267.804 346.971C268.688 347.745 270.014 348.297 271.562 348.408V344.208C269.572 343.765 267.472 343.102 267.472 340.671C267.472 338.902 268.799 337.354 271.562 337.133V335.033H272.667V337.133C273.994 337.133 275.431 337.576 276.315 338.239L275.762 339.676C274.767 339.012 273.662 338.681 272.667 338.681V342.881C274.657 343.434 276.868 343.987 276.868 346.418C276.868 348.187 275.541 349.734 272.667 349.955ZM271.451 342.55V338.681C269.793 338.902 269.13 339.676 269.13 340.671C269.13 341.665 270.125 342.107 271.451 342.55ZM275.099 346.529C275.099 345.424 273.994 344.871 272.667 344.539V348.408C274.325 348.297 275.099 347.413 275.099 346.529Z" fill="black"/>
<path d="M294.333 346.749H291.901V349.844H290.133V346.749H283.059V345.423L289.58 337.133H291.57L285.38 345.091H290.243V342.328H291.901V345.091H294.333V346.749Z" fill="black"/>
<path d="M295.437 343.544C295.437 339.454 297.648 337.023 300.632 337.023C303.617 337.023 305.828 339.344 305.828 343.544C305.828 347.745 303.617 350.066 300.632 350.066C297.648 349.955 295.437 347.634 295.437 343.544ZM303.948 343.544C303.948 340.339 302.622 338.681 300.632 338.681C298.643 338.681 297.316 340.339 297.316 343.544C297.316 346.75 298.643 348.408 300.632 348.408C302.622 348.408 303.948 346.75 303.948 343.544Z" fill="black"/>
<path d="M307.266 348.739C307.266 347.966 307.818 347.523 308.481 347.523C309.145 347.523 309.697 348.076 309.697 348.739C309.697 349.513 309.145 349.955 308.481 349.955C307.818 349.955 307.266 349.403 307.266 348.739Z" fill="black"/>
<path d="M321.523 346.197C321.523 348.518 319.534 349.955 316.439 349.955C313.344 349.955 311.465 348.518 311.465 346.197C311.465 344.76 312.239 343.655 313.675 343.102C312.57 342.549 311.907 341.665 311.907 340.339C311.907 338.239 313.786 336.912 316.439 336.912C319.202 336.912 321.081 338.239 321.081 340.339C321.081 341.555 320.418 342.549 319.313 343.102C320.75 343.765 321.523 344.76 321.523 346.197ZM319.755 346.197C319.755 344.76 318.539 343.986 316.549 343.986C314.56 343.986 313.344 344.871 313.344 346.197C313.344 347.634 314.56 348.518 316.549 348.518C318.539 348.518 319.755 347.634 319.755 346.197ZM313.786 340.56C313.786 341.776 314.781 342.549 316.549 342.549C318.318 342.549 319.423 341.776 319.423 340.56C319.423 339.344 318.318 338.57 316.549 338.57C314.781 338.57 313.786 339.233 313.786 340.56Z" fill="black"/>
<path d="M323.182 343.544C323.182 339.454 325.392 337.022 328.377 337.022C331.361 337.022 333.572 339.344 333.572 343.544C333.572 347.744 331.361 350.066 328.377 350.066C325.392 349.955 323.182 347.634 323.182 343.544ZM331.693 343.544C331.693 340.339 330.366 338.68 328.377 338.68C326.387 338.68 325.061 340.339 325.061 343.544C325.061 346.75 326.387 348.408 328.377 348.408C330.366 348.408 331.693 346.75 331.693 343.544Z" fill="black"/>
<path d="M389.725 262.191L283.832 262.412C279.632 262.412 276.316 259.096 276.316 254.895L276.205 155.303C276.205 151.103 279.521 147.786 283.721 147.786L389.614 147.565C393.815 147.565 397.131 150.881 397.131 155.082L397.241 254.674C397.241 258.764 393.815 262.191 389.725 262.191Z" fill="url(#paint6_linear_0_1689)"/>
<path d="M351.59 211.123C351.59 211.123 353.911 207.807 355.901 209.244C355.901 209.244 357.117 210.46 356.232 213.444C356.122 213.997 356.011 214.549 355.901 215.102C355.79 215.544 355.79 215.986 355.68 216.428C355.68 216.871 355.79 217.313 355.68 217.755C355.459 218.639 355.016 219.634 354.243 220.187C353.911 220.408 353.469 220.629 353.137 220.629C352.916 220.629 351.59 220.518 351.59 220.297V211.123Z" fill="#E5BE90"/>
<path d="M351.59 212.117C351.59 212.117 353.469 209.465 355.016 210.57C355.016 210.57 356.011 211.565 355.348 213.886C355.237 214.328 355.127 214.77 355.016 215.212C354.906 215.544 354.906 215.876 354.906 216.207C354.906 216.539 355.016 216.981 354.906 217.313C354.685 218.086 354.353 218.86 353.69 219.302C353.358 219.523 353.137 219.634 352.806 219.634C352.695 219.634 351.59 219.523 351.59 219.413V212.117Z" fill="#DCB68B"/>
<path d="M321.082 211.123C321.082 211.123 318.761 207.807 316.771 209.244C316.771 209.244 315.555 210.46 316.439 213.444C316.55 213.997 316.661 214.549 316.771 215.102C316.882 215.544 316.882 215.986 316.992 216.428C316.992 216.871 316.882 217.313 316.992 217.755C317.213 218.639 317.655 219.634 318.429 220.187C318.761 220.408 319.203 220.629 319.534 220.629C319.756 220.629 321.082 220.518 321.082 220.297V211.123Z" fill="#E5BE90"/>
<path d="M321.082 212.117C321.082 212.117 319.203 209.465 317.655 210.57C317.655 210.57 316.66 211.565 317.324 213.886C317.434 214.328 317.545 214.77 317.655 215.212C317.766 215.544 317.766 215.876 317.766 216.207C317.766 216.539 317.655 216.981 317.766 217.313C317.987 218.086 318.319 218.86 318.982 219.302C319.313 219.523 319.534 219.634 319.866 219.634C319.977 219.634 321.082 219.523 321.082 219.413V212.117Z" fill="#DCB68B"/>
<path d="M328.156 233.23C328.156 233.23 329.924 240.967 326.166 244.504H347.831C347.831 244.504 343.299 238.425 345.731 232.345L328.156 233.23Z" fill="#E5BE90"/>
<path d="M328.599 238.758C329.373 239.421 330.257 239.863 331.252 240.195C333.462 241.079 335.784 241.411 338.215 240.858C340.426 240.305 342.637 238.979 343.963 236.989C344.516 236.105 344.958 234.999 345.4 234.005C345.511 233.452 345.621 232.899 345.953 232.236L328.378 233.12C328.157 233.231 328.82 235.773 328.599 238.758Z" fill="#D5B086"/>
<path d="M354.021 206.15C355.568 192.333 346.615 182.937 335.893 182.937C325.171 182.937 317.102 191.891 318.65 206.813C319.313 213.113 318.539 224.278 323.734 229.583C327.492 233.452 325.945 231.904 331.14 235.552C331.14 235.552 336.225 239.2 341.53 236.105C345.731 233.01 350.705 231.462 352.584 225.051C353.91 220.188 353.468 210.903 354.021 206.15Z" fill="#E5BE90"/>
<path d="M364.08 248.042L346.284 242.847L337.11 242.183H336.889H336.668L327.493 242.847L309.697 248.042C309.697 248.042 300.301 251.8 301.186 262.964H336.668H336.999H372.481C373.476 251.8 364.08 248.042 364.08 248.042Z" fill="#E5BE90"/>
<path d="M326.167 192.221C326.167 192.221 318.761 199.185 318.872 209.796C318.872 209.796 312.129 191.337 324.62 182.936C324.509 182.826 325.172 191.448 326.167 192.221Z" fill="#3B2C16"/>
<path d="M320.64 200.732C320.64 200.732 319.977 213.112 322.188 220.629L319.645 219.523L318.65 208.028C318.65 208.028 318.761 201.838 320.64 200.732Z" fill="#3B2C16"/>
<path d="M351.7 198.08C351.7 198.08 352.695 213.002 350.484 220.519L353.027 219.413L354.022 207.918C354.022 208.028 353.579 199.185 351.7 198.08Z" fill="#3B2C16"/>
<path d="M346.836 242.847L364.08 248.042C364.08 248.042 373.476 251.8 372.591 262.964H337.109H336.778H301.296C300.522 251.911 309.807 248.042 309.807 248.042L327.603 242.847L336.999 246.936L346.836 242.847Z" fill="#8DBCBE"/>
<path d="M325.393 190.232C325.393 190.232 324.177 196.754 345.732 194.432C345.732 194.432 350.927 195.759 352.253 199.849L353.469 209.465C353.469 209.465 360.212 194.985 352.253 183.71C352.253 183.71 348.274 179.51 337.884 178.736C337.884 178.736 327.493 177.41 321.635 185.479L325.393 190.232Z" fill="#3B2C16"/>
<path d="M332.578 247.047H341.421L338.768 255.668H335.01L332.578 247.047Z" fill="#C44732"/>
<path d="M341.42 262.853L338.767 254.674H335.009L333.02 262.853H341.42Z" fill="#953A28"/>
<path d="M352.032 244.174L364.08 247.932C364.08 247.932 373.476 251.69 372.591 262.854H337.109H336.778H301.296C300.522 251.801 309.807 247.932 309.807 247.932L321.855 244.505L329.372 262.854H337.109H344.515L352.032 244.174Z" fill="white"/>
<path d="M328.156 242.294L336.999 247.047L328.156 255.668L321.855 244.615L328.156 242.294Z" fill="#ADACB2"/>
<path d="M328.156 240.968L336.999 247.047L328.156 254.232L321.855 244.615L328.156 240.968Z" fill="#8DBCBE"/>
<path d="M345.73 242.295L336.998 247.048L345.73 255.669L352.031 244.616L345.73 242.295Z" fill="#ADACB2"/>
<path d="M345.73 240.969L336.998 247.048L345.73 254.233L352.031 244.616L345.73 240.969Z" fill="#8DBCBE"/>
<path d="M321.855 244.615L329.482 262.853H325.613L313.344 247.047L321.855 244.615Z" fill="#CACBD0"/>
<path d="M352.032 244.174L344.516 262.854H348.274L360.543 247.048L352.032 244.174Z" fill="#CACBD0"/>
<path d="M397.794 348.629H397.683H397.573C397.462 348.629 397.462 348.518 397.352 348.518L393.372 344.539C392.046 343.213 391.604 341.334 392.156 339.676C392.599 338.239 393.593 337.465 395.141 337.465C396.136 337.465 396.799 337.686 397.352 338.349C397.462 338.46 397.573 338.681 397.683 338.791C397.794 338.681 397.904 338.46 398.015 338.349C398.567 337.796 399.341 337.575 400.226 337.575C401.662 337.575 402.768 338.349 403.21 339.786C403.763 341.444 403.321 343.323 401.994 344.65L398.015 348.629C398.125 348.629 397.904 348.629 397.794 348.629ZM395.251 338.46C394.146 338.46 393.593 338.902 393.262 339.897C392.82 341.113 393.262 342.549 394.257 343.655L397.794 347.303L401.331 343.655C402.326 342.66 402.657 341.223 402.326 339.897C401.994 338.902 401.441 338.46 400.336 338.46C399.673 338.46 399.231 338.57 398.899 339.012C398.346 339.676 398.346 340.67 398.346 340.67C398.346 340.781 398.346 340.891 398.236 340.891C398.125 341.113 397.904 341.223 397.573 341.223C397.352 341.113 397.131 340.891 397.131 340.67C397.131 340.67 397.131 340.67 397.131 340.56C397.131 340.339 397.02 339.565 396.578 339.012C396.357 338.681 395.915 338.46 395.251 338.46Z" fill="#E8505B"/>
<path d="M378.34 116.506C378.34 116.616 359.659 116.837 336.668 116.837C313.677 116.837 294.996 116.727 294.996 116.506C294.996 116.285 313.677 116.174 336.668 116.174C359.659 116.285 378.34 116.395 378.34 116.506Z" fill="#263238"/>
<path d="M366.957 105.01H304.836V108.547H366.957V105.01Z" fill="url(#paint7_linear_0_1689)"/>
<path d="M393.041 292.919C393.041 293.03 367.728 293.251 336.668 293.251C305.497 293.251 280.295 293.141 280.295 292.919C280.295 292.809 305.497 292.588 336.668 292.588C367.839 292.588 393.041 292.698 393.041 292.919Z" fill="#263238"/>
<path d="M377.235 283.193C377.235 283.303 359.107 283.525 336.668 283.525C314.229 283.525 296.101 283.414 296.101 283.193C296.101 283.082 314.229 282.861 336.668 282.861C358.996 282.861 377.235 282.972 377.235 283.193Z" fill="#263238"/>
<path d="M413.268 68.6434C413.268 68.7539 411.72 68.754 409.067 68.8645C406.525 68.975 402.877 68.975 398.788 68.975H398.456V68.6434C398.345 68.0907 398.345 67.5381 398.235 66.9854C397.572 62.0113 397.019 57.5899 396.687 54.7159L396.908 54.937C394.587 54.8265 393.15 54.8265 393.15 54.7159C393.15 54.6054 394.477 54.6054 396.908 54.4949H397.13V54.7159C397.572 57.5899 398.235 62.0113 399.009 66.9854C399.119 67.5381 399.119 68.0907 399.23 68.6434L398.898 68.3118C402.988 68.3118 406.525 68.3118 409.178 68.4223C411.72 68.4223 413.268 68.5329 413.268 68.6434Z" fill="#263238"/>
<path d="M398.458 65.6586C398.458 65.6586 398.9 65.548 399.563 65.548C400.448 65.548 401.442 65.548 402.658 65.4375C405.311 65.4375 408.959 65.327 413.27 65.327L412.938 65.548C413.27 63.7795 413.601 61.7898 413.933 59.8002C414.154 58.8054 414.265 57.8106 414.486 56.8157L414.817 57.1473C409.843 57.1473 405.422 57.1473 402.327 57.0368C400.89 57.0368 399.563 56.9263 398.569 56.9263C397.684 56.9263 397.242 56.8157 397.242 56.8157C397.242 56.8157 397.684 56.7052 398.569 56.7052C399.563 56.7052 400.779 56.5947 402.327 56.5947C405.532 56.4841 409.843 56.4841 414.817 56.4841H415.149L415.038 56.8157C414.817 57.8106 414.707 58.8054 414.486 59.8002C414.154 61.7898 413.822 63.7795 413.491 65.548V65.7691H413.27C408.959 65.7691 405.311 65.6586 402.658 65.6586C401.442 65.6586 400.448 65.548 399.563 65.548C398.9 65.6586 398.458 65.6586 398.458 65.6586Z" fill="#263238"/>
<path d="M402.545 72.5117C402.434 72.5117 402.434 71.959 401.881 71.5168C401.55 71.2958 401.108 71.2958 400.776 71.4063C400.334 71.5168 400.002 71.959 400.002 72.5117C400.002 72.9538 400.334 73.396 400.776 73.617C401.218 73.7276 401.66 73.7276 401.881 73.5065C402.434 73.0643 402.434 72.5117 402.545 72.5117C402.545 72.5117 402.655 72.6222 402.655 72.8433C402.655 73.0643 402.545 73.5065 402.102 73.8381C401.771 74.1697 401.108 74.3908 400.444 74.1697C399.781 73.9486 399.229 73.2854 399.229 72.5117C399.229 71.7379 399.781 71.0747 400.444 70.8536C401.108 70.6326 401.66 70.8536 402.102 71.1852C402.434 71.5169 402.545 71.8485 402.655 72.1801C402.545 72.4011 402.545 72.5117 402.545 72.5117Z" fill="#263238"/>
<path d="M411.72 72.5122C411.61 72.5122 411.61 71.9595 411.057 71.5173C410.725 71.2963 410.283 71.2963 409.952 71.4068C409.509 71.5173 409.178 71.9595 409.178 72.5122C409.178 72.9543 409.509 73.3964 409.952 73.6175C410.394 73.728 410.836 73.728 411.057 73.507C411.61 73.0648 411.72 72.5122 411.72 72.5122C411.72 72.5122 411.831 72.6227 411.831 72.8438C411.831 73.0648 411.72 73.507 411.278 73.8386C410.946 74.1702 410.283 74.3913 409.62 74.1702C408.957 73.9491 408.404 73.2859 408.404 72.5122C408.404 71.7384 408.957 71.0752 409.62 70.8541C410.283 70.6331 410.836 70.8541 411.278 71.1857C411.61 71.5173 411.72 71.8489 411.831 72.1806C411.831 72.4016 411.831 72.5122 411.72 72.5122Z" fill="#263238"/>
<path d="M421.338 56.0426C421.338 59.4692 418.575 62.1221 415.259 62.1221C411.832 62.1221 409.18 59.3587 409.18 56.0426C409.18 52.616 411.943 49.9632 415.259 49.9632C418.575 49.8526 421.338 52.616 421.338 56.0426Z" fill="#E8505B"/>
<path d="M415.811 53.5V58.4741H415.148V54.1632H414.043V53.5H415.811Z" fill="white"/>
</g>
<path d="M175.459 91.1306H111.705L223.837 15.5635H255.714L175.459 91.1306Z" fill="#32352C"/>
<path d="M239.213 91.1306H175.459L255.714 15.5635H287.778L239.213 91.1306Z" fill="url(#paint8_linear_0_1689)"/>
<path d="M303.154 91.1306H239.213L287.778 15.5635H319.843L303.154 91.1306Z" fill="#32352C"/>
<path d="M370.096 91.1306H303.154L319.843 15.5635H351.72L370.096 91.1306Z" fill="url(#paint9_linear_0_1689)"/>
<path d="M434.036 91.1306H370.095L351.719 15.5635H383.783L434.036 91.1306Z" fill="#32352C"/>
<path d="M561.544 91.1306H497.79L415.848 15.5635H447.725L561.544 91.1306Z" fill="#32352C"/>
<path d="M497.792 91.1306H434.038L383.785 15.5635H415.85L497.792 91.1306Z" fill="url(#paint10_linear_0_1689)"/>
<path d="M175.459 91.1299H111.705V101.068C111.705 116.444 124.268 129.007 139.644 129.007H147.52C162.896 129.007 175.459 116.444 175.459 101.068V91.1299Z" fill="url(#paint11_linear_0_1689)"/>
<path d="M239.213 91.1309H175.459V101.069C175.459 116.445 188.022 129.008 203.398 129.008H211.274C226.65 129.008 239.213 116.445 239.213 101.069V91.1309Z" fill="#32352C"/>
<path d="M303.154 91.1299H239.4V101.068C239.4 116.444 251.964 129.007 267.34 129.007H275.215C290.591 129.007 303.154 116.444 303.154 101.068V91.1299Z" fill="url(#paint12_linear_0_1689)"/>
<path d="M370.096 91.1299H302.967V99.5679C302.967 115.881 316.093 129.007 332.406 129.007H340.844C357.158 129.007 370.283 115.881 370.283 99.5679V91.1299H370.096Z" fill="#32352C"/>
<path d="M434.037 91.1309H370.283V101.069C370.283 116.445 382.846 129.008 398.222 129.008H406.098C421.474 129.008 434.037 116.445 434.037 101.069V91.1309Z" fill="url(#paint13_linear_0_1689)"/>
<path d="M561.545 91.1299H497.791V101.068C497.791 116.444 510.354 129.007 525.73 129.007H533.606C548.982 129.007 561.545 116.444 561.545 101.068V91.1299Z" fill="url(#paint14_linear_0_1689)"/>
<path d="M497.791 91.1309H434.037V101.069C434.037 116.445 446.6 129.008 461.976 129.008H469.852C485.228 129.008 497.791 116.445 497.791 101.069V91.1309Z" fill="#32352C"/>
<path d="M450.225 15.5634H226.148V10.8756C226.148 4.87527 231.024 0 237.024 0H439.161C445.162 0 450.037 4.87527 450.037 10.8756V15.5634H450.225Z" fill="#D68700"/>
<path d="M544.159 167.26L532.908 178.698" stroke="white" stroke-width="3.75023" stroke-miterlimit="10" stroke-linecap="round" stroke-linejoin="round"/>
<path d="M544.159 178.698L532.908 167.26" stroke="white" stroke-width="3.75023" stroke-miterlimit="10" stroke-linecap="round" stroke-linejoin="round"/>
<path d="M69.5671 251.265L58.3164 262.515" stroke="white" stroke-width="3.75023" stroke-miterlimit="10" stroke-linecap="round" stroke-linejoin="round"/>
<path d="M69.5671 262.515L58.3164 251.265" stroke="white" stroke-width="3.75023" stroke-miterlimit="10" stroke-linecap="round" stroke-linejoin="round"/>
<path d="M163.698 156.948C163.698 161.073 160.323 164.261 156.385 164.261C152.26 164.261 149.072 160.885 149.072 156.948C149.072 153.01 152.447 149.635 156.385 149.635C160.323 149.635 163.698 153.01 163.698 156.948Z" stroke="white" stroke-width="3.75023" stroke-miterlimit="10" stroke-linecap="round" stroke-linejoin="round"/>
<path opacity="0.9091" d="M415.901 507.781C510.244 507.781 586.724 499.469 586.724 489.217C586.724 478.965 510.244 470.653 415.901 470.653C321.558 470.653 245.078 478.965 245.078 489.217C245.078 499.469 321.558 507.781 415.901 507.781Z" fill="url(#paint15_radial_0_1689)"/>
<path opacity="0.9091" d="M415.901 507.781C510.244 507.781 586.724 499.469 586.724 489.217C586.724 478.965 510.244 470.653 415.901 470.653C321.558 470.653 245.078 478.965 245.078 489.217C245.078 499.469 321.558 507.781 415.901 507.781Z" fill="url(#paint16_radial_0_1689)"/>
<path opacity="0.9091" d="M483.592 493.155C577.935 493.155 654.415 484.843 654.415 474.591C654.415 464.339 577.935 456.027 483.592 456.027C389.249 456.027 312.77 464.339 312.77 474.591C312.77 484.843 389.249 493.155 483.592 493.155Z" fill="url(#paint17_radial_0_1689)"/>
<path opacity="0.9091" d="M483.592 493.155C577.935 493.155 654.415 484.843 654.415 474.591C654.415 464.339 577.935 456.027 483.592 456.027C389.249 456.027 312.77 464.339 312.77 474.591C312.77 484.843 389.249 493.155 483.592 493.155Z" fill="url(#paint18_radial_0_1689)"/>
<path opacity="0.9091" d="M170.823 518.094C265.166 518.094 341.646 509.783 341.646 499.531C341.646 489.278 265.166 480.967 170.823 480.967C76.4799 480.967 0 489.278 0 499.531C0 509.783 76.4799 518.094 170.823 518.094Z" fill="url(#paint19_radial_0_1689)"/>
<path opacity="0.9091" d="M170.823 518.094C265.166 518.094 341.646 509.783 341.646 499.531C341.646 489.278 265.166 480.967 170.823 480.967C76.4799 480.967 0 489.278 0 499.531C0 509.783 76.4799 518.094 170.823 518.094Z" fill="url(#paint20_radial_0_1689)"/>
<path opacity="0.9091" d="M277.141 486.217C388.468 486.217 478.716 477.906 478.716 467.653C478.716 457.401 388.468 449.09 277.141 449.09C165.814 449.09 75.5664 457.401 75.5664 467.653C75.5664 477.906 165.814 486.217 277.141 486.217Z" fill="url(#paint21_radial_0_1689)"/>
<path opacity="0.9091" d="M277.141 486.217C388.468 486.217 478.716 477.906 478.716 467.653C478.716 457.401 388.468 449.09 277.141 449.09C165.814 449.09 75.5664 457.401 75.5664 467.653C75.5664 477.906 165.814 486.217 277.141 486.217Z" fill="url(#paint22_radial_0_1689)"/>
<path opacity="0.9091" d="M277.141 486.217C388.468 486.217 478.716 477.906 478.716 467.653C478.716 457.401 388.468 449.09 277.141 449.09C165.814 449.09 75.5664 457.401 75.5664 467.653C75.5664 477.906 165.814 486.217 277.141 486.217Z" fill="url(#paint23_radial_0_1689)"/>
<path opacity="0.9091" d="M277.141 497.468C388.468 497.468 478.716 486.638 478.716 473.279C478.716 459.92 388.468 449.09 277.141 449.09C165.814 449.09 75.5664 459.92 75.5664 473.279C75.5664 486.638 165.814 497.468 277.141 497.468Z" fill="url(#paint24_radial_0_1689)"/>
<path d="M389.836 423.964H359.084V429.214H389.836V423.964Z" fill="#D9DCDD"/>
<path d="M389.836 382.523H355.522V387.774H389.836V382.523Z" fill="#D9DCDD"/>
<path d="M296.08 410.088H238.139V415.338H296.08V410.088Z" fill="#D9DCDD"/>
<path d="M274.704 329.832H232.326V359.084H274.704V329.832Z" fill="url(#paint25_linear_0_1689)"/>
<path d="M251.264 342.771H246.389V350.458H251.264V342.771Z" fill="#FDFCFF"/>
<path d="M252.016 342.771C252.016 342.771 253.703 340.521 255.953 335.645C256.328 334.895 258.016 335.458 257.078 338.646C256.328 341.083 256.141 341.458 256.141 341.458H261.016C261.391 341.458 261.579 341.646 261.766 342.021C262.141 343.521 262.891 348.021 259.703 350.271C259.516 350.271 259.516 350.459 259.328 350.459H252.016V342.771Z" fill="#FDFCFF"/>
<path d="M182.824 311.832H123.57V441.402H182.824V311.832Z" fill="url(#paint26_linear_0_1689)"/>
<path d="M108.756 441.402H123.569V311.832L108.756 316.895V441.402Z" fill="#A08652"/>
<path d="M260.267 342.584H211.701V373.898H260.267V342.584Z" fill="url(#paint27_linear_0_1689)"/>
<path d="M199.699 373.711H211.7V342.584L199.699 343.709V373.711Z" fill="#A08652"/>
<path d="M108.756 441.402H123.569V311.832L108.756 316.895V441.402Z" fill="url(#paint28_linear_0_1689)"/>
<path d="M199.699 373.711H211.7V342.584L199.699 343.709V373.711Z" fill="url(#paint29_linear_0_1689)"/>
<path d="M108.756 441.402H123.569V311.832L108.756 316.895V441.402Z" fill="#A08652"/>
<path d="M108.756 441.402H123.569V311.832L108.756 316.895V441.402Z" fill="#32352C"/>
<path d="M199.699 373.711H211.7V342.584L199.699 343.709V373.711Z" fill="#32352C"/>
<path d="M285.954 371.084H173.635V442.338H285.954V371.084Z" fill="url(#paint30_linear_0_1689)"/>
<path d="M145.885 442.338H173.636V371.084L145.885 373.709V442.338Z" fill="#32352C"/>
<path d="M102.757 446.277C101.069 446.277 99.3813 445.152 98.8188 443.277L59.0664 304.331H32.4397C30.1896 304.331 28.3145 302.455 28.3145 300.205C28.3145 297.955 30.1896 296.08 32.4397 296.08H62.254C64.1291 296.08 65.6292 297.205 66.1918 299.08L106.882 441.026C107.444 443.277 106.319 445.527 104.069 446.089C103.507 446.089 103.132 446.277 102.757 446.277Z" fill="#D68700"/>
<path d="M302.457 371.647H81.7559V375.773H302.457V371.647Z" fill="url(#paint31_linear_0_1689)"/>
<path d="M249.764 445.151L245.826 444.213L269.265 337.707L273.203 338.645L249.764 445.151Z" fill="url(#paint32_linear_0_1689)"/>
<path d="M137.259 445.151L112.133 338.645L116.258 337.707L141.197 444.213L137.259 445.151Z" fill="url(#paint33_linear_0_1689)"/>
<path d="M169.885 338.082H165.76V444.589H169.885V338.082Z" fill="url(#paint34_linear_0_1689)"/>
<path d="M221.076 338.082H216.951V444.589H221.076V338.082Z" fill="url(#paint35_linear_0_1689)"/>
<path d="M293.831 407.649H91.5059V411.774H293.831V407.649Z" fill="url(#paint36_linear_0_1689)"/>
<path d="M247.702 487.529H95.0679C82.1296 487.529 71.6289 477.028 71.6289 464.09C71.6289 451.152 82.1296 440.651 95.0679 440.651H116.069C118.319 440.651 120.194 442.526 120.194 444.776C120.194 447.026 118.319 448.902 116.069 448.902H95.0679C86.6298 448.902 79.692 455.84 79.692 464.278C79.692 472.716 86.6298 479.653 95.0679 479.653H247.702C249.952 479.653 251.827 481.529 251.827 483.779C251.827 485.654 249.952 487.529 247.702 487.529Z" fill="#D68700"/>
<path d="M123.57 506.281C135.583 506.281 145.321 496.543 145.321 484.53C145.321 472.517 135.583 462.778 123.57 462.778C111.557 462.778 101.818 472.517 101.818 484.53C101.818 496.543 111.557 506.281 123.57 506.281Z" fill="#32352C"/>
<path d="M123.569 493.155C128.333 493.155 132.194 489.294 132.194 484.53C132.194 479.766 128.333 475.904 123.569 475.904C118.805 475.904 114.943 479.766 114.943 484.53C114.943 489.294 118.805 493.155 123.569 493.155Z" fill="white"/>
<path d="M210.763 506.281C222.776 506.281 232.514 496.543 232.514 484.53C232.514 472.517 222.776 462.778 210.763 462.778C198.75 462.778 189.012 472.517 189.012 484.53C189.012 496.543 198.75 506.281 210.763 506.281Z" fill="url(#paint37_linear_0_1689)"/>
<path d="M210.763 506.281C222.776 506.281 232.514 496.543 232.514 484.53C232.514 472.517 222.776 462.778 210.763 462.778C198.75 462.778 189.012 472.517 189.012 484.53C189.012 496.543 198.75 506.281 210.763 506.281Z" fill="#32352C"/>
<path d="M210.762 493.155C215.526 493.155 219.388 489.294 219.388 484.53C219.388 479.766 215.526 475.904 210.762 475.904C205.999 475.904 202.137 479.766 202.137 484.53C202.137 489.294 205.999 493.155 210.762 493.155Z" fill="white"/>
<path d="M288.392 448.714H103.13C101.255 448.714 99.7552 447.589 99.1927 445.714L69.0034 339.207C68.6283 337.895 68.8158 336.582 69.7534 335.645C70.5034 334.707 71.816 333.957 72.9411 333.957H312.393C313.706 333.957 314.831 334.52 315.581 335.457C316.331 336.395 316.706 337.707 316.331 338.832L292.329 445.339C291.954 447.401 290.454 448.714 288.392 448.714ZM106.318 440.651H285.204L307.33 342.395H78.3789L106.318 440.651Z" fill="#D68700"/>
<path d="M542.657 336.396C541.345 336.396 540.22 335.271 540.22 333.958V313.519C540.22 301.331 530.282 291.393 518.093 291.393C505.905 291.393 495.967 301.331 495.967 313.519V332.458C495.967 333.77 494.842 334.896 493.53 334.896C492.217 334.896 491.092 333.77 491.092 332.458V313.519C491.092 298.706 503.093 286.518 518.093 286.518C532.907 286.518 545.095 298.518 545.095 313.519V333.958C545.095 335.271 543.97 336.396 542.657 336.396Z" fill="#D68700"/>
<path d="M575.848 474.592H531.408L442.34 474.404H442.152L442.527 469.341L443.277 459.028L443.652 453.778L444.403 443.652L444.778 438.402L445.528 428.276L445.903 423.026L446.653 412.713L447.028 407.65L447.59 397.337L447.965 392.087L448.715 381.961L449.09 376.711L449.84 366.585L450.215 361.335L450.965 351.209L451.153 349.897L451.34 345.959L453.216 319.707L453.403 316.707H565.535L565.722 319.707L566.66 332.27L566.847 336.583L567.41 345.959L567.785 351.209L568.535 361.335L568.723 366.585L569.473 376.711L569.848 381.961L570.41 392.087L570.785 397.337L571.535 407.65L571.91 412.713L572.473 423.026L572.848 428.276L573.41 438.402L573.785 443.652L574.535 453.778L574.723 457.153V457.528L574.91 459.028L575.473 469.341L575.848 474.592Z" fill="#FFA43B"/>
<path d="M459.216 324.583L453.028 335.833L452.278 345.959L451.903 351.209L451.153 361.335L450.778 366.585L449.84 376.711L449.465 381.961L448.715 392.087L448.34 397.337L447.59 407.65L447.028 412.713L446.278 423.026L445.903 428.276L445.153 438.402L444.778 443.652L443.84 453.778L443.465 459.028L442.715 469.341L442.34 474.404L442.715 469.341L443.465 459.028L443.652 453.778L444.403 443.652L444.778 438.402L445.528 428.276L445.903 423.026L446.653 412.713L447.028 407.65L447.778 397.337L448.153 392.087L448.715 381.961H448.903L449.09 376.711L449.84 366.585L450.215 361.335L450.965 351.209L451.153 349.897L451.34 345.959L453.216 319.707L453.403 316.707L455.653 319.707L459.216 324.583Z" fill="#32352C"/>
<path d="M459.215 324.582V341.271L453.027 335.645L459.215 324.582Z" fill="#BF5A4D"/>
<path d="M576.036 474.592V473.279L575.849 472.341L575.661 469.341L574.911 459.028L574.724 457.528V457.153L574.536 453.778L573.598 443.652L573.223 438.402L572.473 428.276L572.098 423.026L571.161 412.713L570.786 407.65L570.036 397.337L569.661 392.087L568.911 381.961L568.348 376.711L567.598 366.585L567.223 361.335L566.473 351.209L566.098 345.959L565.16 335.833L562.91 331.145L559.723 324.583L560.66 323.27L563.285 319.707L565.535 316.707L565.723 319.707L566.661 332.27L566.848 336.583V337.521L567.411 345.959L567.786 351.209L568.536 361.335L568.911 366.585L569.473 376.711L569.848 381.961L570.598 392.087L570.973 397.337L571.536 407.65L571.911 412.713L572.661 423.026L573.036 428.276L573.598 438.402L573.973 443.652L574.724 453.778L575.099 459.028L575.661 469.341L576.036 474.592Z" fill="#32352C"/>
<path d="M559.723 321.957V333.395L565.16 329.645L559.723 321.957Z" fill="#BF5A4D"/>
<path d="M576.036 474.591H442.34V474.404L442.715 469.341L443.277 459.028L443.652 453.778L444.403 443.652L444.778 438.402L445.528 428.276L445.903 423.026L446.653 412.713L447.028 407.65L447.778 397.337L448.153 392.086L448.715 381.961H448.903L449.09 376.71L449.84 366.585L450.215 361.335L450.965 351.209L451.153 349.896L451.34 345.959L453.216 319.707H565.722L566.66 332.27L566.847 336.583V337.521L567.41 345.959L567.785 351.209L568.535 361.335L568.91 366.585L569.473 376.71L569.848 381.961L570.598 392.086L570.973 397.337L571.535 407.65L571.91 412.713L572.66 423.026L573.035 428.276L573.598 438.402L573.973 443.652L574.723 453.778L575.098 459.028L575.661 469.341L575.848 472.341L576.036 473.279V474.591Z" fill="url(#paint38_linear_0_1689)"/>
<path d="M488.28 335.646C488.843 338.084 487.343 340.709 484.718 341.271C482.28 341.834 479.655 340.334 479.092 337.709C478.53 335.271 480.03 332.646 482.655 332.083C485.092 331.521 487.718 333.208 488.28 335.646Z" fill="#32352C"/>
<path d="M537.409 336.208C537.972 338.646 536.472 341.271 533.846 341.834C531.409 342.396 528.784 340.896 528.221 338.271C527.659 335.833 529.159 333.208 531.784 332.646C534.221 332.083 536.847 333.771 537.409 336.208Z" fill="#32352C"/>
<path d="M532.907 340.521C531.595 340.521 530.47 339.396 530.47 338.083V317.644C530.47 305.456 520.532 295.518 508.343 295.518C496.155 295.518 486.217 305.456 486.217 317.644V336.583C486.217 337.895 485.092 339.02 483.779 339.02C482.467 339.02 481.342 337.895 481.342 336.583V317.644C481.342 302.831 493.342 290.643 508.343 290.643C523.157 290.643 535.345 302.643 535.345 317.644V338.27C535.158 339.583 534.22 340.521 532.907 340.521Z" fill="#32352C"/>
<path d="M567.784 351.209H450.965L451.152 349.897L451.34 345.959H567.409L567.784 351.209Z" fill="url(#paint39_linear_0_1689)"/>
<path d="M568.91 366.584H449.84L450.215 361.334H568.535L568.91 366.584Z" fill="url(#paint40_linear_0_1689)"/>
<path d="M569.847 381.961H448.715L449.09 376.711H569.472L569.847 381.961Z" fill="url(#paint41_linear_0_1689)"/>
<path d="M570.972 397.336H447.59L447.965 392.086H570.597L570.972 397.336Z" fill="url(#paint42_linear_0_1689)"/>
<path d="M571.91 412.713H446.652L447.027 407.65H571.535L571.91 412.713Z" fill="url(#paint43_linear_0_1689)"/>
<path d="M573.035 428.276H445.527L445.902 423.025H572.66L573.035 428.276Z" fill="url(#paint44_linear_0_1689)"/>
<path d="M573.973 443.652H444.402L444.777 438.401H573.598L573.973 443.652Z" fill="url(#paint45_linear_0_1689)"/>
<path d="M575.098 459.028H443.277L443.652 453.777H574.723L575.098 459.028Z" fill="url(#paint46_linear_0_1689)"/>
<path d="M576.036 474.592H442.34V474.405H442.152L442.527 469.342H575.66L576.036 474.592Z" fill="url(#paint47_linear_0_1689)"/>
<path opacity="0.5" d="M465.779 483.592C499.85 483.592 527.47 454.377 527.47 418.338C527.47 382.299 499.85 353.084 465.779 353.084C431.708 353.084 404.088 382.299 404.088 418.338C404.088 454.377 431.708 483.592 465.779 483.592Z" fill="url(#paint48_radial_0_1689)"/>
<path d="M446.652 402.4C445.339 402.4 444.214 401.274 444.214 399.962V379.523C444.214 367.335 434.276 357.397 422.088 357.397C409.899 357.397 399.961 367.335 399.961 379.523V398.462C399.961 399.774 398.836 400.899 397.524 400.899C396.211 400.899 395.086 399.774 395.086 398.462V379.523C395.086 364.71 407.087 352.521 422.088 352.521C436.901 352.521 449.089 364.522 449.089 379.523V400.149C448.902 401.462 447.964 402.4 446.652 402.4Z" fill="#D68700"/>
<path d="M472.529 379.523L482.842 486.78H349.146L360.397 379.523" fill="#32352C"/>
<path d="M360.397 379.523L366.21 384.774L360.022 392.462L349.146 486.78L360.397 379.523Z" fill="#32352C"/>
<path d="M366.209 384.773V396.212L360.021 392.461L366.209 384.773Z" fill="#BF5A4D"/>
<path d="M472.528 379.523L466.715 384.774L472.153 392.462L483.028 486.78L472.528 379.523Z" fill="#32352C"/>
<path d="M466.715 384.773V396.212L472.153 392.461L466.715 384.773Z" fill="#BF5A4D"/>
<path d="M483.029 486.78H349.146L360.022 382.523H472.716L483.029 486.78Z" fill="url(#paint49_linear_0_1689)"/>
<path d="M483.029 486.78H349.146L360.022 382.523H472.716L483.029 486.78Z" fill="url(#paint50_linear_0_1689)"/>
<path d="M480.217 494.468V372.398H481.717L485.655 372.773V494.093L480.217 494.468Z" fill="url(#paint51_linear_0_1689)"/>
<path d="M464.09 495.592V371.272L469.528 371.647V495.218L464.09 495.592Z" fill="url(#paint52_linear_0_1689)"/>
<path d="M447.965 496.53V370.147L453.403 370.523V496.343L447.965 496.53Z" fill="url(#paint53_linear_0_1689)"/>
<path d="M432.027 497.655V368.835L437.465 369.21V497.28L432.027 497.655Z" fill="url(#paint54_linear_0_1689)"/>
<path d="M415.9 498.802V367.731L421.338 368.106V498.427L415.9 498.802Z" fill="url(#paint55_linear_0_1689)"/>
<path d="M399.775 499.927V366.606L405.213 366.981V499.552L399.775 499.927Z" fill="url(#paint56_linear_0_1689)"/>
<path d="M383.648 500.864V365.48L389.086 365.856V500.676L383.648 500.864Z" fill="url(#paint57_linear_0_1689)"/>
<path d="M367.521 501.968V364.335L372.959 364.71V501.593L367.521 501.968Z" fill="url(#paint58_linear_0_1689)"/>
<path d="M351.396 503.115V363.231L356.834 363.606V502.74L351.396 503.115Z" fill="url(#paint59_linear_0_1689)"/>
<path d="M395.274 398.461C395.837 400.899 394.337 403.524 391.712 404.087C389.274 404.649 386.649 403.149 386.086 400.524C385.524 398.086 387.024 395.461 389.649 394.899C392.087 394.336 394.712 396.024 395.274 398.461Z" fill="#32352C"/>
<path d="M444.401 399.024C444.964 401.461 443.464 404.087 440.839 404.649C438.401 405.212 435.776 403.712 435.213 401.086C434.651 398.461 436.151 396.024 438.776 395.461C441.214 394.899 443.839 396.586 444.401 399.024Z" fill="#32352C"/>
<path d="M439.527 402.4C438.214 402.4 437.089 401.274 437.089 399.962V379.523C437.089 367.335 427.151 357.397 414.963 357.397C402.774 357.397 392.836 367.335 392.836 379.523V398.462C392.836 399.774 391.711 400.899 390.399 400.899C389.086 400.899 387.961 399.774 387.961 398.462V379.523C387.961 364.71 399.962 352.521 414.963 352.521C429.776 352.521 441.964 364.522 441.964 379.523V400.149C441.964 401.462 440.839 402.4 439.527 402.4Z" fill="#32352C"/>
<path d="M564 259.959H478.12C468.182 259.959 460.119 251.896 460.119 241.958C460.119 232.02 468.182 223.957 478.12 223.957H564C573.939 223.957 582.001 232.02 582.001 241.958C582.001 251.896 573.939 259.959 564 259.959Z" fill="url(#paint60_linear_0_1689)"/>
<path d="M486.598 241.659C487.261 241.869 487.781 242.223 488.156 242.72C488.532 243.207 488.72 243.809 488.72 244.527C488.72 245.544 488.322 246.329 487.526 246.882C486.742 247.424 485.592 247.694 484.078 247.694H478.076V236.088H483.746C485.161 236.088 486.244 236.359 486.996 236.901C487.758 237.442 488.14 238.177 488.14 239.106C488.14 239.669 488.002 240.172 487.725 240.615C487.46 241.057 487.084 241.405 486.598 241.659ZM480.745 238.111V240.847H483.414C484.078 240.847 484.581 240.731 484.923 240.498C485.266 240.266 485.437 239.924 485.437 239.47C485.437 239.017 485.266 238.68 484.923 238.459C484.581 238.227 484.078 238.111 483.414 238.111H480.745ZM483.879 245.672C484.586 245.672 485.117 245.555 485.47 245.323C485.835 245.091 486.018 244.732 486.018 244.246C486.018 243.284 485.305 242.803 483.879 242.803H480.745V245.672H483.879ZM495.91 247.893C494.252 247.893 492.959 247.435 492.03 246.517C491.113 245.6 490.654 244.29 490.654 242.588V236.088H493.34V242.488C493.34 244.566 494.202 245.605 495.927 245.605C496.767 245.605 497.408 245.357 497.85 244.859C498.292 244.351 498.513 243.56 498.513 242.488V236.088H501.166V242.588C501.166 244.29 500.702 245.6 499.773 246.517C498.856 247.435 497.568 247.893 495.91 247.893ZM509.229 243.582V247.694H506.543V243.549L502.05 236.088H504.902L508.003 241.245L511.103 236.088H513.739L509.229 243.582ZM530.203 236.088V247.694H527.998L522.212 240.648V247.694H519.559V236.088H521.781L527.55 243.135V236.088H530.203ZM538.57 247.893C537.365 247.893 536.276 247.634 535.304 247.114C534.342 246.595 533.585 245.882 533.032 244.975C532.491 244.058 532.22 243.03 532.22 241.891C532.22 240.753 532.491 239.73 533.032 238.824C533.585 237.906 534.342 237.188 535.304 236.668C536.276 236.149 537.365 235.889 538.57 235.889C539.775 235.889 540.858 236.149 541.82 236.668C542.781 237.188 543.539 237.906 544.091 238.824C544.644 239.73 544.92 240.753 544.92 241.891C544.92 243.03 544.644 244.058 544.091 244.975C543.539 245.882 542.781 246.595 541.82 247.114C540.858 247.634 539.775 247.893 538.57 247.893ZM538.57 245.605C539.255 245.605 539.874 245.45 540.427 245.141C540.98 244.82 541.411 244.378 541.72 243.815C542.041 243.251 542.201 242.61 542.201 241.891C542.201 241.173 542.041 240.532 541.72 239.968C541.411 239.404 540.98 238.968 540.427 238.658C539.874 238.338 539.255 238.177 538.57 238.177C537.885 238.177 537.266 238.338 536.713 238.658C536.16 238.968 535.724 239.404 535.403 239.968C535.094 240.532 534.939 241.173 534.939 241.891C534.939 242.61 535.094 243.251 535.403 243.815C535.724 244.378 536.16 244.82 536.713 245.141C537.266 245.45 537.885 245.605 538.57 245.605ZM564.092 236.088L560.295 247.694H557.41L554.857 239.835L552.221 247.694H549.352L545.539 236.088H548.324L550.944 244.246L553.68 236.088H556.167L558.82 244.312L561.522 236.088H564.092Z" fill="white"/>
<path d="M137.635 268.329C154.515 268.329 168.199 254.645 168.199 237.765C168.199 220.884 154.515 207.2 137.635 207.2C120.754 207.2 107.07 220.884 107.07 237.765C107.07 254.645 120.754 268.329 137.635 268.329Z" fill="url(#paint61_linear_0_1689)"/>
<path d="M129.571 232.701H118.133V250.702H129.571V232.701Z" fill="white"/>
<path d="M131.445 232.702C131.445 232.702 135.571 227.639 140.821 216.201C141.571 214.513 145.696 216.013 143.634 223.139C141.946 228.764 141.384 229.702 141.384 229.702H152.822C153.572 229.702 154.134 230.264 154.322 230.827C155.072 234.389 156.947 245.077 149.447 250.328C149.259 250.515 148.884 250.703 148.509 250.703H131.445V232.702Z" fill="white"/>
<path d="M481.529 196.7C494.888 196.7 505.718 185.87 505.718 172.511C505.718 159.152 494.888 148.322 481.529 148.322C468.17 148.322 457.34 159.152 457.34 172.511C457.34 185.87 468.17 196.7 481.529 196.7Z" fill="url(#paint62_linear_0_1689)"/>
<path d="M491.843 171.198C488.468 176.448 481.53 182.449 481.53 182.449C481.53 182.449 474.592 176.636 471.217 171.198C469.904 169.135 470.279 167.073 471.217 165.573C472.342 163.698 474.405 162.385 476.467 162.573C480.405 162.76 481.343 166.885 481.343 166.885C481.343 166.885 482.28 162.948 486.218 162.573C488.468 162.385 490.531 163.698 491.468 165.573C492.593 167.073 493.156 169.135 491.843 171.198Z" fill="white"/>
<defs>
<linearGradient id="paint0_linear_0_1689" x1="260.46" y1="394.583" x2="412.865" y2="394.583" gradientUnits="userSpaceOnUse">
<stop stop-color="#EFB93B"/>
<stop offset="0.5363" stop-color="#EBA43B"/>
<stop offset="1" stop-color="#E9973B"/>
</linearGradient>
<linearGradient id="paint1_linear_0_1689" x1="266.543" y1="316.623" x2="278.693" y2="316.623" gradientUnits="userSpaceOnUse">
<stop stop-color="#EFB93B"/>
<stop offset="0.5363" stop-color="#EBA43B"/>
<stop offset="1" stop-color="#E9973B"/>
</linearGradient>
<linearGradient id="paint2_linear_0_1689" x1="282.042" y1="316.623" x2="294.192" y2="316.623" gradientUnits="userSpaceOnUse">
<stop stop-color="#EFB93B"/>
<stop offset="0.5363" stop-color="#EBA43B"/>
<stop offset="1" stop-color="#E9973B"/>
</linearGradient>
<linearGradient id="paint3_linear_0_1689" x1="297.543" y1="316.623" x2="309.693" y2="316.623" gradientUnits="userSpaceOnUse">
<stop stop-color="#EFB93B"/>
<stop offset="0.5363" stop-color="#EBA43B"/>
<stop offset="1" stop-color="#E9973B"/>
</linearGradient>
<linearGradient id="paint4_linear_0_1689" x1="313.043" y1="316.623" x2="325.192" y2="316.623" gradientUnits="userSpaceOnUse">
<stop stop-color="#EFB93B"/>
<stop offset="0.5363" stop-color="#EBA43B"/>
<stop offset="1" stop-color="#E9973B"/>
</linearGradient>
<linearGradient id="paint5_linear_0_1689" x1="328.542" y1="316.623" x2="340.691" y2="316.623" gradientUnits="userSpaceOnUse">
<stop stop-color="#EFB93B"/>
<stop offset="0.5363" stop-color="#EBA43B"/>
<stop offset="1" stop-color="#E9973B"/>
</linearGradient>
<linearGradient id="paint6_linear_0_1689" x1="276.147" y1="204.948" x2="397.18" y2="204.948" gradientUnits="userSpaceOnUse">
<stop stop-color="#EFB93B"/>
<stop offset="0.5363" stop-color="#EBA43B"/>
<stop offset="1" stop-color="#E9973B"/>
</linearGradient>
<linearGradient id="paint7_linear_0_1689" x1="304.881" y1="106.744" x2="367.019" y2="106.744" gradientUnits="userSpaceOnUse">
<stop stop-color="#EFB93B"/>
<stop offset="0.5363" stop-color="#EBA43B"/>
<stop offset="1" stop-color="#E9973B"/>
</linearGradient>
<linearGradient id="paint8_linear_0_1689" x1="231.588" y1="8.75262" x2="231.588" y2="83.2362" gradientUnits="userSpaceOnUse">
<stop stop-color="#FFBA3B"/>
<stop offset="0.5315" stop-color="#FFA53B"/>
<stop offset="1" stop-color="#FF983B"/>
</linearGradient>
<linearGradient id="paint9_linear_0_1689" x1="336.607" y1="8.75262" x2="336.607" y2="83.2362" gradientUnits="userSpaceOnUse">
<stop stop-color="#FFBA3B"/>
<stop offset="0.5315" stop-color="#FFA53B"/>
<stop offset="1" stop-color="#FF983B"/>
</linearGradient>
<linearGradient id="paint10_linear_0_1689" x1="440.758" y1="8.75262" x2="440.758" y2="83.2362" gradientUnits="userSpaceOnUse">
<stop stop-color="#FFBA3B"/>
<stop offset="0.5315" stop-color="#FFA53B"/>
<stop offset="1" stop-color="#FF983B"/>
</linearGradient>
<linearGradient id="paint11_linear_0_1689" x1="143.565" y1="87.716" x2="143.565" y2="125.05" gradientUnits="userSpaceOnUse">
<stop stop-color="#FFBA3B"/>
<stop offset="0.5315" stop-color="#FFA53B"/>
<stop offset="1" stop-color="#FF983B"/>
</linearGradient>
<linearGradient id="paint12_linear_0_1689" x1="271.26" y1="87.716" x2="271.26" y2="125.05" gradientUnits="userSpaceOnUse">
<stop stop-color="#FFBA3B"/>
<stop offset="0.5315" stop-color="#FFA53B"/>
<stop offset="1" stop-color="#FF983B"/>
</linearGradient>
<linearGradient id="paint13_linear_0_1689" x1="402.143" y1="87.717" x2="402.143" y2="125.051" gradientUnits="userSpaceOnUse">
<stop stop-color="#FFBA3B"/>
<stop offset="0.5315" stop-color="#FFA53B"/>
<stop offset="1" stop-color="#FF983B"/>
</linearGradient>
<linearGradient id="paint14_linear_0_1689" x1="529.651" y1="87.716" x2="529.651" y2="125.05" gradientUnits="userSpaceOnUse">
<stop stop-color="#FFBA3B"/>
<stop offset="0.5315" stop-color="#FFA53B"/>
<stop offset="1" stop-color="#FF983B"/>
</linearGradient>
<radialGradient id="paint15_radial_0_1689" cx="0" cy="0" r="1" gradientUnits="userSpaceOnUse" gradientTransform="translate(415.862 489.274) scale(232.885 34.9327)">
<stop offset="5.4e-07" stop-color="#B0B0AF" stop-opacity="0.7"/>
<stop offset="0.1058" stop-color="#C0C0BF" stop-opacity="0.6259"/>
<stop offset="0.3285" stop-color="#DBDBDB" stop-opacity="0.4701"/>
<stop offset="0.5523" stop-color="#EFEFEF" stop-opacity="0.3134"/>
<stop offset="0.7761" stop-color="#FBFBFB" stop-opacity="0.1567"/>
<stop offset="1" stop-color="white" stop-opacity="0"/>
</radialGradient>
<radialGradient id="paint16_radial_0_1689" cx="0" cy="0" r="1" gradientUnits="userSpaceOnUse" gradientTransform="translate(415.862 489.274) scale(232.885 34.9327)">
<stop offset="5.4e-07" stop-color="#B0B0AF" stop-opacity="0.7"/>
<stop offset="0.1058" stop-color="#C0C0BF" stop-opacity="0.6259"/>
<stop offset="0.3285" stop-color="#DBDBDB" stop-opacity="0.4701"/>
<stop offset="0.5523" stop-color="#EFEFEF" stop-opacity="0.3134"/>
<stop offset="0.7761" stop-color="#FBFBFB" stop-opacity="0.1567"/>
<stop offset="1" stop-color="white" stop-opacity="0"/>
</radialGradient>
<radialGradient id="paint17_radial_0_1689" cx="0" cy="0" r="1" gradientUnits="userSpaceOnUse" gradientTransform="translate(483.526 474.592) scale(232.885 34.9328)">
<stop offset="5.4e-07" stop-color="#B0B0AF" stop-opacity="0.7"/>
<stop offset="0.1058" stop-color="#C0C0BF" stop-opacity="0.6259"/>
<stop offset="0.3285" stop-color="#DBDBDB" stop-opacity="0.4701"/>
<stop offset="0.5523" stop-color="#EFEFEF" stop-opacity="0.3134"/>
<stop offset="0.7761" stop-color="#FBFBFB" stop-opacity="0.1567"/>
<stop offset="1" stop-color="white" stop-opacity="0"/>
</radialGradient>
<radialGradient id="paint18_radial_0_1689" cx="0" cy="0" r="1" gradientUnits="userSpaceOnUse" gradientTransform="translate(483.526 474.592) scale(232.885 34.9328)">
<stop offset="5.4e-07" stop-color="#B0B0AF" stop-opacity="0.7"/>
<stop offset="0.1058" stop-color="#C0C0BF" stop-opacity="0.6259"/>
<stop offset="0.3285" stop-color="#DBDBDB" stop-opacity="0.4701"/>
<stop offset="0.5523" stop-color="#EFEFEF" stop-opacity="0.3134"/>
<stop offset="0.7761" stop-color="#FBFBFB" stop-opacity="0.1567"/>
<stop offset="1" stop-color="white" stop-opacity="0"/>
</radialGradient>
<radialGradient id="paint19_radial_0_1689" cx="0" cy="0" r="1" gradientUnits="userSpaceOnUse" gradientTransform="translate(170.74 499.488) scale(232.885 34.9327)">
<stop offset="5.4e-07" stop-color="#B0B0AF" stop-opacity="0.7"/>
<stop offset="0.1058" stop-color="#C0C0BF" stop-opacity="0.6259"/>
<stop offset="0.3285" stop-color="#DBDBDB" stop-opacity="0.4701"/>
<stop offset="0.5523" stop-color="#EFEFEF" stop-opacity="0.3134"/>
<stop offset="0.7761" stop-color="#FBFBFB" stop-opacity="0.1567"/>
<stop offset="1" stop-color="white" stop-opacity="0"/>
</radialGradient>
<radialGradient id="paint20_radial_0_1689" cx="0" cy="0" r="1" gradientUnits="userSpaceOnUse" gradientTransform="translate(170.74 499.488) scale(232.885 34.9327)">
<stop offset="5.4e-07" stop-color="#B0B0AF" stop-opacity="0.7"/>
<stop offset="0.1058" stop-color="#C0C0BF" stop-opacity="0.6259"/>
<stop offset="0.3285" stop-color="#DBDBDB" stop-opacity="0.4701"/>
<stop offset="0.5523" stop-color="#EFEFEF" stop-opacity="0.3134"/>
<stop offset="0.7761" stop-color="#FBFBFB" stop-opacity="0.1567"/>
<stop offset="1" stop-color="white" stop-opacity="0"/>
</radialGradient>
<radialGradient id="paint21_radial_0_1689" cx="0" cy="0" r="1" gradientUnits="userSpaceOnUse" gradientTransform="translate(277.158 467.571) scale(274.916 34.9321)">
<stop offset="5.4e-07" stop-color="#B0B0AF" stop-opacity="0.7"/>
<stop offset="0.1058" stop-color="#C0C0BF" stop-opacity="0.6259"/>
<stop offset="0.3285" stop-color="#DBDBDB" stop-opacity="0.4701"/>
<stop offset="0.5523" stop-color="#EFEFEF" stop-opacity="0.3134"/>
<stop offset="0.7761" stop-color="#FBFBFB" stop-opacity="0.1567"/>
<stop offset="1" stop-color="white" stop-opacity="0"/>
</radialGradient>
<radialGradient id="paint22_radial_0_1689" cx="0" cy="0" r="1" gradientUnits="userSpaceOnUse" gradientTransform="translate(277.158 467.571) scale(274.916 34.9321)">
<stop offset="5.4e-07" stop-color="#B0B0AF" stop-opacity="0.7"/>
<stop offset="0.1058" stop-color="#C0C0BF" stop-opacity="0.6259"/>
<stop offset="0.3285" stop-color="#DBDBDB" stop-opacity="0.4701"/>
<stop offset="0.5523" stop-color="#EFEFEF" stop-opacity="0.3134"/>
<stop offset="0.7761" stop-color="#FBFBFB" stop-opacity="0.1567"/>
<stop offset="1" stop-color="white" stop-opacity="0"/>
</radialGradient>
<radialGradient id="paint23_radial_0_1689" cx="0" cy="0" r="1" gradientUnits="userSpaceOnUse" gradientTransform="translate(277.158 467.571) scale(274.916 34.9321)">
<stop offset="5.4e-07" stop-color="#B0B0AF" stop-opacity="0.7"/>
<stop offset="0.1058" stop-color="#C0C0BF" stop-opacity="0.6259"/>
<stop offset="0.3285" stop-color="#DBDBDB" stop-opacity="0.4701"/>
<stop offset="0.5523" stop-color="#EFEFEF" stop-opacity="0.3134"/>
<stop offset="0.7761" stop-color="#FBFBFB" stop-opacity="0.1567"/>
<stop offset="1" stop-color="white" stop-opacity="0"/>
</radialGradient>
<radialGradient id="paint24_radial_0_1689" cx="0" cy="0" r="1" gradientUnits="userSpaceOnUse" gradientTransform="translate(277.158 473.364) scale(274.916 45.8542)">
<stop offset="5.4e-07" stop-color="#B0B0AF" stop-opacity="0.7"/>
<stop offset="0.1058" stop-color="#C0C0BF" stop-opacity="0.6259"/>
<stop offset="0.3285" stop-color="#DBDBDB" stop-opacity="0.4701"/>
<stop offset="0.5523" stop-color="#EFEFEF" stop-opacity="0.3134"/>
<stop offset="0.7761" stop-color="#FBFBFB" stop-opacity="0.1567"/>
<stop offset="1" stop-color="white" stop-opacity="0"/>
</radialGradient>
<linearGradient id="paint25_linear_0_1689" x1="253.503" y1="327.196" x2="253.503" y2="356.028" gradientUnits="userSpaceOnUse">
<stop stop-color="#FFBA3B"/>
<stop offset="0.5315" stop-color="#FFA53B"/>
<stop offset="1" stop-color="#FF983B"/>
</linearGradient>
<linearGradient id="paint26_linear_0_1689" x1="153.181" y1="300.154" x2="153.181" y2="427.867" gradientUnits="userSpaceOnUse">
<stop stop-color="#FFBA3B"/>
<stop offset="0.5315" stop-color="#FFA53B"/>
<stop offset="1" stop-color="#FF983B"/>
</linearGradient>
<linearGradient id="paint27_linear_0_1689" x1="235.971" y1="339.762" x2="235.971" y2="370.627" gradientUnits="userSpaceOnUse">
<stop stop-color="#FFBA3B"/>
<stop offset="0.5315" stop-color="#FFA53B"/>
<stop offset="1" stop-color="#FF983B"/>
</linearGradient>
<linearGradient id="paint28_linear_0_1689" x1="108.794" y1="376.7" x2="123.531" y2="376.7" gradientUnits="userSpaceOnUse">
<stop offset="5e-08" stop-color="#F1C88D"/>
<stop offset="0.2682" stop-color="#EEC58A"/>
<stop offset="0.468" stop-color="#E6BB82"/>
<stop offset="0.6457" stop-color="#D7AB73"/>
<stop offset="0.8106" stop-color="#C2955F"/>
<stop offset="0.9652" stop-color="#A87845"/>
<stop offset="1" stop-color="#A1703E"/>
</linearGradient>
<linearGradient id="paint29_linear_0_1689" x1="199.611" y1="358.154" x2="211.663" y2="358.154" gradientUnits="userSpaceOnUse">
<stop offset="5e-08" stop-color="#F1C88D"/>
<stop offset="0.2682" stop-color="#EEC58A"/>
<stop offset="0.468" stop-color="#E6BB82"/>
<stop offset="0.6457" stop-color="#D7AB73"/>
<stop offset="0.8106" stop-color="#C2955F"/>
<stop offset="0.9652" stop-color="#A87845"/>
<stop offset="1" stop-color="#A1703E"/>
</linearGradient>
<linearGradient id="paint30_linear_0_1689" x1="229.764" y1="364.662" x2="229.764" y2="434.895" gradientUnits="userSpaceOnUse">
<stop stop-color="#FFBA3B"/>
<stop offset="0.5315" stop-color="#FFA53B"/>
<stop offset="1" stop-color="#FF983B"/>
</linearGradient>
<linearGradient id="paint31_linear_0_1689" x1="204.559" y1="375.783" x2="204.578" y2="372.327" gradientUnits="userSpaceOnUse">
<stop stop-color="#925200"/>
<stop offset="0.953125" stop-color="#D37D0B"/>
</linearGradient>
<linearGradient id="paint32_linear_0_1689" x1="261.059" y1="445.41" x2="305.746" y2="405.703" gradientUnits="userSpaceOnUse">
<stop stop-color="#925200"/>
<stop offset="0.953125" stop-color="#D37D0B"/>
</linearGradient>
<linearGradient id="paint33_linear_0_1689" x1="128.305" y1="445.41" x2="173.228" y2="403.033" gradientUnits="userSpaceOnUse">
<stop stop-color="#925200"/>
<stop offset="0.953125" stop-color="#D37D0B"/>
</linearGradient>
<linearGradient id="paint34_linear_0_1689" x1="168.055" y1="444.845" x2="179.889" y2="443.247" gradientUnits="userSpaceOnUse">
<stop stop-color="#925200"/>
<stop offset="0.953125" stop-color="#D37D0B"/>
</linearGradient>
<linearGradient id="paint35_linear_0_1689" x1="219.247" y1="444.845" x2="231.081" y2="443.247" gradientUnits="userSpaceOnUse">
<stop stop-color="#925200"/>
<stop offset="0.953125" stop-color="#D37D0B"/>
</linearGradient>
<linearGradient id="paint36_linear_0_1689" x1="204.084" y1="411.784" x2="204.104" y2="408.329" gradientUnits="userSpaceOnUse">
<stop stop-color="#925200"/>
<stop offset="0.953125" stop-color="#D37D0B"/>
</linearGradient>
<linearGradient id="paint37_linear_0_1689" x1="189.107" y1="484.449" x2="232.591" y2="484.449" gradientUnits="userSpaceOnUse">
<stop offset="4.1e-07" stop-color="white"/>
<stop offset="0.1438" stop-color="#FCFAFF" stop-opacity="0.8562"/>
<stop offset="0.313" stop-color="#F2ECFE" stop-opacity="0.687"/>
<stop offset="0.4951" stop-color="#E1D4FD" stop-opacity="0.5049"/>
<stop offset="0.6863" stop-color="#CAB3FB" stop-opacity="0.3137"/>
<stop offset="0.8825" stop-color="#AC89F9" stop-opacity="0.1175"/>
<stop offset="1" stop-color="#986CF7" stop-opacity="0"/>
</linearGradient>
<linearGradient id="paint38_linear_0_1689" x1="516.731" y1="474.965" x2="555.546" y2="358.124" gradientUnits="userSpaceOnUse">
<stop stop-color="#FFAA3B"/>
<stop offset="0.953125" stop-color="#D37D0B"/>
</linearGradient>
<linearGradient id="paint39_linear_0_1689" x1="456.25" y1="348.862" x2="567.338" y2="348.862" gradientUnits="userSpaceOnUse">
<stop stop-color="#FDFCFF" stop-opacity="0.68"/>
<stop offset="1" stop-color="#FDFCFF" stop-opacity="0.68"/>
</linearGradient>
<linearGradient id="paint40_linear_0_1689" x1="455.227" y1="364.237" x2="568.455" y2="364.237" gradientUnits="userSpaceOnUse">
<stop stop-color="#FDFCFF" stop-opacity="0.68"/>
<stop offset="1" stop-color="#FDFCFF" stop-opacity="0.68"/>
</linearGradient>
<linearGradient id="paint41_linear_0_1689" x1="454.195" y1="379.614" x2="569.384" y2="379.614" gradientUnits="userSpaceOnUse">
<stop stop-color="#FDFCFF" stop-opacity="0.68"/>
<stop offset="1" stop-color="#FDFCFF" stop-opacity="0.68"/>
</linearGradient>
<linearGradient id="paint42_linear_0_1689" x1="453.172" y1="394.989" x2="570.501" y2="394.989" gradientUnits="userSpaceOnUse">
<stop stop-color="#FDFCFF" stop-opacity="0.68"/>
<stop offset="1" stop-color="#FDFCFF" stop-opacity="0.68"/>
</linearGradient>
<linearGradient id="paint43_linear_0_1689" x1="452.319" y1="410.45" x2="571.431" y2="410.45" gradientUnits="userSpaceOnUse">
<stop stop-color="#FDFCFF" stop-opacity="0.68"/>
<stop offset="1" stop-color="#FDFCFF" stop-opacity="0.68"/>
</linearGradient>
<linearGradient id="paint44_linear_0_1689" x1="451.296" y1="425.929" x2="572.548" y2="425.929" gradientUnits="userSpaceOnUse">
<stop stop-color="#FDFCFF" stop-opacity="0.68"/>
<stop offset="1" stop-color="#FDFCFF" stop-opacity="0.68"/>
</linearGradient>
<linearGradient id="paint45_linear_0_1689" x1="450.264" y1="441.305" x2="573.478" y2="441.305" gradientUnits="userSpaceOnUse">
<stop stop-color="#FDFCFF" stop-opacity="0.68"/>
<stop offset="1" stop-color="#FDFCFF" stop-opacity="0.68"/>
</linearGradient>
<linearGradient id="paint46_linear_0_1689" x1="449.241" y1="456.681" x2="574.594" y2="456.681" gradientUnits="userSpaceOnUse">
<stop stop-color="#FDFCFF" stop-opacity="0.68"/>
<stop offset="1" stop-color="#FDFCFF" stop-opacity="0.68"/>
</linearGradient>
<linearGradient id="paint47_linear_0_1689" x1="448.209" y1="472.245" x2="575.524" y2="472.245" gradientUnits="userSpaceOnUse">
<stop stop-color="#FDFCFF" stop-opacity="0.68"/>
<stop offset="1" stop-color="#FDFCFF" stop-opacity="0.68"/>
</linearGradient>
<radialGradient id="paint48_radial_0_1689" cx="0" cy="0" r="1" gradientUnits="userSpaceOnUse" gradientTransform="translate(465.718 418.32) scale(105.122 105.122)">
<stop stop-color="#1D214B"/>
<stop offset="0.0493343" stop-color="#32365C" stop-opacity="0.9507"/>
<stop offset="0.188" stop-color="#686A87" stop-opacity="0.812"/>
<stop offset="0.3282" stop-color="#9698AB" stop-opacity="0.6718"/>
<stop offset="0.4673" stop-color="#BCBDCA" stop-opacity="0.5327"/>
<stop offset="0.6047" stop-color="#D9DAE1" stop-opacity="0.3953"/>
<stop offset="0.7403" stop-color="#EEEFF2" stop-opacity="0.2597"/>
<stop offset="0.8731" stop-color="#FBFBFC" stop-opacity="0.1269"/>
<stop offset="1" stop-color="white" stop-opacity="0"/>
</radialGradient>
<linearGradient id="paint49_linear_0_1689" x1="410.963" y1="365.244" x2="416.425" y2="493.605" gradientUnits="userSpaceOnUse">
<stop offset="4.1e-07" stop-color="#28067E"/>
<stop offset="0.1606" stop-color="#2D0A83"/>
<stop offset="0.3497" stop-color="#3A1691"/>
<stop offset="0.5532" stop-color="#502AA9"/>
<stop offset="0.7667" stop-color="#6E46CA"/>
<stop offset="0.9861" stop-color="#956AF4"/>
<stop offset="1" stop-color="#986CF7"/>
</linearGradient>
<linearGradient id="paint50_linear_0_1689" x1="423.642" y1="487.031" x2="442.216" y2="403.851" gradientUnits="userSpaceOnUse">
<stop stop-color="#FFAA3B"/>
<stop offset="0.953125" stop-color="#D37D0B"/>
</linearGradient>
<linearGradient id="paint51_linear_0_1689" x1="482.936" y1="372.398" x2="482.936" y2="494.468" gradientUnits="userSpaceOnUse">
<stop stop-color="#FDFCFF" stop-opacity="0.1"/>
<stop offset="1" stop-color="#FDFCFF"/>
</linearGradient>
<linearGradient id="paint52_linear_0_1689" x1="466.809" y1="371.272" x2="466.809" y2="495.592" gradientUnits="userSpaceOnUse">
<stop stop-color="#FDFCFF" stop-opacity="0.1"/>
<stop offset="1" stop-color="#FDFCFF"/>
</linearGradient>
<linearGradient id="paint53_linear_0_1689" x1="450.684" y1="370.147" x2="450.684" y2="496.53" gradientUnits="userSpaceOnUse">
<stop stop-color="#FDFCFF" stop-opacity="0.1"/>
<stop offset="1" stop-color="#FDFCFF"/>
</linearGradient>
<linearGradient id="paint54_linear_0_1689" x1="434.746" y1="368.835" x2="434.746" y2="497.655" gradientUnits="userSpaceOnUse">
<stop stop-color="#FDFCFF" stop-opacity="0.1"/>
<stop offset="1" stop-color="#FDFCFF"/>
</linearGradient>
<linearGradient id="paint55_linear_0_1689" x1="418.619" y1="367.731" x2="418.619" y2="498.802" gradientUnits="userSpaceOnUse">
<stop stop-color="#FDFCFF" stop-opacity="0.1"/>
<stop offset="1" stop-color="#FDFCFF"/>
</linearGradient>
<linearGradient id="paint56_linear_0_1689" x1="402.494" y1="366.606" x2="402.494" y2="499.927" gradientUnits="userSpaceOnUse">
<stop stop-color="#FDFCFF" stop-opacity="0.1"/>
<stop offset="1" stop-color="#FDFCFF"/>
</linearGradient>
<linearGradient id="paint57_linear_0_1689" x1="386.367" y1="365.48" x2="386.367" y2="500.864" gradientUnits="userSpaceOnUse">
<stop stop-color="#FDFCFF" stop-opacity="0.1"/>
<stop offset="1" stop-color="#FDFCFF"/>
</linearGradient>
<linearGradient id="paint58_linear_0_1689" x1="370.24" y1="364.335" x2="370.24" y2="501.968" gradientUnits="userSpaceOnUse">
<stop stop-color="#FDFCFF" stop-opacity="0.1"/>
<stop offset="1" stop-color="#FDFCFF"/>
</linearGradient>
<linearGradient id="paint59_linear_0_1689" x1="354.115" y1="363.231" x2="354.115" y2="503.115" gradientUnits="userSpaceOnUse">
<stop stop-color="#FDFCFF" stop-opacity="0.1"/>
<stop offset="1" stop-color="#FDFCFF"/>
</linearGradient>
<linearGradient id="paint60_linear_0_1689" x1="491.897" y1="248.915" x2="537.113" y2="217.697" gradientUnits="userSpaceOnUse">
<stop stop-color="#E88505"/>
<stop offset="1" stop-color="#FFAA3B"/>
</linearGradient>
<linearGradient id="paint61_linear_0_1689" x1="123.008" y1="249.578" x2="155.158" y2="243.021" gradientUnits="userSpaceOnUse">
<stop stop-color="#FFAA3B"/>
<stop offset="0.953125" stop-color="#D37D0B"/>
</linearGradient>
<linearGradient id="paint62_linear_0_1689" x1="469.953" y1="181.86" x2="495.397" y2="176.671" gradientUnits="userSpaceOnUse">
<stop stop-color="#FFAA3B"/>
<stop offset="0.953125" stop-color="#D37D0B"/>
</linearGradient>
<clipPath id="clip0_0_1689">
<rect width="211.338" height="461.056" fill="white" transform="translate(231.084 4.29785)"/>
</clipPath>
</defs>
</svg>
