<svg width="802" height="849" viewBox="0 0 802 849" fill="none" xmlns="http://www.w3.org/2000/svg">
<path d="M593.12 63.2411C727.432 154.338 819.725 51.1951 873 0V708.45H141.409C113.646 712.215 48.6662 698.362 10.8486 612.836C-26.969 527.31 43.1136 443.189 82.8821 411.82C208.19 291.361 95.6381 261.999 204.439 172.407C313.239 82.8157 351.507 194.24 420.539 102.39C475.765 28.9102 558.604 45.6741 593.12 63.2411Z" fill="white"/>
<path d="M626 787.5C721 827 819.725 775.805 873 827V413.551H141.409C113.646 409.786 48.6662 423.639 10.8486 509.165C-26.969 594.691 43.1136 678.811 82.8821 710.181C178.48 802.079 216.397 725.397 318 827C395 904 537.437 750.676 626 787.5Z" fill="white"/>
</svg>
