<svg width="1658" height="650" viewBox="0 0 1658 650" fill="none" xmlns="http://www.w3.org/2000/svg">
<path d="M626.144 389.323C717.771 424.016 819.405 404.489 868.768 441.444C868.768 441.444 896.049 303.109 873.007 219.562C799.186 -48.103 170.756 108.441 170.756 108.441C143.438 102.989 77.9229 103.885 34.4068 151.082C-9.10936 198.279 54.6609 257.001 91.9855 280.462C180.562 346.796 223.562 304.939 317.429 377.809C388.566 433.034 540.726 356.981 626.144 389.323Z" fill="#FF993C"/>
<path d="M1335.09 562.089C1423.04 605.249 1526.06 595.371 1571.73 636.807C1571.73 636.807 1560.11 494.814 1596.83 416.308C1742.86 104.025 1256.96 201.477 1013.19 194.106C911.811 191.04 822.052 173.512 768.389 269.23C736.995 325.226 778.587 376.584 813.539 403.453C895.481 477.827 942.228 440.201 1028.82 521.579C1094.45 583.252 1253.09 521.854 1335.09 562.089Z" fill="#FF993C"/>
</svg>
