<svg width="26" height="26" viewBox="0 0 26 26" fill="none" xmlns="http://www.w3.org/2000/svg">
<path d="M12.6836 0.166992C5.69397 0.166992 0.0273438 5.83362 0.0273438 12.8232L0.0277656 12.8456L0.0273438 12.868C0.0273438 19.8331 5.66233 25.4795 12.614 25.4795L12.641 25.4786L12.6836 25.4795C19.6732 25.4795 25.3398 19.8129 25.3398 12.8232C25.3398 5.83362 19.6732 0.166992 12.6836 0.166992ZM24.4961 12.8232C24.4961 13.8332 24.3687 14.8132 24.1307 15.7485C24.0206 15.6726 23.7295 15.9865 23.6578 15.5705C23.568 15.0541 22.9858 14.6955 22.6723 14.9423C22.3589 15.1891 21.4632 15.9067 21.4189 16.3556C21.3738 16.8041 20.9928 17.3424 20.8144 16.9618C20.6347 16.5805 20.098 15.3912 20.12 15.0773C20.1419 14.7634 19.8728 15.1895 19.4711 14.5614C19.0678 13.9332 18.3738 14.4711 17.814 14.1572C17.2542 13.8429 16.6273 13.4168 16.3134 13.2827C16.0008 13.1477 16.8732 14.5386 16.9855 14.3593C17.0981 14.18 17.5453 14.4939 17.6799 14.4939C17.8144 14.4939 18.1722 14.8077 17.9486 15.0997C17.725 15.3916 15.7325 16.6041 15.5308 16.2885C15.3283 15.973 14.1429 13.529 13.9408 13.6788C13.7391 13.8286 15.195 16.378 15.4414 16.5349C15.6869 16.6923 16.4265 16.5577 16.7842 16.4007C17.1428 16.2438 16.0455 18.1507 15.576 18.3751C15.106 18.5991 14.7255 19.2948 14.9263 19.6087C15.1279 19.9226 15.1503 21.1118 14.7255 21.2692C14.2994 21.4257 14.1429 21.6725 14.277 21.9644C14.4108 22.2555 13.964 22.7487 13.7623 23.063C13.5602 23.3769 12.7773 24.0274 12.7098 24.2071C12.6431 24.3868 11.6804 24.3417 11.299 24.3417C10.9189 24.3417 11.2096 23.8705 11.1644 23.4671C11.1205 23.063 10.7847 22.6816 10.7847 22.48C10.7847 22.2779 10.6721 21.8066 10.516 21.5826C10.3595 21.3578 10.3139 20.9317 10.4709 20.6853C10.6282 20.4381 10.7396 19.7209 10.427 19.4066C10.1131 19.0927 9.75452 18.554 10.0013 18.1279C10.2477 17.7018 9.73258 17.7469 9.30733 17.5444C8.88166 17.3424 8.00838 17.6119 7.56077 17.6794C7.11273 17.7465 6.66555 17.5672 6.53097 17.3424C6.39681 17.1184 6.10572 16.5577 5.80745 16.4227C5.51003 16.2885 5.68047 15.7051 5.85934 15.4811C6.03906 15.257 5.68047 14.8305 5.85934 14.6504C6.03906 14.4711 6.15044 13.821 6.50861 13.6788C6.8672 13.5371 6.7997 13.4396 6.81067 13.1029C6.82206 12.7663 7.21356 12.7663 7.28022 12.587C7.34772 12.4073 7.54895 12.3178 7.95311 12.3178C8.356 12.3178 9.03817 12.082 9.36302 12.0035C9.68786 11.9251 10.2477 11.8129 10.2025 12.1271C10.1578 12.441 10.1692 12.7996 10.3814 12.7996C10.5945 12.7996 10.8856 12.9232 11.2214 13.1325C11.5572 13.3413 11.5682 13.1704 11.6133 12.9346C11.6584 12.6988 12.128 12.7886 12.614 13.0131C13.1 13.2375 13.7628 13.0802 13.9745 13.0582C14.1876 13.035 14.2774 12.3963 14.2213 12.1833C14.1648 11.9702 13.8294 12.2841 13.6168 12.1495C13.4042 12.0154 13.1126 12.1833 12.9004 11.9921C12.6874 11.8019 12.6536 11.353 12.9004 11.342C13.1464 11.3306 13.27 11.2522 13.4151 11.0843C13.5611 10.9159 14.1095 10.8151 14.3222 10.983C14.5344 11.1514 14.8487 11.2636 15.0381 11.0729C15.2283 10.8826 14.6584 10.5126 14.5344 10.4114C14.4112 10.3106 14.512 9.98529 14.3892 9.98529C14.2656 9.98529 14.1648 10.041 14.2323 10.1983C14.2994 10.3553 13.8741 10.6354 13.8062 10.4789C13.7395 10.3215 13.6278 10.019 13.4598 10.019C13.2924 10.019 13.0683 10.7818 13.057 10.905C13.0456 11.0286 12.7545 11.2302 12.5199 11.2302C12.2853 11.2302 12.2853 11.4998 12.4081 11.6234C12.5313 11.7466 12.4414 12.2402 12.2178 12.2685C11.9938 12.2972 11.9154 12.2179 11.882 12.0267C11.8487 11.8365 11.6247 11.8588 11.6133 11.4661C11.6019 11.0733 11.3555 10.883 11.199 10.7033C11.0425 10.5236 10.6392 9.99668 10.4827 10.2325C10.3262 10.4683 11.0425 10.9729 11.2323 11.1071C11.4235 11.2416 11.3897 11.5331 11.2889 11.6006C11.188 11.6681 10.9978 12.2179 10.886 12.2621C10.7733 12.3069 10.6666 12.0951 10.6666 12.0951C10.4987 12.028 10.9012 11.8259 10.9687 11.7251C11.0353 11.6243 10.2637 10.9176 10.1245 10.7156C9.98528 10.5135 9.39044 10.8835 9.12213 10.7493C8.85339 10.6151 8.45008 11.2539 8.41717 11.6239C8.383 11.9943 7.94636 12.0947 7.54347 12.0947C7.141 12.0947 6.87184 11.7922 7.00684 11.4893C7.141 11.1864 6.93934 10.6818 7.17475 10.6481C7.40973 10.6147 8.08052 10.6481 8.21509 10.2781C8.34925 9.90809 7.5768 9.57143 7.8797 9.50435C8.18134 9.43685 8.65216 8.96646 8.98797 8.69688C9.32294 8.42773 9.35669 8.09149 9.65875 8.06787C9.96166 8.04466 9.59209 7.48526 9.86083 7.31735C10.13 7.14902 10.1966 7.92316 10.3983 7.92316C10.6 7.92316 11.002 7.85566 11.3382 8.02399C11.6745 8.19232 11.7749 7.85566 11.9095 7.41776C12.0436 6.9807 12.3794 6.74487 13.0506 6.40863C13.7222 6.07198 12.279 6.50946 12.0099 6.1728C11.7411 5.83615 12.1107 5.09576 12.279 4.57305C12.4469 4.04993 11.7415 5.09576 11.372 5.63449C11.002 6.1728 11.4728 6.40821 11.4386 6.77819C11.4053 7.1486 10.8016 7.58566 10.8016 7.58566C10.5329 7.61941 10.5662 7.0811 10.432 6.8457C10.2975 6.61029 10.0621 6.71112 9.6925 6.98027C9.32294 7.24943 9.28961 6.34113 9.1892 5.97073C9.08922 5.60116 9.79375 5.12951 10.1249 4.87807C10.4557 4.62579 11.002 3.41374 11.607 2.47212C12.2119 1.53007 13.0848 2.00088 13.3198 2.37129C13.5556 2.74085 14.1589 2.50545 14.7305 3.17876C15.3018 3.85165 14.596 4.15413 13.9589 3.88076C13.3198 3.60738 14.0927 4.55829 14.4614 4.82745C14.8309 5.09618 15.0326 4.22163 15.1672 4.01998C15.3013 3.8179 15.8046 3.91915 16.1738 3.38041C16.5437 2.8421 17.3829 2.94335 17.8621 3.00241C18.3418 3.0619 18.2224 2.70752 17.9203 2.4177C17.6967 2.20338 18.154 2.39112 18.6924 2.65395C22.1657 4.70974 24.4961 8.49354 24.4961 12.8232ZM7.63881 8.80362C7.52744 8.68845 7.75145 8.23493 7.85186 8.10035C7.95311 7.96577 7.57173 8.01049 7.59494 8.2016C7.6173 8.39187 7.44897 8.6838 7.21398 8.76227C6.979 8.84074 6.71111 8.81796 6.84484 8.60491C6.97858 8.39187 6.85581 8.20118 6.75498 7.9991C6.65458 7.79702 7.31439 7.67384 7.44939 7.55065C7.58355 7.42746 7.23719 7.34857 7.24773 7.1583C7.25912 6.9672 7.33759 6.79929 7.47091 6.77693C7.60548 6.75457 7.7312 6.66851 7.85186 6.6761C8.22184 6.69888 8.10878 7.53968 8.24378 7.80926C8.37794 8.07799 8.75889 8.40368 8.72514 8.63866C8.69139 8.87449 8.61967 9.00907 8.34545 8.94157C8.06997 8.87407 7.62911 9.2892 7.46036 9.21073C7.29203 9.13184 7.75145 8.91879 7.63881 8.80362ZM5.22653 4.08663C5.56277 4.25454 5.83066 3.94995 6.06522 3.88455C6.34323 3.80777 6.50186 4.79327 6.23355 4.75952C5.96481 4.72577 5.66275 5.29784 5.27462 5.26409C4.88608 5.23034 5.0582 4.9616 4.62156 4.55787C4.52791 4.47096 4.48952 4.39249 4.48614 4.32373C4.57938 4.23387 4.67219 4.14359 4.7688 4.0571C4.91983 4.01702 5.09913 4.02293 5.22653 4.08663ZM15.7321 21.0211C16.0455 20.954 15.9852 20.3575 16.2695 20.3259C16.8741 20.2588 16.2919 21.9408 16.0683 22.412C15.8443 22.8833 15.754 22.8605 15.541 22.569C15.3271 22.2779 15.3962 21.8062 15.541 21.5822C15.6852 21.3574 15.4182 21.0886 15.7321 21.0211Z" fill="white"/>
</svg>
