<svg xmlns="http://www.w3.org/2000/svg" fill="none" viewBox="114.6 0 291.93 153.67">
<path d="M406.532 44.0585C363.295 15.1606 312.418 -0.179381 260.413 0.00158209C208.408 0.182545 157.64 15.8762 114.604 45.0744L188.281 153.666C209.705 139.13 234.98 131.317 260.87 131.227C286.76 131.137 312.088 138.774 333.613 153.16L406.532 44.0585Z" fill="#D9D9D9"/>
<path d="M406.532 44.0585C363.295 15.1606 312.418 -0.179381 260.413 0.00158209C208.408 0.182545 157.64 15.8762 114.604 45.0744L188.281 153.666C209.705 139.13 234.98 131.317 260.87 131.227C286.76 131.137 312.088 138.774 333.613 153.16L406.532 44.0585Z" fill="url(#paint0_linear_823_10)"/>
<path d="M220.687 67.9324L217.509 58.1324H220.365L223.039 66.6164H221.597L224.411 58.1324H226.959L229.619 66.6164H228.233L230.991 58.1324H233.637L230.459 67.9324H227.491L225.223 60.7224H226.021L223.655 67.9324H220.687ZM239.358 68.1284C237.911 68.1284 236.782 67.7317 235.97 66.9384C235.158 66.145 234.752 65.0204 234.752 63.5644V58.1324H237.524V63.4804C237.524 64.3204 237.687 64.9224 238.014 65.2864C238.35 65.6504 238.807 65.8324 239.386 65.8324C239.964 65.8324 240.417 65.6504 240.744 65.2864C241.07 64.9224 241.234 64.3204 241.234 63.4804V58.1324H243.964V63.5644C243.964 65.0204 243.558 66.145 242.746 66.9384C241.934 67.7317 240.804 68.1284 239.358 68.1284ZM244.46 67.9324L248.786 58.1324H251.516L255.856 67.9324H252.972L249.584 59.4904H250.676L247.288 67.9324H244.46ZM246.826 66.0284L247.54 63.9844H252.328L253.042 66.0284H246.826ZM261.448 68.1284C260.664 68.1284 259.94 68.0024 259.278 67.7504C258.615 67.4984 258.036 67.1437 257.542 66.6864C257.056 66.2197 256.678 65.6784 256.408 65.0624C256.137 64.4464 256.002 63.7697 256.002 63.0324C256.002 62.295 256.137 61.6184 256.408 61.0024C256.678 60.3864 257.056 59.8497 257.542 59.3924C258.036 58.9257 258.615 58.5664 259.278 58.3144C259.94 58.0624 260.664 57.9364 261.448 57.9364C262.241 57.9364 262.964 58.0624 263.618 58.3144C264.28 58.5664 264.854 58.9257 265.34 59.3924C265.825 59.8497 266.203 60.3864 266.474 61.0024C266.754 61.6184 266.894 62.295 266.894 63.0324C266.894 63.7697 266.754 64.451 266.474 65.0764C266.203 65.6924 265.825 66.229 265.34 66.6864C264.854 67.1437 264.28 67.4984 263.618 67.7504C262.964 68.0024 262.241 68.1284 261.448 68.1284ZM261.448 65.8324C261.821 65.8324 262.166 65.767 262.484 65.6364C262.81 65.5057 263.09 65.319 263.324 65.0764C263.566 64.8244 263.753 64.5257 263.884 64.1804C264.024 63.835 264.094 63.4524 264.094 63.0324C264.094 62.603 264.024 62.2204 263.884 61.8844C263.753 61.539 263.566 61.245 263.324 61.0024C263.09 60.7504 262.81 60.559 262.484 60.4284C262.166 60.2977 261.821 60.2324 261.448 60.2324C261.074 60.2324 260.724 60.2977 260.398 60.4284C260.08 60.559 259.8 60.7504 259.558 61.0024C259.324 61.245 259.138 61.539 258.998 61.8844C258.867 62.2204 258.802 62.603 258.802 63.0324C258.802 63.4524 258.867 63.835 258.998 64.1804C259.138 64.5257 259.324 64.8244 259.558 65.0764C259.8 65.319 260.08 65.5057 260.398 65.6364C260.724 65.767 261.074 65.8324 261.448 65.8324ZM273.231 68.1284C272.457 68.1284 271.738 68.007 271.075 67.7644C270.422 67.5124 269.853 67.1577 269.367 66.7004C268.891 66.243 268.518 65.7064 268.247 65.0904C267.977 64.465 267.841 63.779 267.841 63.0324C267.841 62.2857 267.977 61.6044 268.247 60.9884C268.518 60.363 268.891 59.8217 269.367 59.3644C269.853 58.907 270.422 58.557 271.075 58.3144C271.738 58.0624 272.457 57.9364 273.231 57.9364C274.137 57.9364 274.944 58.095 275.653 58.4124C276.372 58.7297 276.969 59.187 277.445 59.7844L275.681 61.3804C275.364 61.007 275.014 60.7224 274.631 60.5264C274.258 60.3304 273.838 60.2324 273.371 60.2324C272.97 60.2324 272.601 60.2977 272.265 60.4284C271.929 60.559 271.64 60.7504 271.397 61.0024C271.164 61.245 270.977 61.539 270.837 61.8844C270.707 62.2297 270.641 62.6124 270.641 63.0324C270.641 63.4524 270.707 63.835 270.837 64.1804C270.977 64.5257 271.164 64.8244 271.397 65.0764C271.64 65.319 271.929 65.5057 272.265 65.6364C272.601 65.767 272.97 65.8324 273.371 65.8324C273.838 65.8324 274.258 65.7344 274.631 65.5384C275.014 65.3424 275.364 65.0577 275.681 64.6844L277.445 66.2804C276.969 66.8684 276.372 67.3257 275.653 67.6524C274.944 67.9697 274.137 68.1284 273.231 68.1284ZM283.418 68.1284C282.634 68.1284 281.911 68.0024 281.248 67.7504C280.586 67.4984 280.007 67.1437 279.512 66.6864C279.027 66.2197 278.649 65.6784 278.378 65.0624C278.108 64.4464 277.972 63.7697 277.972 63.0324C277.972 62.295 278.108 61.6184 278.378 61.0024C278.649 60.3864 279.027 59.8497 279.512 59.3924C280.007 58.9257 280.586 58.5664 281.248 58.3144C281.911 58.0624 282.634 57.9364 283.418 57.9364C284.212 57.9364 284.935 58.0624 285.588 58.3144C286.251 58.5664 286.825 58.9257 287.31 59.3924C287.796 59.8497 288.174 60.3864 288.444 61.0024C288.724 61.6184 288.864 62.295 288.864 63.0324C288.864 63.7697 288.724 64.451 288.444 65.0764C288.174 65.6924 287.796 66.229 287.31 66.6864C286.825 67.1437 286.251 67.4984 285.588 67.7504C284.935 68.0024 284.212 68.1284 283.418 68.1284ZM283.418 65.8324C283.792 65.8324 284.137 65.767 284.454 65.6364C284.781 65.5057 285.061 65.319 285.294 65.0764C285.537 64.8244 285.724 64.5257 285.854 64.1804C285.994 63.835 286.064 63.4524 286.064 63.0324C286.064 62.603 285.994 62.2204 285.854 61.8844C285.724 61.539 285.537 61.245 285.294 61.0024C285.061 60.7504 284.781 60.559 284.454 60.4284C284.137 60.2977 283.792 60.2324 283.418 60.2324C283.045 60.2324 282.695 60.2977 282.368 60.4284C282.051 60.559 281.771 60.7504 281.528 61.0024C281.295 61.245 281.108 61.539 280.968 61.8844C280.838 62.2204 280.772 62.603 280.772 63.0324C280.772 63.4524 280.838 63.835 280.968 64.1804C281.108 64.5257 281.295 64.8244 281.528 65.0764C281.771 65.319 282.051 65.5057 282.368 65.6364C282.695 65.767 283.045 65.8324 283.418 65.8324ZM290.316 67.9324V58.1324H293.088V67.9324H290.316ZM295.06 67.9324V58.1324H297.342L302.746 64.6564H301.668V58.1324H304.384V67.9324H302.102L296.698 61.4084H297.776V67.9324H295.06Z" fill="white"/>
<g filter="url(#filter0_d_823_10)">
<path d="M163.352 28.7419C153.688 28.7419 145.852 36.5779 145.852 46.2419C145.852 55.906 153.688 63.7419 163.352 63.7419C173.016 63.7419 180.852 55.906 180.852 46.2419C180.852 36.5779 173.016 28.7419 163.352 28.7419ZM164.223 54.7263L164.231 55.9646C164.231 56.1365 164.09 56.281 163.918 56.281H162.809C162.637 56.281 162.496 56.1404 162.496 55.9685V54.7419C159.028 54.4841 157.395 52.5076 157.219 50.3591C157.203 50.1755 157.348 50.0193 157.531 50.0193H159.336C159.489 50.0193 159.621 50.1287 159.645 50.2771C159.844 51.5154 160.809 52.4412 162.539 52.6716V47.0974L161.574 46.8513C159.531 46.363 157.586 45.0896 157.586 42.449C157.586 39.6013 159.75 38.0701 162.516 37.8005V36.5115C162.516 36.3396 162.656 36.199 162.828 36.199H163.926C164.098 36.199 164.239 36.3396 164.239 36.5115V37.7888C166.914 38.0583 168.922 39.6208 169.156 42.0544C169.176 42.238 169.031 42.3982 168.844 42.3982H167.09C166.934 42.3982 166.801 42.281 166.781 42.1287C166.625 40.988 165.711 40.0583 164.223 39.8552V45.1013L165.215 45.3318C167.746 45.9568 169.469 47.1677 169.469 49.8787C169.469 52.8201 167.281 54.4607 164.223 54.7263ZM160.016 42.2693C160.016 43.2615 160.629 44.031 161.949 44.5076C162.133 44.5818 162.317 44.6404 162.535 44.7029V39.8591C161.094 40.0427 160.016 40.8513 160.016 42.2693ZM164.567 47.5505C164.457 47.5271 164.348 47.4998 164.223 47.4646V52.6873C165.887 52.5388 167.035 51.6248 167.035 50.0935C167.035 48.8943 166.414 48.113 164.567 47.5505Z" fill="white"/>
</g>
<line x1="145.496" y1="70.1267" x2="182.351" y2="70.1267" stroke="white" stroke-width="2" stroke-linecap="round"/>
<defs>
<filter id="filter0_d_823_10" x="138.852" y="25.7419" width="49" height="49" filterUnits="userSpaceOnUse" color-interpolation-filters="sRGB">
<feFlood flood-opacity="0" result="BackgroundImageFix"/>
<feColorMatrix in="SourceAlpha" type="matrix" values="0 0 0 0 0 0 0 0 0 0 0 0 0 0 0 0 0 0 127 0" result="hardAlpha"/>
<feOffset dy="4"/>
<feGaussianBlur stdDeviation="3.5"/>
<feComposite in2="hardAlpha" operator="out"/>
<feColorMatrix type="matrix" values="0 0 0 0 0 0 0 0 0 0 0 0 0 0 0 0 0 0 0.25 0"/>
<feBlend mode="normal" in2="BackgroundImageFix" result="effect1_dropShadow_823_10"/>
<feBlend mode="normal" in="SourceGraphic" in2="effect1_dropShadow_823_10" result="shape"/>
</filter>
<linearGradient id="paint0_linear_823_10" x1="261.322" y1="24.0673" x2="261.322" y2="129.564" gradientUnits="userSpaceOnUse">
<stop stop-color="#FF993C"/>
<stop offset="1" stop-color="#FFB63C"/>
</linearGradient>
</defs>
</svg>