<svg xmlns="http://www.w3.org/2000/svg" fill="none" viewBox="370.3 410.36 240.87 216.52">
<path d="M374.925 626.876C426.898 625.043 477.143 607.745 519.229 577.195C561.315 546.644 593.329 504.232 611.173 455.384L487.914 410.356C479.03 434.674 463.093 455.789 442.141 470.998C421.189 486.207 396.175 494.818 370.301 495.731L374.925 626.876Z" fill="#D9D9D9"/>
<path d="M374.925 626.876C426.898 625.043 477.143 607.745 519.229 577.195C561.315 546.644 593.329 504.232 611.173 455.384L487.914 410.356C479.03 434.674 463.093 455.789 442.141 470.998C421.189 486.207 396.175 494.818 370.301 495.731L374.925 626.876Z" fill="url(#paint0_linear_825_17)"/>
<path d="M449.953 525.777C449.159 525.777 448.389 525.679 447.643 525.483C446.896 525.287 446.289 525.026 445.823 524.699L446.733 522.655C447.171 522.944 447.68 523.178 448.259 523.355C448.837 523.532 449.407 523.621 449.967 523.621C451.031 523.621 451.563 523.355 451.563 522.823C451.563 522.543 451.409 522.338 451.101 522.207C450.802 522.067 450.317 521.922 449.645 521.773C448.907 521.614 448.291 521.446 447.797 521.269C447.302 521.082 446.877 520.788 446.523 520.387C446.168 519.986 445.991 519.444 445.991 518.763C445.991 518.166 446.154 517.629 446.481 517.153C446.807 516.668 447.293 516.285 447.937 516.005C448.59 515.725 449.388 515.585 450.331 515.585C450.975 515.585 451.609 515.66 452.235 515.809C452.86 515.949 453.411 516.159 453.887 516.439L453.033 518.497C452.099 517.993 451.194 517.741 450.317 517.741C449.766 517.741 449.365 517.825 449.113 517.993C448.861 518.152 448.735 518.362 448.735 518.623C448.735 518.884 448.884 519.08 449.183 519.211C449.481 519.342 449.962 519.477 450.625 519.617C451.371 519.776 451.987 519.948 452.473 520.135C452.967 520.312 453.392 520.602 453.747 521.003C454.111 521.395 454.293 521.932 454.293 522.613C454.293 523.201 454.129 523.733 453.803 524.209C453.476 524.685 452.986 525.068 452.333 525.357C451.679 525.637 450.886 525.777 449.953 525.777ZM463.441 523.439V525.581H455.573V515.781H463.259V517.923H458.317V519.575H462.671V521.647H458.317V523.439H463.441ZM464.98 515.781H467.752V523.383H472.428V525.581H464.98V515.781ZM473.524 515.781H476.296V523.383H480.972V525.581H473.524V515.781ZM489.937 523.439V525.581H482.069V515.781H489.755V517.923H484.813V519.575H489.167V521.647H484.813V523.439H489.937ZM495.76 522.977H494.248V525.581H491.476V515.781H495.956C496.842 515.781 497.612 515.93 498.266 516.229C498.919 516.518 499.423 516.938 499.778 517.489C500.132 518.03 500.31 518.67 500.31 519.407C500.31 520.116 500.142 520.737 499.806 521.269C499.479 521.792 499.008 522.202 498.392 522.501L500.506 525.581H497.538L495.76 522.977ZM497.51 519.407C497.51 518.95 497.365 518.595 497.076 518.343C496.786 518.091 496.357 517.965 495.788 517.965H494.248V520.835H495.788C496.357 520.835 496.786 520.714 497.076 520.471C497.365 520.219 497.51 519.864 497.51 519.407ZM505.283 525.777C504.49 525.777 503.72 525.679 502.973 525.483C502.226 525.287 501.62 525.026 501.153 524.699L502.063 522.655C502.502 522.944 503.01 523.178 503.589 523.355C504.168 523.532 504.737 523.621 505.297 523.621C506.361 523.621 506.893 523.355 506.893 522.823C506.893 522.543 506.739 522.338 506.431 522.207C506.132 522.067 505.647 521.922 504.975 521.773C504.238 521.614 503.622 521.446 503.127 521.269C502.632 521.082 502.208 520.788 501.853 520.387C501.498 519.986 501.321 519.444 501.321 518.763C501.321 518.166 501.484 517.629 501.811 517.153C502.138 516.668 502.623 516.285 503.267 516.005C503.92 515.725 504.718 515.585 505.661 515.585C506.305 515.585 506.94 515.66 507.565 515.809C508.19 515.949 508.741 516.159 509.217 516.439L508.363 518.497C507.43 517.993 506.524 517.741 505.647 517.741C505.096 517.741 504.695 517.825 504.443 517.993C504.191 518.152 504.065 518.362 504.065 518.623C504.065 518.884 504.214 519.08 504.513 519.211C504.812 519.342 505.292 519.477 505.955 519.617C506.702 519.776 507.318 519.948 507.803 520.135C508.298 520.312 508.722 520.602 509.077 521.003C509.441 521.395 509.623 521.932 509.623 522.613C509.623 523.201 509.46 523.733 509.133 524.209C508.806 524.685 508.316 525.068 507.663 525.357C507.01 525.637 506.216 525.777 505.283 525.777ZM449.044 537.471C449.604 537.667 450.042 537.975 450.36 538.395C450.677 538.806 450.836 539.305 450.836 539.893C450.836 540.752 450.49 541.414 449.8 541.881C449.109 542.348 448.11 542.581 446.804 542.581H441.512V532.781H446.524C447.774 532.781 448.726 533.014 449.38 533.481C450.033 533.938 450.36 534.559 450.36 535.343C450.36 535.81 450.243 536.23 450.01 536.603C449.786 536.967 449.464 537.256 449.044 537.471ZM444.256 534.783V536.673H446.16C447.093 536.673 447.56 536.356 447.56 535.721C447.56 535.096 447.093 534.783 446.16 534.783H444.256ZM446.58 540.579C447.55 540.579 448.036 540.248 448.036 539.585C448.036 538.922 447.55 538.591 446.58 538.591H444.256V540.579H446.58ZM456.794 542.777C455.338 542.777 454.204 542.38 453.392 541.587C452.589 540.794 452.188 539.669 452.188 538.213V532.781H454.96V538.129C454.96 539.697 455.58 540.481 456.822 540.481C458.054 540.481 458.67 539.697 458.67 538.129V532.781H461.4V538.213C461.4 539.669 460.994 540.794 460.182 541.587C459.379 542.38 458.25 542.777 456.794 542.777ZM466.721 542.777C465.928 542.777 465.158 542.679 464.411 542.483C463.665 542.287 463.058 542.026 462.591 541.699L463.501 539.655C463.94 539.944 464.449 540.178 465.027 540.355C465.606 540.532 466.175 540.621 466.735 540.621C467.799 540.621 468.331 540.355 468.331 539.823C468.331 539.543 468.177 539.338 467.869 539.207C467.571 539.067 467.085 538.922 466.413 538.773C465.676 538.614 465.06 538.446 464.565 538.269C464.071 538.082 463.646 537.788 463.291 537.387C462.937 536.986 462.759 536.444 462.759 535.763C462.759 535.166 462.923 534.629 463.249 534.153C463.576 533.668 464.061 533.285 464.705 533.005C465.359 532.725 466.157 532.585 467.099 532.585C467.743 532.585 468.378 532.66 469.003 532.809C469.629 532.949 470.179 533.159 470.655 533.439L469.801 535.497C468.868 534.993 467.963 534.741 467.085 534.741C466.535 534.741 466.133 534.825 465.881 534.993C465.629 535.152 465.503 535.362 465.503 535.623C465.503 535.884 465.653 536.08 465.951 536.211C466.25 536.342 466.731 536.477 467.393 536.617C468.14 536.776 468.756 536.948 469.241 537.135C469.736 537.312 470.161 537.602 470.515 538.003C470.879 538.395 471.061 538.932 471.061 539.613C471.061 540.201 470.898 540.733 470.571 541.209C470.245 541.685 469.755 542.068 469.101 542.357C468.448 542.637 467.655 542.777 466.721 542.777ZM472.342 532.781H475.114V542.581H472.342V532.781ZM486.41 532.781V542.581H484.128L479.802 537.359V542.581H477.086V532.781H479.368L483.694 538.003V532.781H486.41ZM496.233 540.439V542.581H488.365V532.781H496.051V534.923H491.109V536.575H495.463V538.647H491.109V540.439H496.233ZM501.216 542.777C500.422 542.777 499.652 542.679 498.906 542.483C498.159 542.287 497.552 542.026 497.086 541.699L497.996 539.655C498.434 539.944 498.943 540.178 499.522 540.355C500.1 540.532 500.67 540.621 501.23 540.621C502.294 540.621 502.826 540.355 502.826 539.823C502.826 539.543 502.672 539.338 502.364 539.207C502.065 539.067 501.58 538.922 500.908 538.773C500.17 538.614 499.554 538.446 499.06 538.269C498.565 538.082 498.14 537.788 497.786 537.387C497.431 536.986 497.254 536.444 497.254 535.763C497.254 535.166 497.417 534.629 497.744 534.153C498.07 533.668 498.556 533.285 499.2 533.005C499.853 532.725 500.651 532.585 501.594 532.585C502.238 532.585 502.872 532.66 503.498 532.809C504.123 532.949 504.674 533.159 505.15 533.439L504.296 535.497C503.362 534.993 502.457 534.741 501.58 534.741C501.029 534.741 500.628 534.825 500.376 534.993C500.124 535.152 499.998 535.362 499.998 535.623C499.998 535.884 500.147 536.08 500.446 536.211C500.744 536.342 501.225 536.477 501.888 536.617C502.634 536.776 503.25 536.948 503.736 537.135C504.23 537.312 504.655 537.602 505.01 538.003C505.374 538.395 505.556 538.932 505.556 539.613C505.556 540.201 505.392 540.733 505.066 541.209C504.739 541.685 504.249 542.068 503.596 542.357C502.942 542.637 502.149 542.777 501.216 542.777ZM510.28 542.777C509.487 542.777 508.717 542.679 507.97 542.483C507.223 542.287 506.617 542.026 506.15 541.699L507.06 539.655C507.499 539.944 508.007 540.178 508.586 540.355C509.165 540.532 509.734 540.621 510.294 540.621C511.358 540.621 511.89 540.355 511.89 539.823C511.89 539.543 511.736 539.338 511.428 539.207C511.129 539.067 510.644 538.922 509.972 538.773C509.235 538.614 508.619 538.446 508.124 538.269C507.629 538.082 507.205 537.788 506.85 537.387C506.495 536.986 506.318 536.444 506.318 535.763C506.318 535.166 506.481 534.629 506.808 534.153C507.135 533.668 507.62 533.285 508.264 533.005C508.917 532.725 509.715 532.585 510.658 532.585C511.302 532.585 511.937 532.66 512.562 532.809C513.187 532.949 513.738 533.159 514.214 533.439L513.36 535.497C512.427 534.993 511.521 534.741 510.644 534.741C510.093 534.741 509.692 534.825 509.44 534.993C509.188 535.152 509.062 535.362 509.062 535.623C509.062 535.884 509.211 536.08 509.51 536.211C509.809 536.342 510.289 536.477 510.952 536.617C511.699 536.776 512.315 536.948 512.8 537.135C513.295 537.312 513.719 537.602 514.074 538.003C514.438 538.395 514.62 538.932 514.62 539.613C514.62 540.201 514.457 540.733 514.13 541.209C513.803 541.685 513.313 542.068 512.66 542.357C512.007 542.637 511.213 542.777 510.28 542.777Z" fill="white"/>
<g filter="url(#filter0_d_825_17)">
<path d="M563.19 453.5H552.531C549.777 453.5 547.501 455.775 547.501 458.65V459.847H541.753C539.597 459.847 537.801 461.644 537.801 463.919V484.039C537.801 486.314 539.597 488.111 541.753 488.111H549.058H573.849C576.004 488.111 577.801 486.314 577.801 484.039V463.919C577.801 461.644 576.004 459.847 573.849 459.847H568.1V458.65C568.1 455.775 565.944 453.5 563.19 453.5ZM553.968 486.314H552.891V461.045H553.968V486.314ZM560.795 486.314H554.807V461.045H560.795V486.314ZM562.711 486.314H561.753H561.633V461.045H561.753H562.711V486.314ZM563.43 459.847H552.292V458.65C552.292 458.53 552.412 458.41 552.531 458.41H563.19C563.31 458.41 563.43 458.53 563.43 458.65V459.847ZM573.849 461.524C575.166 461.524 576.124 462.602 576.124 463.919V484.039C576.124 485.356 575.046 486.434 573.849 486.434H563.549V461.524H564.148C564.627 461.524 564.986 461.165 564.986 460.686V458.65C564.986 457.572 564.148 456.734 563.19 456.734H552.531C551.454 456.734 550.735 457.572 550.735 458.65V460.686C550.735 461.165 551.094 461.524 551.573 461.524H552.172V486.434H541.873C540.555 486.434 539.597 485.356 539.597 484.039V463.919C539.597 462.602 540.675 461.524 541.873 461.524H548.459C548.939 461.524 549.298 461.165 549.298 460.686V458.65C549.298 456.734 550.855 455.177 552.651 455.177H563.31C565.226 455.177 566.663 456.734 566.663 458.65V460.686C566.663 461.165 567.022 461.524 567.501 461.524H573.849Z" fill="white"/>
</g>
<line x1="539.527" y1="496.859" x2="576.382" y2="496.859" stroke="white" stroke-width="2" stroke-linecap="round"/>
<defs>
<filter id="filter0_d_825_17" x="530.801" y="450.5" width="54" height="48.6108" filterUnits="userSpaceOnUse" color-interpolation-filters="sRGB">
<feFlood flood-opacity="0" result="BackgroundImageFix"/>
<feColorMatrix in="SourceAlpha" type="matrix" values="0 0 0 0 0 0 0 0 0 0 0 0 0 0 0 0 0 0 127 0" result="hardAlpha"/>
<feOffset dy="4"/>
<feGaussianBlur stdDeviation="3.5"/>
<feComposite in2="hardAlpha" operator="out"/>
<feColorMatrix type="matrix" values="0 0 0 0 0 0 0 0 0 0 0 0 0 0 0 0 0 0 0.25 0"/>
<feBlend mode="normal" in2="BackgroundImageFix" result="effect1_dropShadow_825_17"/>
<feBlend mode="normal" in="SourceGraphic" in2="effect1_dropShadow_825_17" result="shape"/>
</filter>
<linearGradient id="paint0_linear_825_17" x1="523.904" y1="576.946" x2="444.909" y2="464.248" gradientUnits="userSpaceOnUse">
<stop stop-color="#F80174"/>
<stop offset="1" stop-color="#F74D74"/>
</linearGradient>
</defs>
</svg>