<svg xmlns="http://www.w3.org/2000/svg" fill="none" viewBox="119.41 409.19 240.48 217.59">
<path d="M119.413 453.034C136.79 502.05 168.397 544.767 210.19 575.718C251.982 606.669 302.059 624.447 354.012 626.776L359.889 495.682C334.025 494.522 309.095 485.672 288.289 470.263C267.483 454.854 251.748 433.588 243.097 409.186L119.413 453.034Z" fill="url(#paint0_linear_825_15)"/>
<path d="M222.127 525.777C221.343 525.777 220.62 525.651 219.957 525.399C219.294 525.147 218.716 524.792 218.221 524.335C217.736 523.868 217.358 523.327 217.087 522.711C216.816 522.095 216.681 521.418 216.681 520.681C216.681 519.944 216.816 519.267 217.087 518.651C217.358 518.035 217.736 517.498 218.221 517.041C218.716 516.574 219.294 516.215 219.957 515.963C220.62 515.711 221.343 515.585 222.127 515.585C222.92 515.585 223.644 515.711 224.297 515.963C224.96 516.215 225.534 516.574 226.019 517.041C226.504 517.498 226.882 518.035 227.153 518.651C227.433 519.267 227.573 519.944 227.573 520.681C227.573 521.418 227.433 522.1 227.153 522.725C226.882 523.341 226.504 523.878 226.019 524.335C225.534 524.792 224.96 525.147 224.297 525.399C223.644 525.651 222.92 525.777 222.127 525.777ZM222.127 523.481C222.5 523.481 222.846 523.416 223.163 523.285C223.49 523.154 223.77 522.968 224.003 522.725C224.246 522.473 224.432 522.174 224.563 521.829C224.703 521.484 224.773 521.101 224.773 520.681C224.773 520.252 224.703 519.869 224.563 519.533C224.432 519.188 224.246 518.894 224.003 518.651C223.77 518.399 223.49 518.208 223.163 518.077C222.846 517.946 222.5 517.881 222.127 517.881C221.754 517.881 221.404 517.946 221.077 518.077C220.76 518.208 220.48 518.399 220.237 518.651C220.004 518.894 219.817 519.188 219.677 519.533C219.546 519.869 219.481 520.252 219.481 520.681C219.481 521.101 219.546 521.484 219.677 521.829C219.817 522.174 220.004 522.473 220.237 522.725C220.48 522.968 220.76 523.154 221.077 523.285C221.404 523.416 221.754 523.481 222.127 523.481ZM231.601 520.079H236.123V522.221H231.601V520.079ZM231.797 525.581H229.025V515.781H236.711V517.923H231.797V525.581ZM240.583 520.079H245.105V522.221H240.583V520.079ZM240.779 525.581H238.007V515.781H245.693V517.923H240.779V525.581ZM246.99 525.581V515.781H249.762V525.581H246.99ZM256.62 525.777C255.845 525.777 255.127 525.656 254.464 525.413C253.811 525.161 253.241 524.806 252.756 524.349C252.28 523.892 251.907 523.355 251.636 522.739C251.365 522.114 251.23 521.428 251.23 520.681C251.23 519.934 251.365 519.253 251.636 518.637C251.907 518.012 252.28 517.47 252.756 517.013C253.241 516.556 253.811 516.206 254.464 515.963C255.127 515.711 255.845 515.585 256.62 515.585C257.525 515.585 258.333 515.744 259.042 516.061C259.761 516.378 260.358 516.836 260.834 517.433L259.07 519.029C258.753 518.656 258.403 518.371 258.02 518.175C257.647 517.979 257.227 517.881 256.76 517.881C256.359 517.881 255.99 517.946 255.654 518.077C255.318 518.208 255.029 518.399 254.786 518.651C254.553 518.894 254.366 519.188 254.226 519.533C254.095 519.878 254.03 520.261 254.03 520.681C254.03 521.101 254.095 521.484 254.226 521.829C254.366 522.174 254.553 522.473 254.786 522.725C255.029 522.968 255.318 523.154 255.654 523.285C255.99 523.416 256.359 523.481 256.76 523.481C257.227 523.481 257.647 523.383 258.02 523.187C258.403 522.991 258.753 522.706 259.07 522.333L260.834 523.929C260.358 524.517 259.761 524.974 259.042 525.301C258.333 525.618 257.525 525.777 256.62 525.777ZM262.07 525.581V515.781H264.842V525.581H262.07ZM265.638 525.581L269.964 515.781H272.694L277.034 525.581H274.15L270.762 517.139H271.854L268.466 525.581H265.638ZM268.004 523.677L268.718 521.633H273.506L274.22 523.677H268.004ZM277.82 525.581V515.781H280.592V523.383H285.268V525.581H277.82ZM208.105 536.575H212.655V538.647H208.105V536.575ZM208.301 540.439H213.425V542.581H205.557V532.781H213.243V534.923H208.301V540.439ZM213.873 542.581L218.157 536.631L218.143 538.605L214.027 532.781H217.149L219.781 536.575L218.451 536.589L221.041 532.781H224.037L219.921 538.493V536.533L224.261 542.581H221.069L218.395 538.591H219.669L217.037 542.581H213.873ZM229.734 542.777C228.959 542.777 228.241 542.656 227.578 542.413C226.925 542.161 226.355 541.806 225.87 541.349C225.394 540.892 225.021 540.355 224.75 539.739C224.479 539.114 224.344 538.428 224.344 537.681C224.344 536.934 224.479 536.253 224.75 535.637C225.021 535.012 225.394 534.47 225.87 534.013C226.355 533.556 226.925 533.206 227.578 532.963C228.241 532.711 228.959 532.585 229.734 532.585C230.639 532.585 231.447 532.744 232.156 533.061C232.875 533.378 233.472 533.836 233.948 534.433L232.184 536.029C231.867 535.656 231.517 535.371 231.134 535.175C230.761 534.979 230.341 534.881 229.874 534.881C229.473 534.881 229.104 534.946 228.768 535.077C228.432 535.208 228.143 535.399 227.9 535.651C227.667 535.894 227.48 536.188 227.34 536.533C227.209 536.878 227.144 537.261 227.144 537.681C227.144 538.101 227.209 538.484 227.34 538.829C227.48 539.174 227.667 539.473 227.9 539.725C228.143 539.968 228.432 540.154 228.768 540.285C229.104 540.416 229.473 540.481 229.874 540.481C230.341 540.481 230.761 540.383 231.134 540.187C231.517 539.991 231.867 539.706 232.184 539.333L233.948 540.929C233.472 541.517 232.875 541.974 232.156 542.301C231.447 542.618 230.639 542.777 229.734 542.777ZM241.736 532.781H244.508V542.581H241.736V532.781ZM237.956 542.581H235.184V532.781H237.956V542.581ZM241.932 538.759H237.76V536.463H241.932V538.759ZM245.287 542.581L249.613 532.781H252.343L256.683 542.581H253.799L250.411 534.139H251.503L248.115 542.581H245.287ZM247.653 540.677L248.367 538.633H253.155L253.869 540.677H247.653ZM257.469 542.581V532.781H259.751L265.155 539.305H264.077V532.781H266.793V542.581H264.511L259.107 536.057H260.185V542.581H257.469ZM273.649 542.777C272.874 542.777 272.155 542.656 271.493 542.413C270.83 542.161 270.256 541.806 269.771 541.349C269.295 540.892 268.921 540.355 268.651 539.739C268.38 539.114 268.245 538.428 268.245 537.681C268.245 536.934 268.38 536.253 268.651 535.637C268.921 535.012 269.299 534.47 269.785 534.013C270.27 533.556 270.844 533.206 271.507 532.963C272.179 532.711 272.911 532.585 273.705 532.585C274.629 532.585 275.455 532.739 276.183 533.047C276.911 533.355 277.513 533.798 277.989 534.377L276.225 535.973C275.889 535.609 275.525 535.338 275.133 535.161C274.75 534.974 274.321 534.881 273.845 534.881C273.425 534.881 273.042 534.946 272.697 535.077C272.351 535.208 272.057 535.399 271.815 535.651C271.572 535.894 271.381 536.188 271.241 536.533C271.11 536.869 271.045 537.252 271.045 537.681C271.045 538.092 271.11 538.47 271.241 538.815C271.381 539.16 271.572 539.459 271.815 539.711C272.057 539.954 272.347 540.145 272.683 540.285C273.028 540.416 273.406 540.481 273.817 540.481C274.227 540.481 274.629 540.416 275.021 540.285C275.413 540.145 275.809 539.912 276.211 539.585L277.765 541.531C277.205 541.932 276.556 542.24 275.819 542.455C275.081 542.67 274.358 542.777 273.649 542.777ZM275.315 541.167V537.471H277.765V541.531L275.315 541.167ZM282.07 536.575H286.62V538.647H282.07V536.575ZM282.266 540.439H287.39V542.581H279.522V532.781H287.208V534.923H282.266V540.439ZM292.372 542.777C291.57 542.777 290.795 542.679 290.048 542.483C289.311 542.278 288.709 542.016 288.242 541.699L289.152 539.655C289.591 539.935 290.095 540.168 290.664 540.355C291.243 540.532 291.817 540.621 292.386 540.621C292.769 540.621 293.077 540.588 293.31 540.523C293.544 540.448 293.712 540.355 293.814 540.243C293.926 540.122 293.982 539.982 293.982 539.823C293.982 539.599 293.88 539.422 293.674 539.291C293.469 539.16 293.203 539.053 292.876 538.969C292.55 538.885 292.186 538.801 291.784 538.717C291.392 538.633 290.996 538.526 290.594 538.395C290.202 538.264 289.843 538.096 289.516 537.891C289.19 537.676 288.924 537.401 288.718 537.065C288.513 536.72 288.41 536.286 288.41 535.763C288.41 535.175 288.569 534.643 288.886 534.167C289.213 533.691 289.698 533.308 290.342 533.019C290.986 532.73 291.789 532.585 292.75 532.585C293.394 532.585 294.024 532.66 294.64 532.809C295.266 532.949 295.821 533.159 296.306 533.439L295.452 535.497C294.986 535.245 294.524 535.058 294.066 534.937C293.609 534.806 293.166 534.741 292.736 534.741C292.354 534.741 292.046 534.783 291.812 534.867C291.579 534.942 291.411 535.044 291.308 535.175C291.206 535.306 291.154 535.455 291.154 535.623C291.154 535.838 291.252 536.01 291.448 536.141C291.654 536.262 291.92 536.365 292.246 536.449C292.582 536.524 292.946 536.603 293.338 536.687C293.74 536.771 294.136 536.878 294.528 537.009C294.93 537.13 295.294 537.298 295.62 537.513C295.947 537.718 296.208 537.994 296.404 538.339C296.61 538.675 296.712 539.1 296.712 539.613C296.712 540.182 296.549 540.71 296.222 541.195C295.905 541.671 295.424 542.054 294.78 542.343C294.146 542.632 293.343 542.777 292.372 542.777Z" fill="white"/>
<g filter="url(#filter0_d_825_15)">
<path d="M186.096 457L182.731 460.558C182.538 460.558 182.346 460.558 182.25 460.462C181 459.981 178.885 459.596 176.288 461.615L176.192 461.712L175.327 462.577C172.154 460.365 169.654 461.712 168.981 462.192L165.808 458.923L156 469.404L159.75 473.346C159.75 475.077 160.327 476.904 161.577 478.731C162.058 479.5 162.635 480.173 163.212 480.846C163.981 481.712 164.75 482.481 165.519 483.346C164.654 484.692 165.038 485.75 165.904 486.712C166.769 487.673 167.635 487.865 168.885 487.481C169.75 488.923 170.615 489.596 171.481 489.596C171.865 489.981 172.25 490.365 172.538 490.75C173.596 491.904 175.327 492.096 176.577 491.327C177.154 490.942 177.25 490.654 177.538 490.173C179.75 492.192 181.192 492.192 183.019 489.404C184.269 489.788 185.135 489.692 186 488.635C186.962 487.577 187.25 486.519 186.288 485.077L186 484.692C186.769 484.692 187.346 484.212 187.635 483.731C188.5 482.577 188.404 481.327 187.538 480.077C187.923 479.692 188.308 479.212 188.788 478.827C189.365 478.154 189.942 477.481 190.423 476.712C191.577 474.885 192.154 473.058 192.25 471.327L196 467.385L186.096 457ZM163.788 479.404C162.635 478.154 161.769 476.712 161.385 475.173C161.288 474.788 161.288 474.5 161.192 474.115C161.192 473.827 161.192 473.538 161.192 473.154L157.442 469.115L165.615 460.462L168.212 463.25L168.404 463.442L169.654 463.538L169.75 463.346C170.231 462.962 172.346 461.808 175.038 464.019L178.692 467.865C178.885 468.058 178.981 468.346 178.981 468.635C178.981 468.923 178.885 469.212 178.692 469.404L178.404 469.692C178.019 470.077 177.442 470.077 177.058 469.692L173.308 465.75L172.442 466.423L173.5 467.673L173.981 468.154C173.596 468.635 173.115 469.019 172.731 469.5C172.635 469.596 172.538 469.692 172.538 469.885C172.538 469.885 172.538 469.885 172.442 469.981C169.942 472.673 167.442 475.269 164.942 477.962C164.269 478.346 163.981 478.827 163.788 479.404ZM175.904 490.173C175.615 490.462 175.327 490.654 174.846 490.558C174.269 490.462 173.885 489.981 173.596 489.692C173.404 489.5 173.212 489.308 173.115 489.115C173.5 488.923 173.981 488.538 174.462 488.154C174.75 488.635 174.846 488.923 175.423 489.308C175.712 489.5 175.904 489.596 176.192 489.692C176.096 489.885 176 490.077 175.904 490.173ZM181.288 489.692C180.712 490.365 180.135 490.462 179.269 489.692C179.173 489.596 178.981 489.404 178.885 489.308C179.077 489.212 179.269 489.019 179.365 488.923C179.846 488.442 180.327 487.962 180.808 487.481C180.904 487.577 180.904 487.577 181 487.673C181.673 488.346 181.769 489.019 181.288 489.692ZM185.135 487.481C184.558 488.346 183.692 488.346 182.923 487.481C182.538 487.096 182.154 486.712 181.769 486.231C182.442 485.558 183.019 484.885 183.692 484.308C184.077 484.692 184.365 485.077 184.75 485.462C185.423 486.135 185.615 486.904 185.135 487.481ZM186.769 482.673C186.481 483.442 185.615 483.827 184.942 483.442C184.846 483.442 184.846 483.346 184.75 483.346C185.327 482.673 186 482.096 186.577 481.423C186.769 481.712 186.962 482.096 186.769 482.673ZM190.712 471.135C190.712 471.423 190.712 471.808 190.712 472.096C190.712 472.481 190.615 472.865 190.519 473.154C190.135 474.788 189.269 476.135 188.115 477.385C186.577 479.115 184.942 480.75 183.404 482.481C181.769 484.212 180.038 486.038 178.404 487.769C178.115 488.058 177.731 488.538 177.154 488.635C176.769 488.635 176.385 488.538 176.096 488.25C175.808 487.962 175.712 487.288 175.808 486.904C175.904 486.423 176.288 486.038 176.577 485.75C177.346 484.885 178.115 484.115 178.885 483.346C179.269 482.962 179.654 482.577 180.038 482.192C180.423 481.808 181.577 480.846 180.904 480.173C180.327 479.596 179.462 480.75 179.077 481.135C178.692 481.519 178.308 481.904 177.923 482.288C176.192 484.115 174.462 485.942 172.635 487.769C171.769 488.538 171.192 488.538 170.615 487.769C170.038 487.096 170.231 486.423 171 485.654C173.019 483.538 175.038 481.423 176.962 479.308C177.25 479.019 177.442 478.827 177.538 478.346C177.538 478.058 177.442 477.673 177.154 477.673C176.577 477.577 176.385 477.769 176 478.154C173.692 480.654 171.288 483.154 168.981 485.654C168.212 486.423 167.346 486.423 166.769 485.654C166.385 485.077 166.481 484.308 167.154 483.635C169.558 481.135 171.962 478.538 174.365 476.038C174.75 475.654 175.038 475.173 174.558 474.692C174.077 474.212 173.692 474.596 173.308 474.981C171.481 476.904 169.654 478.923 167.731 480.846C167.442 481.135 167.25 481.327 166.962 481.519C166.288 481.904 165.423 481.519 165.135 480.75C164.846 479.981 165.231 479.5 165.712 479.019C168.788 475.75 171.865 472.577 174.846 469.308L176.096 470.654C176.481 471.135 177.058 471.327 177.635 471.327C178.212 471.327 178.788 471.135 179.173 470.654L179.462 470.365C179.846 469.885 180.135 469.308 180.135 468.731C180.135 468.154 179.942 467.577 179.558 467.192L176.769 464.212L176.192 463.635L176.962 462.865C178.115 461.904 179.173 461.615 179.942 461.615C181.481 461.423 182.827 462.288 182.827 462.288L183.692 461.423L186.288 458.635L194.462 467.288L190.712 471.135Z" fill="white"/>
</g>
<line x1="157.605" y1="500.668" x2="194.46" y2="500.668" stroke="white" stroke-width="2" stroke-linecap="round"/>
<defs>
<filter id="filter0_d_825_15" x="149" y="454" width="54" height="48.7885" filterUnits="userSpaceOnUse" color-interpolation-filters="sRGB">
<feFlood flood-opacity="0" result="BackgroundImageFix"/>
<feColorMatrix in="SourceAlpha" type="matrix" values="0 0 0 0 0 0 0 0 0 0 0 0 0 0 0 0 0 0 127 0" result="hardAlpha"/>
<feOffset dy="4"/>
<feGaussianBlur stdDeviation="3.5"/>
<feComposite in2="hardAlpha" operator="out"/>
<feColorMatrix type="matrix" values="0 0 0 0 0 0 0 0 0 0 0 0 0 0 0 0 0 0 0.25 0"/>
<feBlend mode="normal" in2="BackgroundImageFix" result="effect1_dropShadow_825_15"/>
<feBlend mode="normal" in="SourceGraphic" in2="effect1_dropShadow_825_15" result="shape"/>
</filter>
<linearGradient id="paint0_linear_825_15" x1="209.46" y1="575.176" x2="284.258" y2="466.37" gradientUnits="userSpaceOnUse">
<stop stop-color="#403464"/>
<stop offset="1" stop-color="#4B3E86"/>
</linearGradient>
</defs>
</svg>