<svg xmlns="http://www.w3.org/2000/svg" fill="none" viewBox="23.21 14.42 180.83 277.93">
<path d="M193.741 292.35C208.196 242.394 207.416 189.261 191.502 139.75C175.589 90.2395 145.264 46.603 104.409 14.4245L23.2128 117.514C43.5519 133.534 58.6485 155.258 66.571 179.906C74.4936 204.554 74.8816 231.006 67.6854 255.876L193.741 292.35Z" fill="#D9D9D9"/>
<path d="M193.741 292.35C208.196 242.394 207.416 189.261 191.502 139.75C175.589 90.2395 145.264 46.603 104.409 14.4245L23.2128 117.514C43.5519 133.534 58.6485 155.258 66.571 179.906C74.4936 204.554 74.8816 231.006 67.6854 255.876L193.741 292.35Z" fill="url(#paint0_linear_824_12)"/>
<path d="M101.292 166.095V156.295H106.304C107.592 156.295 108.553 156.533 109.188 157.009C109.823 157.475 110.14 158.091 110.14 158.857C110.14 159.361 110.005 159.804 109.734 160.187C109.473 160.56 109.099 160.859 108.614 161.083C108.138 161.297 107.569 161.405 106.906 161.405L107.186 160.733C107.877 160.733 108.479 160.84 108.992 161.055C109.505 161.26 109.902 161.563 110.182 161.965C110.471 162.357 110.616 162.837 110.616 163.407C110.616 164.256 110.271 164.919 109.58 165.395C108.899 165.861 107.9 166.095 106.584 166.095H101.292ZM104.036 164.093H106.36C106.836 164.093 107.195 164.013 107.438 163.855C107.69 163.687 107.816 163.435 107.816 163.099C107.816 162.763 107.69 162.515 107.438 162.357C107.195 162.189 106.836 162.105 106.36 162.105H103.84V160.187H105.94C106.407 160.187 106.757 160.107 106.99 159.949C107.223 159.79 107.34 159.552 107.34 159.235C107.34 158.917 107.223 158.684 106.99 158.535C106.757 158.376 106.407 158.297 105.94 158.297H104.036V164.093ZM116.574 166.291C115.127 166.291 113.998 165.894 113.186 165.101C112.374 164.307 111.968 163.183 111.968 161.727V156.295H114.74V161.643C114.74 162.483 114.903 163.085 115.23 163.449C115.566 163.813 116.023 163.995 116.602 163.995C117.18 163.995 117.633 163.813 117.96 163.449C118.286 163.085 118.45 162.483 118.45 161.643V156.295H121.18V161.727C121.18 163.183 120.774 164.307 119.962 165.101C119.15 165.894 118.02 166.291 116.574 166.291ZM125.399 166.095V161.951L126.043 163.617L121.661 156.295H124.587L127.751 161.601H126.057L129.235 156.295H131.923L127.555 163.617L128.171 161.951V166.095H125.399ZM135.135 160.089H139.685V162.161H135.135V160.089ZM135.331 163.953H140.455V166.095H132.587V156.295H140.273V158.437H135.331V163.953ZM141.993 166.095V156.295H146.473C147.369 156.295 148.139 156.439 148.783 156.729C149.437 157.018 149.941 157.438 150.295 157.989C150.65 158.53 150.827 159.174 150.827 159.921C150.827 160.658 150.65 161.297 150.295 161.839C149.941 162.371 149.437 162.781 148.783 163.071C148.139 163.351 147.369 163.491 146.473 163.491H143.533L144.765 162.329V166.095H141.993ZM148.055 166.095L145.619 162.525H148.573L151.023 166.095H148.055ZM144.765 162.623L143.533 161.349H146.305C146.884 161.349 147.313 161.223 147.593 160.971C147.883 160.719 148.027 160.369 148.027 159.921C148.027 159.463 147.883 159.109 147.593 158.857C147.313 158.605 146.884 158.479 146.305 158.479H143.533L144.765 157.205V162.623ZM155.8 166.291C154.998 166.291 154.223 166.193 153.476 165.997C152.739 165.791 152.137 165.53 151.67 165.213L152.58 163.169C153.019 163.449 153.523 163.682 154.092 163.869C154.671 164.046 155.245 164.135 155.814 164.135C156.197 164.135 156.505 164.102 156.738 164.037C156.972 163.962 157.14 163.869 157.242 163.757C157.354 163.635 157.41 163.495 157.41 163.337C157.41 163.113 157.308 162.935 157.102 162.805C156.897 162.674 156.631 162.567 156.304 162.483C155.978 162.399 155.614 162.315 155.212 162.231C154.82 162.147 154.424 162.039 154.022 161.909C153.63 161.778 153.271 161.61 152.944 161.405C152.618 161.19 152.352 160.915 152.146 160.579C151.941 160.233 151.838 159.799 151.838 159.277C151.838 158.689 151.997 158.157 152.314 157.681C152.641 157.205 153.126 156.822 153.77 156.533C154.414 156.243 155.217 156.099 156.178 156.099C156.822 156.099 157.452 156.173 158.068 156.323C158.694 156.463 159.249 156.673 159.734 156.953L158.88 159.011C158.414 158.759 157.952 158.572 157.494 158.451C157.037 158.32 156.594 158.255 156.164 158.255C155.782 158.255 155.474 158.297 155.24 158.381C155.007 158.455 154.839 158.558 154.736 158.689C154.634 158.819 154.582 158.969 154.582 159.137C154.582 159.351 154.68 159.524 154.876 159.655C155.082 159.776 155.348 159.879 155.674 159.963C156.01 160.037 156.374 160.117 156.766 160.201C157.168 160.285 157.564 160.392 157.956 160.523C158.358 160.644 158.722 160.812 159.048 161.027C159.375 161.232 159.636 161.507 159.832 161.853C160.038 162.189 160.14 162.613 160.14 163.127C160.14 163.696 159.977 164.223 159.65 164.709C159.333 165.185 158.852 165.567 158.208 165.857C157.574 166.146 156.771 166.291 155.8 166.291ZM101.876 173.295H104.648V183.095H101.876V173.295ZM98.0962 183.095H95.3242V173.295H98.0962V183.095ZM102.072 179.273H97.9002V176.977H102.072V179.273ZM111.546 183.291C110.762 183.291 110.038 183.165 109.376 182.913C108.713 182.661 108.134 182.306 107.64 181.849C107.154 181.382 106.776 180.841 106.506 180.225C106.235 179.609 106.1 178.932 106.1 178.195C106.1 177.457 106.235 176.781 106.506 176.165C106.776 175.549 107.154 175.012 107.64 174.555C108.134 174.088 108.713 173.729 109.376 173.477C110.038 173.225 110.762 173.099 111.546 173.099C112.339 173.099 113.062 173.225 113.716 173.477C114.378 173.729 114.952 174.088 115.438 174.555C115.923 175.012 116.301 175.549 116.572 176.165C116.852 176.781 116.992 177.457 116.992 178.195C116.992 178.932 116.852 179.613 116.572 180.239C116.301 180.855 115.923 181.391 115.438 181.849C114.952 182.306 114.378 182.661 113.716 182.913C113.062 183.165 112.339 183.291 111.546 183.291ZM111.546 180.995C111.919 180.995 112.264 180.929 112.582 180.799C112.908 180.668 113.188 180.481 113.422 180.239C113.664 179.987 113.851 179.688 113.982 179.343C114.122 178.997 114.192 178.615 114.192 178.195C114.192 177.765 114.122 177.383 113.982 177.047C113.851 176.701 113.664 176.407 113.422 176.165C113.188 175.913 112.908 175.721 112.582 175.591C112.264 175.46 111.919 175.395 111.546 175.395C111.172 175.395 110.822 175.46 110.496 175.591C110.178 175.721 109.898 175.913 109.656 176.165C109.422 176.407 109.236 176.701 109.096 177.047C108.965 177.383 108.9 177.765 108.9 178.195C108.9 178.615 108.965 178.997 109.096 179.343C109.236 179.688 109.422 179.987 109.656 180.239C109.898 180.481 110.178 180.668 110.496 180.799C110.822 180.929 111.172 180.995 111.546 180.995ZM118.443 183.095V173.295H121.215V180.897H125.891V183.095H118.443ZM126.988 183.095V173.295H131.622C132.705 173.295 133.657 173.495 134.478 173.897C135.3 174.298 135.939 174.863 136.396 175.591C136.863 176.319 137.096 177.187 137.096 178.195C137.096 179.193 136.863 180.061 136.396 180.799C135.939 181.527 135.3 182.091 134.478 182.493C133.657 182.894 132.705 183.095 131.622 183.095H126.988ZM129.76 180.883H131.51C132.07 180.883 132.556 180.78 132.966 180.575C133.386 180.36 133.713 180.052 133.946 179.651C134.18 179.24 134.296 178.755 134.296 178.195C134.296 177.625 134.18 177.14 133.946 176.739C133.713 176.337 133.386 176.034 132.966 175.829C132.556 175.614 132.07 175.507 131.51 175.507H129.76V180.883ZM141.103 177.089H145.653V179.161H141.103V177.089ZM141.299 180.953H146.423V183.095H138.555V173.295H146.241V175.437H141.299V180.953ZM147.961 183.095V173.295H152.441C153.337 173.295 154.107 173.439 154.751 173.729C155.404 174.018 155.908 174.438 156.263 174.989C156.618 175.53 156.795 176.174 156.795 176.921C156.795 177.658 156.618 178.297 156.263 178.839C155.908 179.371 155.404 179.781 154.751 180.071C154.107 180.351 153.337 180.491 152.441 180.491H149.501L150.733 179.329V183.095H147.961ZM154.023 183.095L151.587 179.525H154.541L156.991 183.095H154.023ZM150.733 179.623L149.501 178.349H152.273C152.852 178.349 153.281 178.223 153.561 177.971C153.85 177.719 153.995 177.369 153.995 176.921C153.995 176.463 153.85 176.109 153.561 175.857C153.281 175.605 152.852 175.479 152.273 175.479H149.501L150.733 174.205V179.623ZM161.768 183.291C160.966 183.291 160.191 183.193 159.444 182.997C158.707 182.791 158.105 182.53 157.638 182.213L158.548 180.169C158.987 180.449 159.491 180.682 160.06 180.869C160.639 181.046 161.213 181.135 161.782 181.135C162.165 181.135 162.473 181.102 162.706 181.037C162.94 180.962 163.108 180.869 163.21 180.757C163.322 180.635 163.378 180.495 163.378 180.337C163.378 180.113 163.276 179.935 163.07 179.805C162.865 179.674 162.599 179.567 162.272 179.483C161.946 179.399 161.582 179.315 161.18 179.231C160.788 179.147 160.392 179.039 159.99 178.909C159.598 178.778 159.239 178.61 158.912 178.405C158.586 178.19 158.32 177.915 158.114 177.579C157.909 177.233 157.806 176.799 157.806 176.277C157.806 175.689 157.965 175.157 158.282 174.681C158.609 174.205 159.094 173.822 159.738 173.533C160.382 173.243 161.185 173.099 162.146 173.099C162.79 173.099 163.42 173.173 164.036 173.323C164.662 173.463 165.217 173.673 165.702 173.953L164.848 176.011C164.382 175.759 163.92 175.572 163.462 175.451C163.005 175.32 162.562 175.255 162.132 175.255C161.75 175.255 161.442 175.297 161.208 175.381C160.975 175.455 160.807 175.558 160.704 175.689C160.602 175.819 160.55 175.969 160.55 176.137C160.55 176.351 160.648 176.524 160.844 176.655C161.05 176.776 161.316 176.879 161.642 176.963C161.978 177.037 162.342 177.117 162.734 177.201C163.136 177.285 163.532 177.392 163.924 177.523C164.326 177.644 164.69 177.812 165.016 178.027C165.343 178.232 165.604 178.507 165.8 178.853C166.006 179.189 166.108 179.613 166.108 180.127C166.108 180.696 165.945 181.223 165.618 181.709C165.301 182.185 164.82 182.567 164.176 182.857C163.542 183.146 162.739 183.291 161.768 183.291Z" fill="white"/>
<g clip-path="url(#clip0_824_12)">
<g filter="url(#filter0_d_824_12)">
<path d="M118.641 75.9811H126.974V72.6478C126.974 71.6087 126.65 70.5954 126.048 69.7488C125.445 68.9023 124.594 68.2644 123.612 67.924C122.63 67.5836 121.567 67.5576 120.569 67.8495C119.572 68.1414 118.691 68.7367 118.047 69.5528M118.641 75.9811H101.974M118.641 75.9811V72.6478C118.641 71.5545 118.431 70.5095 118.047 69.5528M118.047 69.5528C117.428 68.0061 116.36 66.6802 114.981 65.7463C113.601 64.8124 111.973 64.3133 110.307 64.3133C108.641 64.3133 107.014 64.8124 105.634 65.7463C104.254 66.6802 103.186 68.0061 102.567 69.5528M101.974 75.9811H93.6406V72.6478C93.6407 71.6087 93.9645 70.5954 94.5671 69.7488C95.1696 68.9023 96.0209 68.2644 97.0027 67.924C97.9845 67.5836 99.0479 67.5576 100.045 67.8495C101.042 68.1414 101.924 68.7367 102.567 69.5528M101.974 75.9811V72.6478C101.974 71.5545 102.184 70.5095 102.567 69.5528M115.307 54.3145C115.307 55.6405 114.781 56.9123 113.843 57.85C112.905 58.7877 111.633 59.3145 110.307 59.3145C108.981 59.3145 107.709 58.7877 106.772 57.85C105.834 56.9123 105.307 55.6405 105.307 54.3145C105.307 52.9884 105.834 51.7166 106.772 50.7789C107.709 49.8412 108.981 49.3145 110.307 49.3145C111.633 49.3145 112.905 49.8412 113.843 50.7789C114.781 51.7166 115.307 52.9884 115.307 54.3145ZM125.307 59.3145C125.307 60.1985 124.956 61.0464 124.331 61.6715C123.706 62.2966 122.858 62.6478 121.974 62.6478C121.09 62.6478 120.242 62.2966 119.617 61.6715C118.992 61.0464 118.641 60.1985 118.641 59.3145C118.641 58.4304 118.992 57.5826 119.617 56.9574C120.242 56.3323 121.09 55.9811 121.974 55.9811C122.858 55.9811 123.706 56.3323 124.331 56.9574C124.956 57.5826 125.307 58.4304 125.307 59.3145ZM101.974 59.3145C101.974 60.1985 101.623 61.0464 100.998 61.6715C100.373 62.2966 99.5247 62.6478 98.6406 62.6478C97.7566 62.6478 96.9087 62.2966 96.2836 61.6715C95.6585 61.0464 95.3073 60.1985 95.3073 59.3145C95.3073 58.4304 95.6585 57.5826 96.2836 56.9574C96.9087 56.3323 97.7566 55.9811 98.6406 55.9811C99.5247 55.9811 100.373 56.3323 100.998 56.9574C101.623 57.5826 101.974 58.4304 101.974 59.3145Z" stroke="white" stroke-width="2" stroke-linecap="round" stroke-linejoin="round" shape-rendering="crispEdges"/>
</g>
</g>
<line x1="92.5234" y1="88.6475" x2="129.378" y2="88.6475" stroke="white" stroke-width="2" stroke-linecap="round"/>
<defs>
<filter id="filter0_d_824_12" x="85.6406" y="45.3145" width="49.3333" height="42.6667" filterUnits="userSpaceOnUse" color-interpolation-filters="sRGB">
<feFlood flood-opacity="0" result="BackgroundImageFix"/>
<feColorMatrix in="SourceAlpha" type="matrix" values="0 0 0 0 0 0 0 0 0 0 0 0 0 0 0 0 0 0 127 0" result="hardAlpha"/>
<feOffset dy="4"/>
<feGaussianBlur stdDeviation="3.5"/>
<feComposite in2="hardAlpha" operator="out"/>
<feColorMatrix type="matrix" values="0 0 0 0 0 0 0 0 0 0 0 0 0 0 0 0 0 0 0.25 0"/>
<feBlend mode="normal" in2="BackgroundImageFix" result="effect1_dropShadow_824_12"/>
<feBlend mode="normal" in="SourceGraphic" in2="effect1_dropShadow_824_12" result="shape"/>
</filter>
<linearGradient id="paint0_linear_824_12" x1="72.4656" y1="190.804" x2="193.59" y2="142.354" gradientUnits="userSpaceOnUse">
<stop stop-color="#E26714"/>
<stop offset="1" stop-color="#E0480A"/>
</linearGradient>
<clipPath id="clip0_824_12">
<rect width="40" height="40" fill="white" transform="translate(90.3066 42.6475)"/>
</clipPath>
</defs>
</svg>