<svg width="594" height="270" viewBox="0 0 594 270" fill="none" xmlns="http://www.w3.org/2000/svg">
<path d="M585.228 134.389C585.228 133.884 585.228 133.38 585.228 132.875C585.228 132.496 585.228 132.117 585.228 131.865C585.228 130.855 585.228 129.971 585.101 128.961C585.101 128.709 585.101 128.33 585.101 128.078C585.101 127.573 585.101 127.194 584.975 126.689C584.975 125.932 584.849 125.174 584.849 124.291C584.849 123.66 584.723 123.029 584.723 122.397C584.723 121.766 584.596 121.009 584.47 120.378C584.344 119.368 584.218 118.358 584.092 117.222C583.965 116.591 583.965 115.96 583.839 115.328C583.713 114.571 583.587 113.94 583.46 113.182C583.334 112.677 583.334 112.046 583.208 111.541C583.082 110.532 582.829 109.522 582.577 108.386C582.451 107.754 582.324 106.997 582.198 106.366C582.198 106.24 582.198 106.24 582.198 106.113C582.072 105.482 581.946 104.977 581.819 104.346C581.693 103.715 581.567 103.084 581.441 102.453C581.188 101.569 580.936 100.686 580.81 99.8019L530.317 113.94L530.064 114.066C530.064 114.066 531.832 123.281 532.463 130.476C532.589 132.117 532.715 133.632 532.715 135.021L532.589 135.147H532.715C532.715 135.273 532.715 135.399 532.715 135.525C532.715 136.157 532.715 136.788 532.715 137.419C532.715 138.176 532.589 138.934 532.589 139.691C532.589 140.07 532.589 140.449 532.463 140.827C532.336 141.837 532.337 142.847 532.21 143.983C532.21 144.109 532.21 144.109 532.21 144.235C531.074 154.082 528.045 163.801 523.248 172.764C513.78 190.563 498.254 204.196 479.445 211.265L470.357 214.042C451.169 218.712 431.856 216.945 414.31 207.983L413.426 207.604C410.775 206.215 408.251 204.827 405.852 203.186L407.115 204.069L370.886 242.696L370.76 242.823C393.86 259.864 421.757 269.205 450.791 269.205C484.242 269.205 516.305 256.834 541.047 234.491C542.688 232.976 544.328 231.462 545.97 229.821C547.484 228.306 549.125 226.665 550.64 224.898C570.837 202.555 582.955 174.279 585.101 144.235C585.101 143.731 585.228 143.226 585.228 142.594C585.228 141.963 585.354 141.458 585.354 140.827V140.701C585.354 139.312 585.48 138.05 585.48 136.662V136.409C585.354 135.778 585.228 135.021 585.228 134.389Z" fill="#4D86DC"/>
<path d="M550.514 44.5124L541.931 35.8024L541.047 34.9188C536.503 30.7532 531.706 26.9662 526.657 23.558C518.073 17.6251 508.858 12.8282 499.138 9.16753C497.245 8.41013 495.351 7.77899 493.331 7.14783C490.428 6.13797 487.525 5.25434 484.495 4.49695C482.475 3.99202 480.456 3.48711 478.436 3.10841C476.416 2.72972 474.397 2.35101 472.377 1.97232C470.357 1.59362 468.337 1.34116 466.191 1.0887C461.016 0.457538 455.84 0.205078 450.665 0.205078C449.15 0.205078 447.762 0.205067 446.247 0.331298C445.868 0.331298 445.489 0.331298 445.111 0.331298C443.722 0.331298 442.207 0.457546 440.819 0.583777H440.693C439.304 0.710009 437.789 0.836226 436.401 0.962457C436.022 0.962457 435.643 1.0887 435.265 1.0887C433.876 1.21493 432.488 1.46738 431.099 1.59362C430.973 1.59362 430.973 1.59362 430.847 1.59362C429.458 1.84608 427.943 2.09855 426.555 2.35102C426.176 2.47725 425.797 2.47724 425.545 2.60347C424.156 2.85594 422.894 3.10841 421.505 3.36087C421.379 3.36087 421.379 3.36087 421.253 3.36087C419.864 3.61334 418.476 3.99204 417.087 4.37073C416.709 4.49696 416.456 4.49696 416.077 4.62319C414.815 5.00189 413.427 5.38057 412.164 5.75927C412.038 5.75927 412.038 5.75928 411.912 5.88551C410.523 6.2642 409.135 6.76913 407.746 7.14783C407.494 7.27406 407.115 7.40029 406.863 7.40029C405.6 7.90521 404.212 8.28392 402.949 8.78885C402.949 8.78885 402.823 8.78883 402.823 8.91507C401.813 9.29376 400.677 9.79869 399.667 10.1774V10.3036C393.861 12.702 388.306 15.3529 382.879 18.5087C382.626 18.6349 382.374 18.7612 382.121 18.8874C381.49 19.2661 380.859 19.6448 380.354 20.0235C379.218 20.7809 378.082 21.412 376.946 22.1694C375.936 22.8006 374.926 23.558 373.916 24.1891C369.75 27.0925 365.585 30.2482 361.798 33.7827C361.167 34.4139 360.031 35.55 359.904 35.6762L397.143 74.5556L397.269 74.6818L397.395 74.5556L397.521 74.4294C397.9 73.9245 398.657 73.1671 399.92 72.031C401.435 70.5162 402.697 69.3801 404.212 68.244C405.853 66.9817 407.494 65.8456 409.008 64.4571C412.669 62.3111 416.456 60.4177 420.369 58.9029C420.622 58.7766 420.748 58.7766 421 58.6504C427.943 55.8733 436.401 53.6011 446.373 53.2224H446.499C446.878 53.2224 447.257 53.2224 447.509 53.2224C448.519 53.2224 449.403 53.2224 450.412 53.2224C452.937 53.2224 455.462 53.3487 457.986 53.6011C461.268 53.8536 464.424 54.3585 467.58 55.1159C467.706 55.1159 467.833 55.1159 467.959 55.2421C468.337 55.3684 468.59 55.3684 468.969 55.4946C469.474 55.6208 469.978 55.7471 470.483 55.8733C470.988 55.9995 471.619 56.1258 472.124 56.252C472.251 56.252 472.377 56.3782 472.629 56.3782C472.882 56.5045 473.134 56.5045 473.387 56.6307C488.408 60.9226 502.041 69.5063 512.519 81.3721C520.976 91.092 527.035 102.453 530.191 114.697L580.684 100.559C575.256 79.4786 565.031 60.4176 550.514 44.5124Z" fill="#364EC6"/>
<path d="M308.023 181.853L259.929 134.768L198.832 195.864C183.811 209.245 164.497 216.566 144.426 216.566C124.103 216.566 104.537 209.119 89.5155 195.486C88.5057 194.602 87.4958 193.592 86.486 192.582C85.4761 191.572 84.5925 190.562 83.5827 189.553C71.8431 176.551 64.6479 160.141 62.8806 142.847C62.6282 140.196 62.5019 137.419 62.5019 134.768C62.5019 134.642 62.5019 134.011 62.5019 133.758H62.6282L62.5019 133.632C62.6282 128.709 63.1331 123.912 64.0167 119.115L10.9994 116.843C10.242 122.65 9.86328 128.456 9.86328 134.389C9.86328 134.389 9.98951 140.196 10.1157 142.847C12.0092 173.269 24.0012 202.176 44.577 224.898C46.0918 226.539 47.6066 228.18 49.2476 229.821C50.7624 231.335 52.5296 232.976 54.1706 234.491C78.9121 256.96 110.975 269.205 144.426 269.205C177.878 269.205 209.941 256.834 234.682 234.491L297.546 171.628L310.926 185.008L308.023 181.853Z" fill="#ED5C83"/>
<path d="M434.761 54.3584C434.508 54.3584 434.129 54.4846 433.877 54.4846C434.129 54.4846 434.382 54.4846 434.761 54.3584Z" fill="#737373"/>
<path d="M440.566 53.4751C440.061 53.4751 439.683 53.6013 439.178 53.6013C439.683 53.6013 440.188 53.4751 440.566 53.4751Z" fill="#737373"/>
<path d="M431.857 54.9897C431.731 54.9897 431.605 55.116 431.479 55.116C431.605 55.116 431.731 54.9897 431.857 54.9897Z" fill="#737373"/>
<path d="M446.625 52.9697C445.993 52.9697 445.489 52.9697 444.857 53.0959C445.489 52.9697 446.12 52.9697 446.625 52.9697Z" fill="#737373"/>
<path d="M443.595 53.0962C443.09 53.0962 442.585 53.2224 442.08 53.2224C442.585 53.2224 443.09 53.2224 443.595 53.0962Z" fill="#737373"/>
<path d="M437.663 53.8536C437.285 53.8536 436.906 53.9799 436.527 54.1061C436.906 53.9799 437.285 53.9799 437.663 53.8536Z" fill="#737373"/>
<path d="M439.178 53.6006C438.673 53.7268 438.168 53.7268 437.537 53.853C438.168 53.7268 438.673 53.7268 439.178 53.6006Z" fill="#6B36B1"/>
<path d="M442.081 53.2227C441.576 53.2227 441.071 53.3489 440.566 53.3489C441.071 53.3489 441.576 53.3489 442.081 53.2227Z" fill="#6B36B1"/>
<path d="M444.858 52.9697C444.479 52.9697 443.974 53.0959 443.596 53.0959C444.101 53.0959 444.479 53.096 444.858 52.9697Z" fill="#6B36B1"/>
<path d="M433.877 54.6113C433.246 54.7376 432.615 54.8638 431.857 54.99C432.489 54.8638 433.12 54.7376 433.877 54.6113Z" fill="#6B36B1"/>
<path d="M436.527 54.1063C435.896 54.2326 435.391 54.3588 434.76 54.485C435.265 54.2326 435.896 54.2326 436.527 54.1063Z" fill="#6B36B1"/>
<path d="M479.95 58.1459C477.931 57.3885 475.785 56.6312 473.639 56C475.658 56.6312 477.804 57.3885 479.95 58.1459Z" fill="#6B36B1"/>
<path d="M499.39 68.7487C497.371 67.2339 495.351 65.8453 493.205 64.583C495.351 65.9716 497.371 67.3601 499.39 68.7487Z" fill="#6B36B1"/>
<path d="M518.705 89.0726C517.317 87.0529 515.802 85.0331 514.287 83.1396C515.928 85.0331 517.443 87.0529 518.705 89.0726Z" fill="#6B36B1"/>
<path d="M468.338 54.7376C468.211 54.7376 468.085 54.7376 467.959 54.6113C467.959 54.6113 468.211 54.7376 468.338 54.7376Z" fill="#6B36B1"/>
<path d="M528.424 108.891C529.055 110.658 529.56 112.425 529.939 114.193C529.56 112.425 529.055 110.658 528.424 108.891Z" fill="#6B36B1"/>
<path d="M397.269 74.4292L360.031 35.5498C360.031 35.5498 361.167 34.4137 361.924 33.6563C361.419 34.035 361.04 34.4137 360.536 34.9186C358.895 36.4334 357.253 37.9482 355.612 39.5892C354.224 40.9777 352.835 42.4925 351.447 44.0073L298.051 97.4033L336.425 135.02C359.904 111.668 394.492 77.2062 395.123 76.5751C395.88 75.6915 396.512 75.3128 397.269 74.4292Z" fill="#6A3DAD"/>
<path d="M196.812 197.758L233.546 235.375L298.303 172.385L259.928 134.768L196.812 197.758Z" fill="#6A3DAD"/>
<path d="M400.045 71.6523C398.909 72.7884 398.025 73.5458 397.646 74.0507C398.53 73.1671 399.414 72.4097 400.045 71.6523Z" fill="#6B36B1"/>
<path d="M467.832 54.6113C467.958 54.6113 468.084 54.6113 468.211 54.7376C468.211 54.7376 467.958 54.6113 467.832 54.6113Z" fill="#6B36B1"/>
<path d="M470.736 55.3687C471.241 55.4949 471.872 55.6211 472.377 55.7474C471.872 55.6211 471.367 55.4949 470.736 55.3687Z" fill="#6B36B1"/>
<path d="M218.271 176.551L218.398 176.298L218.271 176.425V176.551Z" fill="url(#paint0_linear_0_2036)"/>
<path d="M218.398 176.298L218.271 176.424L218.398 176.298L218.524 176.172L218.398 176.298Z" fill="url(#paint1_linear_0_2036)"/>
<path d="M218.778 175.92L218.525 176.172L218.778 175.92Z" fill="url(#paint2_linear_0_2036)"/>
<path d="M472.882 55.8733C472.756 55.8733 472.629 55.7471 472.377 55.7471C472.756 55.8733 473.134 55.9995 473.513 56.1258C473.387 55.9995 473.134 55.8733 472.882 55.8733Z" fill="#3145AF"/>
<path d="M470.736 55.3686C470.231 55.2424 469.726 55.1161 469.221 54.9899C468.842 54.8637 468.59 54.8637 468.211 54.7374C469.095 54.8637 469.978 55.1161 470.736 55.3686Z" fill="#3145AF"/>
<path d="M397.649 74.0508L397.523 74.177C397.523 74.3033 397.396 74.3033 397.396 74.3033C397.396 74.4295 397.523 74.3032 397.649 74.0508Z" fill="#3145AF"/>
<path d="M452.305 52.8438C453.694 52.8438 455.083 52.97 456.471 52.97C457.86 53.0962 459.248 53.2225 460.637 53.3487C463.035 53.6012 465.434 53.9799 467.832 54.4848C464.676 53.8536 461.52 53.3487 458.238 52.97C455.714 52.7175 453.189 52.5913 450.664 52.5913C449.655 52.5913 448.645 52.5913 447.761 52.5913C447.382 52.5913 447.004 52.5913 446.751 52.5913H446.625C448.518 52.8438 450.412 52.8438 452.305 52.8438Z" fill="#3145AF"/>
<path d="M467.832 54.6108C464.676 53.9797 461.52 53.4748 458.238 53.0961C461.52 53.4748 464.676 53.9797 467.832 54.6108Z" fill="#3145AF"/>
<path d="M469.348 54.8638C468.969 54.7376 468.717 54.7376 468.338 54.6113C468.59 54.7376 468.969 54.8638 469.348 54.8638Z" fill="#3145AF"/>
<path d="M473.638 55.9995C473.386 55.8733 473.133 55.8733 472.881 55.7471C473.133 55.8733 473.386 55.9995 473.638 55.9995Z" fill="#3145AF"/>
<path d="M450.791 52.8438C453.316 52.8438 455.84 52.97 458.365 53.2224C455.714 52.97 453.316 52.8438 450.791 52.8438Z" fill="#3145AF"/>
<path d="M446.752 52.9702C447.131 52.9702 447.509 52.9702 447.762 52.9702C447.509 52.8439 447.131 52.8439 446.752 52.9702Z" fill="#3145AF"/>
<path d="M259.675 134.389H259.549L259.928 134.768L260.054 134.642L259.675 134.389Z" fill="#86C2EA"/>
<path d="M405.222 202.681L336.3 135.021L297.925 97.4037L231.78 32.5205L229.508 35.1714L222.06 50.3192L199.717 74.0508L258.92 133.632L259.551 134.263H259.677L260.056 134.642L260.561 135.147L298.43 172.259L308.15 181.727L311.053 184.756L359.653 233.355L360.662 234.239C363.944 237.142 367.226 239.919 370.761 242.444L370.887 242.57L371.013 242.444L392.599 217.324L405.222 202.681C405.475 202.807 405.601 202.933 405.853 203.186L405.222 202.681Z" fill="#86C2EA"/>
<path d="M405.222 202.681L336.3 135.021L297.925 97.4037L231.78 32.5205L229.508 35.1714L222.06 50.3192L199.717 74.0508L258.92 133.632L259.551 134.263H259.677L260.056 134.642L260.561 135.147L298.43 172.259L308.15 181.727L311.053 184.756L359.653 233.355L360.662 234.239C363.944 237.142 367.226 239.919 370.761 242.444L370.887 242.57L371.013 242.444L392.599 217.324L405.222 202.681C405.475 202.807 405.601 202.933 405.853 203.186L405.222 202.681Z" fill="#E0480A"/>
<path d="M83.2026 80.2363L89.8929 73.546C104.915 60.1654 124.228 52.844 144.299 52.844C164.622 52.844 184.188 60.2917 199.21 73.9247C199.336 74.0509 199.336 74.0509 199.462 74.1772C199.588 74.1772 199.588 74.3034 199.588 74.3034L199.715 74.1772L197.569 72.0312L229.505 35.2978L231.146 32.0157C206.91 11.5662 176.236 0.331543 144.425 0.331543C110.974 0.331543 78.9108 12.7023 54.1693 35.0453L45.4593 43.6291L44.5757 44.5127C26.2721 64.836 14.6588 89.9562 10.998 116.844L64.0154 119.116C66.7925 104.725 73.3566 91.3447 83.2026 80.2363Z" fill="#B687F6"/>
<path d="M83.2026 80.2363L89.8929 73.546C104.915 60.1654 124.228 52.844 144.299 52.844C164.622 52.844 184.188 60.2917 199.21 73.9247C199.336 74.0509 199.336 74.0509 199.462 74.1772C199.588 74.1772 199.588 74.3034 199.588 74.3034L199.715 74.1772L197.569 72.0312L229.505 35.2978L231.146 32.0157C206.91 11.5662 176.236 0.331543 144.425 0.331543C110.974 0.331543 78.9108 12.7023 54.1693 35.0453L45.4593 43.6291L44.5757 44.5127C26.2721 64.836 14.6588 89.9562 10.998 116.844L64.0154 119.116C66.7925 104.725 73.3566 91.3447 83.2026 80.2363Z" fill="#EFB93B"/>
<path d="M199.716 74.0509L222.059 50.1931L229.507 35.1715L197.57 71.905L199.716 74.0509Z" fill="#B687F6"/>
<path d="M530.064 114.192C530.191 114.824 530.317 115.328 530.569 115.96C530.317 115.328 530.191 114.824 530.064 114.192Z" fill="#5480C4"/>
<path d="M59.4155 135.071C68.1178 123.125 65.4879 106.386 53.5415 97.6833C41.595 88.981 24.8558 91.6109 16.1534 103.557C7.45111 115.504 10.081 132.243 22.0275 140.945C33.974 149.648 50.7132 147.018 59.4155 135.071Z" fill="#7939D0"/>
<path d="M37.7845 146.314C52.6962 146.314 64.7845 134.226 64.7845 119.314C64.7845 104.402 52.6962 92.3141 37.7845 92.3141C22.8728 92.3141 10.7845 104.402 10.7845 119.314C10.7845 134.226 22.8728 146.314 37.7845 146.314Z" fill="url(#paint3_linear_0_2036)"/>
<path d="M237.081 229.081C243.213 215.634 237.284 199.763 223.837 193.631C210.39 187.498 194.519 193.428 188.386 206.875C182.254 220.321 188.184 236.193 201.63 242.325C215.077 248.457 230.949 242.528 237.081 229.081Z" fill="#502696"/>
<g opacity="0.5">
<path d="M237.081 229.081C243.213 215.634 237.284 199.763 223.837 193.631C210.39 187.498 194.519 193.428 188.386 206.875C182.254 220.321 188.184 236.193 201.63 242.325C215.077 248.457 230.949 242.528 237.081 229.081Z" fill="#502696"/>
</g>
<path d="M392.472 217.576L370.887 242.696L407.115 204.069L405.853 203.186C405.6 203.06 405.474 202.933 405.222 202.807L392.472 217.576Z" fill="#5480C4"/>
<path d="M407.498 227.43C412.691 213.594 405.685 198.166 391.848 192.973C378.011 187.779 362.584 194.786 357.39 208.623C352.197 222.459 359.203 237.887 373.04 243.08C386.877 248.274 402.304 241.267 407.498 227.43Z" fill="#70AEE3"/>
<path d="M382.372 244.716C397.152 244.716 409.134 232.734 409.134 217.954C409.134 203.175 397.152 191.193 382.372 191.193C367.593 191.193 355.611 203.175 355.611 217.954C355.611 232.734 367.593 244.716 382.372 244.716Z" fill="url(#paint4_linear_0_2036)"/>
<path d="M578.198 124.821C586.443 112.556 583.185 95.928 570.919 87.6824C558.653 79.4367 542.025 82.6957 533.78 94.9614C525.534 107.227 528.793 123.855 541.059 132.101C553.324 140.346 569.952 137.087 578.198 124.821Z" fill="#4273B7"/>
<path d="M581.441 102.706C581.568 103.337 581.694 103.968 581.82 104.599C581.694 103.968 581.568 103.337 581.441 102.706Z" fill="#3145AF"/>
<path d="M581.189 101.443C581.063 100.938 580.937 100.56 580.811 100.055C581.063 100.938 581.315 101.822 581.442 102.706C581.315 102.201 581.189 101.822 581.189 101.443Z" fill="#5480C4"/>
<path d="M403.986 66.6462C412.688 54.6997 410.058 37.9606 398.112 29.2582C386.165 20.5559 369.426 23.1858 360.724 35.1323C352.021 47.0788 354.651 63.818 366.598 72.5203C378.544 81.2226 395.284 78.5927 403.986 66.6462Z" fill="#2A3F96"/>
<g opacity="0.5">
<path d="M403.986 66.6462C412.688 54.6997 410.058 37.9606 398.112 29.2582C386.165 20.5559 369.426 23.1858 360.724 35.1323C352.021 47.0788 354.651 63.818 366.598 72.5203C378.544 81.2226 395.284 78.5927 403.986 66.6462Z" fill="#2A3F96"/>
</g>
<path d="M399.795 10.1772C393.988 12.5757 388.434 15.3528 383.006 18.5086C388.434 15.3528 394.114 12.5757 399.795 10.1772Z" fill="#6B36B1"/>
<path d="M380.48 19.8974C381.112 19.5187 381.617 19.14 382.248 18.7614C381.743 19.2663 381.112 19.5187 380.48 19.8974Z" fill="#6B36B1"/>
<path d="M374.925 23.3053L374.168 24.0627C375.178 23.4315 376.188 22.6741 377.198 22.043C376.314 22.5479 375.556 22.9266 374.925 23.3053Z" fill="#6B36B1"/>
<path d="M374.043 24.0625C370.004 26.8396 366.091 29.8692 362.304 33.1512C362.304 33.1512 362.051 33.4037 361.799 33.6561C365.838 30.2479 369.878 27.0921 374.043 24.0625Z" fill="#3145AF"/>
<path d="M382.248 18.8875C382.501 18.7613 382.753 18.635 383.005 18.5088C382.753 18.635 382.501 18.7613 382.248 18.8875Z" fill="#3145AF"/>
<path d="M380.481 19.8975C379.344 20.6549 378.208 21.286 377.072 22.0434C378.208 21.286 379.344 20.6549 380.481 19.8975Z" fill="#3145AF"/>
<path d="M237.75 60.2461C242.913 46.3975 235.871 30.9858 222.022 25.8232C208.174 20.6607 192.762 27.7021 187.6 41.5508C182.437 55.3994 189.478 70.8111 203.327 75.9736C217.176 81.1362 232.587 74.0948 237.75 60.2461Z" fill="#9668E1"/>
<path d="M212.718 77.5851C227.498 77.5851 239.479 65.6037 239.479 50.8239C239.479 36.0441 227.498 24.0628 212.718 24.0628C197.938 24.0628 185.957 36.0441 185.957 50.8239C185.957 65.6037 197.938 77.5851 212.718 77.5851Z" fill="url(#paint5_linear_0_2036)"/>
<path d="M156.335 39.8945C154.832 39.8945 153.552 39.4856 152.494 38.6676C151.437 37.843 150.629 36.6493 150.07 35.0866C149.512 33.5172 149.232 31.622 149.232 29.4009C149.232 27.1931 149.512 25.3078 150.07 23.7451C150.636 22.1757 151.447 20.9787 152.504 20.1541C153.568 19.3228 154.845 18.9072 156.335 18.9072C157.824 18.9072 159.098 19.3228 160.155 20.1541C161.219 20.9787 162.03 22.1757 162.589 23.7451C163.154 25.3078 163.437 27.1931 163.437 29.4009C163.437 31.622 163.157 33.5172 162.599 35.0866C162.04 36.6493 161.232 37.843 160.175 38.6676C159.118 39.4856 157.837 39.8945 156.335 39.8945ZM156.335 37.7C157.824 37.7 158.981 36.9818 159.806 35.5455C160.63 34.1091 161.043 32.0609 161.043 29.4009C161.043 27.632 160.853 26.1258 160.474 24.8822C160.102 23.6387 159.563 22.6911 158.858 22.0394C158.16 21.3877 157.319 21.0618 156.335 21.0618C154.858 21.0618 153.705 21.79 152.873 23.2463C152.042 24.696 151.626 26.7475 151.626 29.4009C151.626 31.1698 151.813 32.6727 152.185 33.9096C152.557 35.1465 153.093 36.0874 153.791 36.7325C154.496 37.3775 155.344 37.7 156.335 37.7ZM174.409 19.1865V39.6152H171.935V21.78H171.816L166.828 25.0917V22.578L171.935 19.1865H174.409Z" fill="#F2EFF4"/>
<path d="M336.428 190.395C334.925 190.395 333.645 189.986 332.588 189.168C331.531 188.344 330.723 187.15 330.164 185.587C329.605 184.018 329.326 182.122 329.326 179.901C329.326 177.694 329.605 175.808 330.164 174.246C330.729 172.676 331.541 171.479 332.598 170.655C333.662 169.823 334.939 169.408 336.428 169.408C337.918 169.408 339.191 169.823 340.249 170.655C341.313 171.479 342.124 172.676 342.683 174.246C343.248 175.808 343.531 177.694 343.531 179.901C343.531 182.122 343.251 184.018 342.693 185.587C342.134 187.15 341.326 188.344 340.269 189.168C339.211 189.986 337.931 190.395 336.428 190.395ZM336.428 188.201C337.918 188.201 339.075 187.482 339.9 186.046C340.724 184.61 341.137 182.561 341.137 179.901C341.137 178.132 340.947 176.626 340.568 175.383C340.196 174.139 339.657 173.192 338.952 172.54C338.254 171.888 337.413 171.562 336.428 171.562C334.952 171.562 333.798 172.29 332.967 173.747C332.136 175.197 331.72 177.248 331.72 179.901C331.72 181.67 331.906 183.173 332.279 184.41C332.651 185.647 333.186 186.588 333.885 187.233C334.59 187.878 335.438 188.201 336.428 188.201ZM347.321 190.116V188.32L354.064 180.939C354.855 180.074 355.507 179.323 356.019 178.684C356.531 178.039 356.91 177.434 357.156 176.869C357.409 176.297 357.535 175.699 357.535 175.073C357.535 174.355 357.362 173.734 357.017 173.208C356.678 172.683 356.212 172.277 355.62 171.991C355.028 171.705 354.363 171.562 353.625 171.562C352.84 171.562 352.156 171.725 351.57 172.051C350.992 172.37 350.543 172.819 350.224 173.398C349.911 173.976 349.755 174.655 349.755 175.433H347.401C347.401 174.236 347.677 173.185 348.229 172.28C348.781 171.376 349.532 170.671 350.483 170.166C351.441 169.66 352.515 169.408 353.705 169.408C354.902 169.408 355.963 169.66 356.887 170.166C357.811 170.671 358.536 171.353 359.062 172.211C359.587 173.069 359.85 174.023 359.85 175.073C359.85 175.825 359.713 176.56 359.441 177.278C359.175 177.989 358.709 178.784 358.044 179.662C357.386 180.533 356.471 181.597 355.301 182.854L350.712 187.762V187.921H360.209V190.116H347.321Z" fill="#F2EFF4"/>
<path d="M32.5182 175.696C31.0153 175.696 29.7352 175.287 28.6778 174.469C27.6205 173.644 26.8125 172.451 26.2539 170.888C25.6953 169.318 25.416 167.423 25.416 165.202C25.416 162.994 25.6953 161.109 26.2539 159.546C26.8192 157.977 27.6305 156.78 28.6878 155.955C29.7518 155.124 31.0286 154.708 32.5182 154.708C34.0078 154.708 35.2813 155.124 36.3386 155.955C37.4026 156.78 38.2139 157.977 38.7725 159.546C39.3377 161.109 39.6204 162.994 39.6204 165.202C39.6204 167.423 39.3411 169.318 38.7825 170.888C38.2239 172.451 37.4159 173.644 36.3586 174.469C35.3012 175.287 34.0211 175.696 32.5182 175.696ZM32.5182 173.501C34.0078 173.501 35.1649 172.783 35.9895 171.347C36.8141 169.91 37.2264 167.862 37.2264 165.202C37.2264 163.433 37.0369 161.927 36.6578 160.683C36.2854 159.44 35.7468 158.492 35.0419 157.841C34.3436 157.189 33.5024 156.863 32.5182 156.863C31.0419 156.863 29.8881 157.591 29.0569 159.048C28.2256 160.497 27.81 162.549 27.81 165.202C27.81 166.971 27.9962 168.474 28.3686 169.711C28.741 170.948 29.2763 171.889 29.9746 172.534C30.6795 173.179 31.5274 173.501 32.5182 173.501ZM50.1938 175.696C49.3559 175.683 48.518 175.523 47.6801 175.217C46.8422 174.911 46.0775 174.396 45.3859 173.671C44.6943 172.939 44.139 171.952 43.7201 170.708C43.3011 169.458 43.0917 167.889 43.0917 166C43.0917 164.191 43.2612 162.589 43.6004 161.192C43.9395 159.789 44.4316 158.609 45.0767 157.651C45.7217 156.687 46.4998 155.955 47.4108 155.457C48.3285 154.958 49.3626 154.708 50.513 154.708C51.6568 154.708 52.6743 154.938 53.5654 155.397C54.4631 155.849 55.1946 156.481 55.7599 157.292C56.3251 158.103 56.6908 159.038 56.8571 160.095H54.4232C54.1971 159.177 53.7582 158.416 53.1065 157.811C52.4548 157.206 51.5903 156.903 50.513 156.903C48.9303 156.903 47.6835 157.591 46.7724 158.968C45.868 160.344 45.4125 162.276 45.4058 164.763H45.5654C45.9378 164.198 46.3801 163.716 46.8921 163.317C47.4108 162.911 47.9827 162.599 48.6078 162.379C49.2329 162.16 49.8946 162.05 50.5928 162.05C51.7632 162.05 52.8339 162.343 53.8048 162.928C54.7757 163.506 55.5537 164.308 56.1389 165.332C56.7241 166.349 57.0167 167.516 57.0167 168.833C57.0167 170.097 56.7341 171.254 56.1688 172.304C55.6036 173.348 54.8089 174.18 53.7848 174.798C52.7674 175.41 51.5704 175.709 50.1938 175.696ZM50.1938 173.501C51.0317 173.501 51.7832 173.292 52.4482 172.873C53.1198 172.454 53.6485 171.892 54.0342 171.187C54.4265 170.482 54.6227 169.698 54.6227 168.833C54.6227 167.988 54.4332 167.22 54.0541 166.529C53.6817 165.831 53.1664 165.275 52.508 164.863C51.8563 164.451 51.1115 164.245 50.2736 164.245C49.6419 164.245 49.0534 164.371 48.5081 164.624C47.9628 164.87 47.484 165.209 47.0717 165.641C46.666 166.073 46.3468 166.569 46.1141 167.127C45.8813 167.679 45.7649 168.261 45.7649 168.873C45.7649 169.684 45.9545 170.442 46.3335 171.147C46.7192 171.852 47.2446 172.421 47.9096 172.853C48.5812 173.285 49.3426 173.501 50.1938 173.501Z" fill="#F2EFF4"/>
<path d="M423.881 39.8945C422.379 39.8945 421.098 39.4856 420.041 38.6676C418.984 37.843 418.176 36.6493 417.617 35.0866C417.059 33.5172 416.779 31.622 416.779 29.4009C416.779 27.1931 417.059 25.3078 417.617 23.7451C418.182 22.1757 418.994 20.9787 420.051 20.1541C421.115 19.3228 422.392 18.9072 423.881 18.9072C425.371 18.9072 426.645 19.3228 427.702 20.1541C428.766 20.9787 429.577 22.1757 430.136 23.7451C430.701 25.3078 430.984 27.1931 430.984 29.4009C430.984 31.622 430.704 33.5172 430.146 35.0866C429.587 36.6493 428.779 37.843 427.722 38.6676C426.664 39.4856 425.384 39.8945 423.881 39.8945ZM423.881 37.7C425.371 37.7 426.528 36.9818 427.353 35.5455C428.177 34.1091 428.59 32.0609 428.59 29.4009C428.59 27.632 428.4 26.1258 428.021 24.8822C427.649 23.6387 427.11 22.6911 426.405 22.0394C425.707 21.3877 424.866 21.0618 423.881 21.0618C422.405 21.0618 421.251 21.79 420.42 23.2463C419.589 24.696 419.173 26.7475 419.173 29.4009C419.173 31.1698 419.359 32.6727 419.732 33.9096C420.104 35.1465 420.64 36.0874 421.338 36.7325C422.043 37.3775 422.891 37.7 423.881 37.7ZM434.295 35.4258V33.3909L443.273 19.1865H444.749V22.3386H443.752L436.969 33.0717V33.2313H449.058V35.4258H434.295ZM443.911 39.6152V34.8073V33.8597V19.1865H446.265V39.6152H443.911Z" fill="#F2EFF4"/>
<path d="M242.938 190.394C241.435 190.394 240.155 189.985 239.098 189.167C238.04 188.342 237.232 187.149 236.674 185.586C236.115 184.016 235.836 182.121 235.836 179.9C235.836 177.692 236.115 175.807 236.674 174.244C237.239 172.675 238.05 171.478 239.108 170.653C240.172 169.822 241.449 169.406 242.938 169.406C244.428 169.406 245.701 169.822 246.759 170.653C247.823 171.478 248.634 172.675 249.192 174.244C249.758 175.807 250.04 177.692 250.04 179.9C250.04 182.121 249.761 184.016 249.202 185.586C248.644 187.149 247.836 188.342 246.778 189.167C245.721 189.985 244.441 190.394 242.938 190.394ZM242.938 188.199C244.428 188.199 245.585 187.481 246.409 186.045C247.234 184.608 247.646 182.56 247.646 179.9C247.646 178.131 247.457 176.625 247.078 175.381C246.705 174.138 246.167 173.19 245.462 172.539C244.764 171.887 243.922 171.561 242.938 171.561C241.462 171.561 240.308 172.289 239.477 173.746C238.646 175.195 238.23 177.247 238.23 179.9C238.23 181.669 238.416 183.172 238.789 184.409C239.161 185.646 239.696 186.587 240.394 187.232C241.099 187.877 241.947 188.199 242.938 188.199ZM260.215 190.394C259.044 190.394 257.99 190.161 257.053 189.695C256.115 189.23 255.364 188.592 254.798 187.78C254.233 186.969 253.924 186.045 253.871 185.007H256.265C256.358 185.932 256.777 186.696 257.521 187.301C258.273 187.9 259.171 188.199 260.215 188.199C261.053 188.199 261.797 188.003 262.449 187.611C263.107 187.218 263.623 186.68 263.995 185.995C264.374 185.303 264.564 184.522 264.564 183.651C264.564 182.76 264.368 181.965 263.975 181.267C263.59 180.562 263.058 180.006 262.379 179.601C261.701 179.195 260.926 178.989 260.055 178.982C259.43 178.976 258.788 179.072 258.13 179.272C257.472 179.464 256.93 179.714 256.504 180.02L254.19 179.74L255.427 169.686H266.04V171.88H257.502L256.783 177.905H256.903C257.322 177.573 257.847 177.297 258.479 177.077C259.111 176.858 259.769 176.748 260.454 176.748C261.704 176.748 262.818 177.047 263.796 177.646C264.78 178.238 265.551 179.049 266.11 180.08C266.675 181.11 266.958 182.287 266.958 183.611C266.958 184.914 266.665 186.078 266.08 187.102C265.501 188.119 264.703 188.924 263.686 189.516C262.669 190.101 261.511 190.394 260.215 190.394Z" fill="#F2EFF4"/>
<path d="M548.7 167.798C547.197 167.798 545.917 167.389 544.859 166.571C543.802 165.746 542.994 164.553 542.436 162.99C541.877 161.42 541.598 159.525 541.598 157.304C541.598 155.096 541.877 153.211 542.436 151.648C543.001 150.079 543.812 148.882 544.869 148.057C545.933 147.226 547.21 146.81 548.7 146.81C550.189 146.81 551.463 147.226 552.52 148.057C553.584 148.882 554.396 150.079 554.954 151.648C555.519 153.211 555.802 155.096 555.802 157.304C555.802 159.525 555.523 161.42 554.964 162.99C554.406 164.553 553.598 165.746 552.54 166.571C551.483 167.389 550.203 167.798 548.7 167.798ZM548.7 165.603C550.189 165.603 551.347 164.885 552.171 163.449C552.996 162.012 553.408 159.964 553.408 157.304C553.408 155.535 553.218 154.029 552.839 152.785C552.467 151.542 551.928 150.594 551.224 149.943C550.525 149.291 549.684 148.965 548.7 148.965C547.224 148.965 546.07 149.693 545.239 151.15C544.407 152.599 543.992 154.651 543.992 157.304C543.992 159.073 544.178 160.576 544.55 161.813C544.923 163.05 545.458 163.991 546.156 164.636C546.861 165.281 547.709 165.603 548.7 165.603ZM566.495 167.798C565.178 167.798 564.005 167.572 562.974 167.119C561.95 166.667 561.135 166.039 560.53 165.234C559.932 164.423 559.606 163.482 559.553 162.411H562.066C562.119 163.07 562.346 163.638 562.745 164.117C563.144 164.589 563.666 164.955 564.311 165.214C564.956 165.474 565.671 165.603 566.455 165.603C567.333 165.603 568.111 165.45 568.789 165.144C569.468 164.839 570 164.413 570.385 163.868C570.771 163.322 570.964 162.691 570.964 161.972C570.964 161.221 570.778 160.559 570.405 159.987C570.033 159.409 569.488 158.957 568.769 158.631C568.051 158.305 567.173 158.142 566.136 158.142H564.5V155.948H566.136C566.947 155.948 567.659 155.801 568.271 155.509C568.889 155.216 569.371 154.804 569.717 154.272C570.07 153.74 570.246 153.115 570.246 152.396C570.246 151.705 570.093 151.103 569.787 150.591C569.481 150.079 569.049 149.68 568.49 149.394C567.938 149.108 567.287 148.965 566.535 148.965C565.83 148.965 565.165 149.095 564.54 149.354C563.922 149.607 563.416 149.976 563.024 150.461C562.632 150.94 562.419 151.519 562.385 152.197H559.991C560.031 151.126 560.354 150.189 560.959 149.384C561.564 148.573 562.356 147.941 563.333 147.489C564.317 147.037 565.398 146.81 566.575 146.81C567.838 146.81 568.922 147.066 569.827 147.579C570.731 148.084 571.426 148.752 571.912 149.583C572.397 150.415 572.64 151.312 572.64 152.277C572.64 153.427 572.337 154.408 571.732 155.219C571.134 156.031 570.319 156.593 569.288 156.905V157.065C570.578 157.278 571.586 157.826 572.311 158.711C573.035 159.588 573.398 160.676 573.398 161.972C573.398 163.083 573.095 164.08 572.49 164.965C571.892 165.843 571.074 166.534 570.036 167.04C568.999 167.545 567.819 167.798 566.495 167.798Z" fill="#F2EFF4"/>
<path d="M225.468 54.2328C225.216 54.2328 224.964 54.359 224.837 54.6115C224.837 54.7377 224.837 54.7377 224.837 54.864C224.837 55.1164 224.964 55.3689 225.216 55.4951C225.468 55.4951 225.721 55.3689 225.847 55.1164C225.847 54.9902 225.847 54.9902 225.847 54.864C225.973 54.6115 225.721 54.2328 225.468 54.2328ZM212.088 40.3473C207.291 40.3473 203.378 44.1343 203.378 48.8048C203.378 51.2032 204.514 53.6016 206.281 55.1164C207.67 56.505 207.544 59.2821 207.544 59.2821C207.544 59.4083 207.544 59.5345 207.67 59.6608C207.796 59.787 207.922 59.787 208.048 59.787H216.127C216.254 59.787 216.38 59.787 216.506 59.6608C216.632 59.5345 216.632 59.4083 216.632 59.2821C216.632 59.2821 216.506 56.3787 217.895 55.1164C217.895 55.1164 217.895 55.1164 218.021 54.9902C219.788 53.3492 220.924 51.077 220.924 48.6786C220.924 44.1343 217.011 40.3473 212.088 40.3473ZM217.137 54.359C217.137 54.359 217.137 54.4853 217.137 54.359C215.875 55.7476 215.622 57.8935 215.622 58.9034H208.68C208.68 57.8935 208.427 55.7476 207.165 54.359C205.524 52.9705 204.514 50.9508 204.514 48.8048C204.514 44.7654 207.922 41.3571 212.214 41.3571C216.506 41.3571 219.914 44.6392 219.914 48.8048C219.788 50.9508 218.778 52.9705 217.137 54.359ZM212.088 42.4932C211.835 42.4932 211.583 42.7457 211.583 42.9982C211.583 43.2506 211.835 43.5031 212.088 43.5031C215.244 43.5031 217.768 46.0277 217.768 49.0573C217.768 49.3098 218.021 49.5622 218.273 49.5622C218.526 49.5622 218.778 49.3098 218.778 49.0573C218.904 45.3966 215.875 42.4932 212.088 42.4932ZM215.622 60.4182H208.553C207.796 60.4182 207.291 61.0493 207.291 61.6805C207.291 62.4379 207.922 62.9428 208.553 62.9428H215.496C216.254 62.9428 216.885 62.3116 216.885 61.6805C216.885 61.0493 216.38 60.4182 215.622 60.4182ZM215.622 61.9329H208.553C208.427 61.9329 208.301 61.8067 208.301 61.6805C208.301 61.5542 208.427 61.428 208.553 61.428H215.496C215.622 61.428 215.749 61.5542 215.749 61.6805C215.749 61.8067 215.749 61.9329 215.622 61.9329ZM214.612 63.574H209.689C208.932 63.574 208.427 64.2051 208.427 64.8363C208.427 65.5937 209.058 66.0986 209.689 66.0986H214.612C215.37 66.0986 215.875 65.4674 215.875 64.8363C215.875 64.0789 215.244 63.574 214.612 63.574ZM214.612 64.9625H209.689C209.563 64.9625 209.437 64.8363 209.437 64.71C209.437 64.5838 209.563 64.4576 209.689 64.4576H214.612C214.739 64.4576 214.865 64.5838 214.865 64.71C214.865 64.9625 214.739 64.9625 214.612 64.9625ZM212.088 37.8227C212.34 37.8227 212.593 37.5702 212.593 37.3177V33.7832C212.593 33.5308 212.34 33.2783 212.088 33.2783C211.835 33.2783 211.583 33.5308 211.583 33.7832V37.3177C211.583 37.5702 211.835 37.8227 212.088 37.8227ZM221.05 35.9292C220.798 35.803 220.545 35.803 220.293 36.0554L218.273 38.9588C218.147 39.2112 218.147 39.5899 218.399 39.7162C218.526 39.7162 218.526 39.8424 218.652 39.8424C218.778 39.8424 219.031 39.7161 219.031 39.5899L221.05 36.6866C221.303 36.4341 221.303 36.0554 221.05 35.9292ZM205.776 39.5899C205.902 39.5899 205.903 39.5899 206.029 39.4637C206.281 39.3374 206.281 38.9588 206.155 38.7063L204.262 35.803C204.135 35.5505 203.757 35.5505 203.504 35.6767C203.252 35.8029 203.252 36.1817 203.378 36.4341L205.271 39.3375C205.398 39.5899 205.524 39.5899 205.776 39.5899ZM201.863 42.8719L198.707 41.2309C198.455 41.1047 198.076 41.2309 197.95 41.4834C197.824 41.7359 197.95 42.1146 198.202 42.2408L201.358 43.8818C201.484 43.8818 201.484 43.8818 201.611 43.8818C201.737 43.8818 201.989 43.7556 202.116 43.6293C202.242 43.2506 202.116 42.9982 201.863 42.8719ZM226.226 41.3571C226.1 41.1047 225.721 40.9785 225.468 41.1047L222.313 42.7457C222.06 42.8719 221.934 43.2506 222.06 43.5031C222.186 43.6293 222.313 43.7556 222.565 43.7556C222.691 43.7556 222.691 43.7556 222.818 43.7556L225.973 42.1145C226.226 41.9883 226.352 41.6096 226.226 41.3571Z" fill="#F3F3F3"/>
<path d="M390.831 218.081C390.831 212.401 386.16 207.73 380.48 207.73C374.799 207.73 370.129 212.401 370.129 218.081C370.129 220.732 371.139 223.257 372.78 225.024L370.634 227.17C370.255 227.549 370.508 228.053 371.012 228.053C371.139 228.053 371.265 228.054 371.391 227.927L373.537 225.781C375.431 227.422 377.829 228.432 380.48 228.432C386.16 228.432 390.831 223.762 390.831 218.081ZM385.529 217.576H380.985V209.245C382.373 210.255 385.277 213.158 385.529 217.576ZM379.975 208.74V217.576H375.431C375.557 214.547 377.072 212.275 378.208 210.886C378.334 210.634 378.334 210.381 378.208 210.129C377.955 210.002 377.703 210.002 377.45 210.129C376.062 211.643 374.547 214.168 374.421 217.576H371.139C371.391 212.779 375.304 208.993 379.975 208.74ZM371.139 218.586H374.421C374.547 222.878 377.072 225.781 378.713 227.296C374.673 226.413 371.391 222.878 371.139 218.586ZM375.557 218.586H380.101V226.917C377.45 224.898 375.683 221.994 375.557 218.586ZM380.985 227.422V218.586H385.529C385.403 221.742 383.888 224.14 382.5 225.529C382.373 225.781 382.373 226.034 382.5 226.286C382.752 226.412 383.004 226.412 383.257 226.286C384.645 224.771 386.286 222.121 386.539 218.712H388.18C388.432 218.712 388.685 218.46 388.685 218.207C388.685 217.955 388.432 217.703 388.18 217.703H386.539C386.413 213.411 383.888 210.507 382.247 208.993C386.539 209.75 389.821 213.663 389.821 218.207C389.821 223.004 385.908 227.044 380.985 227.422ZM391.967 228.811L389.442 226.286C389.19 226.034 388.937 226.034 388.685 226.286C388.432 226.539 388.432 226.791 388.685 227.044L391.21 229.568C390.2 231.209 391.336 233.355 393.229 233.355C394.618 233.355 395.628 232.219 395.628 230.957C395.754 228.811 393.482 227.675 391.967 228.811ZM393.229 232.219C392.472 232.219 391.841 231.588 391.841 230.831C391.841 230.073 392.472 229.442 393.229 229.442C393.987 229.442 394.618 230.073 394.618 230.831C394.744 231.588 394.113 232.219 393.229 232.219ZM368.993 207.351L371.517 209.876C371.77 210.129 372.022 210.129 372.275 209.876C372.527 209.624 372.527 209.371 372.275 209.119L369.876 206.594C371.012 204.953 369.876 202.807 367.857 202.807C366.468 202.807 365.458 203.943 365.458 205.206C365.206 207.225 367.352 208.361 368.993 207.351ZM367.73 203.817C368.488 203.817 369.119 204.448 369.119 205.206C369.119 205.963 368.488 206.594 367.73 206.594C366.973 206.594 366.342 205.963 366.342 205.206C366.216 204.448 366.973 203.817 367.73 203.817ZM367.73 228.432C366.342 228.432 365.332 229.568 365.332 230.831C365.332 232.219 366.468 233.229 367.73 233.229C369.119 233.229 370.129 232.093 370.129 230.831C370.129 229.442 368.993 228.432 367.73 228.432ZM367.73 232.219C366.973 232.219 366.342 231.588 366.342 230.831C366.342 230.073 366.973 229.442 367.73 229.442C368.488 229.442 369.119 230.073 369.119 230.831C369.119 231.588 368.488 232.219 367.73 232.219ZM389.442 209.75L391.967 207.351C393.608 208.488 395.754 207.351 395.754 205.332C395.754 203.943 394.618 202.933 393.355 202.933C391.462 202.933 390.326 205.079 391.336 206.72L388.811 209.245C388.559 209.497 388.559 209.75 388.811 210.002C388.937 209.876 389.316 209.876 389.442 209.75ZM393.229 203.817C393.987 203.817 394.618 204.448 394.618 205.206C394.618 205.963 393.987 206.594 393.229 206.594C392.472 206.594 391.841 205.963 391.841 205.206C391.841 204.448 392.472 203.817 393.229 203.817Z" fill="#F3F3F3"/>
<path d="M571.341 115.076L569.069 119.115C568.943 119.368 568.69 119.494 568.438 119.368L565.03 117.979C564.777 117.853 564.651 117.601 564.777 117.222C564.903 116.969 565.156 116.843 565.535 116.969L568.438 118.106L570.205 114.95L567.681 112.93C567.554 112.804 567.428 112.551 567.554 112.299C568.185 110.027 568.312 107.502 567.554 105.23C567.428 104.977 567.554 104.725 567.681 104.599L570.205 102.579L568.438 99.4232L565.535 100.559C565.282 100.686 565.03 100.559 564.903 100.433C563.262 98.6659 561.117 97.4035 558.718 96.8986C558.466 96.8986 558.339 96.6461 558.339 96.3937L557.834 93.2379H554.174L553.669 96.3937C553.669 96.6461 553.416 96.7723 553.29 96.8986C550.892 97.4035 548.872 98.6659 547.105 100.433C546.979 100.559 546.726 100.686 546.474 100.559L543.57 99.4232L541.803 102.705L544.328 104.725C544.454 104.851 544.58 105.104 544.454 105.356C543.823 107.628 543.696 110.153 544.454 112.425C544.58 112.678 544.454 112.93 544.328 113.056L541.803 115.076L543.57 118.232L546.474 117.096C546.726 116.969 546.979 117.096 547.105 117.222C548.746 118.989 550.892 120.251 553.29 120.756C553.543 120.756 553.669 121.009 553.669 121.261L554.174 124.417H557.834L558.339 121.261C558.339 121.009 558.592 120.883 558.718 120.756C559.98 120.504 561.243 119.999 562.379 119.242C562.631 119.115 563.01 119.115 563.136 119.368C563.262 119.62 563.262 119.999 563.01 120.125C561.874 120.883 560.612 121.388 559.349 121.64L558.844 124.922C558.844 125.175 558.592 125.427 558.339 125.427H553.669C553.416 125.427 553.164 125.175 553.164 124.922L552.659 121.64C550.387 121.009 548.241 119.873 546.6 118.106L543.57 119.368C543.318 119.494 543.065 119.368 542.939 119.115L540.667 115.076C540.541 114.823 540.541 114.571 540.793 114.319L543.318 112.299C542.687 110.027 542.687 107.628 543.318 105.356L540.793 103.336C540.541 103.21 540.541 102.831 540.667 102.579L542.939 98.5396C543.065 98.2872 543.318 98.1609 543.57 98.2871L546.6 99.5495C548.241 97.7822 550.387 96.6461 552.659 96.015L553.164 92.7329C553.164 92.4805 553.416 92.228 553.669 92.228H558.339C558.592 92.228 558.844 92.4805 558.844 92.7329L559.349 96.015C561.621 96.6461 563.767 97.7822 565.408 99.5495L568.438 98.2871C568.69 98.1609 568.943 98.2872 569.069 98.5396L571.341 102.579C571.468 102.831 571.467 103.084 571.215 103.336L568.69 105.356C569.322 107.628 569.322 110.027 568.69 112.299L571.215 114.319C571.467 114.571 571.468 114.823 571.341 115.076ZM555.057 111.415L557.834 106.745C557.961 106.492 557.961 106.114 557.582 105.987C557.33 105.861 556.951 105.861 556.825 106.24L554.048 110.91C553.921 111.163 553.921 111.541 554.3 111.668C554.552 111.794 554.931 111.668 555.057 111.415ZM552.911 106.745C552.659 106.492 552.406 106.492 552.154 106.745L550.387 108.512C550.134 108.764 550.134 109.017 550.387 109.269L552.154 111.037C552.406 111.289 552.659 111.289 552.911 111.037C553.164 110.784 553.164 110.532 552.911 110.279L551.523 108.891L552.911 107.502C553.164 107.25 553.164 106.997 552.911 106.745ZM559.349 111.163C559.475 111.163 559.602 111.163 559.728 111.037L561.495 109.269C561.748 109.017 561.748 108.764 561.495 108.512L559.728 106.745C559.475 106.492 559.223 106.492 558.97 106.745C558.718 106.997 558.718 107.25 558.97 107.502L560.359 108.891L558.97 110.279C558.592 110.532 558.844 111.163 559.349 111.163ZM552.785 117.601C553.795 117.979 554.931 118.232 556.067 118.232C562.884 118.232 567.428 111.163 564.525 104.977C562.379 100.307 556.825 98.2872 552.154 100.433C546.221 103.21 544.833 111.163 549.629 115.707C549.882 115.96 550.134 115.96 550.387 115.707C550.639 115.455 550.639 115.202 550.387 114.95C546.221 110.91 547.357 103.968 552.659 101.443C556.825 99.5495 561.748 101.317 563.641 105.482C565.535 109.648 563.767 114.571 559.602 116.465C557.582 117.348 555.31 117.474 553.29 116.717C553.038 116.591 552.659 116.717 552.533 117.096C552.406 117.474 552.406 117.474 552.785 117.601Z" fill="#F3F3F3"/>
<path d="M583.84 130.855C583.966 131.486 583.966 132.117 584.092 132.748C584.092 131.991 583.966 131.486 583.84 130.855Z" fill="#6B36B1"/>
<path d="M583.334 127.068C583.46 127.573 583.586 128.204 583.586 128.709C583.46 128.204 583.334 127.573 583.334 127.068Z" fill="#6B36B1"/>
<path d="M582.324 121.892C582.45 122.524 582.577 123.281 582.703 123.912C582.577 123.281 582.45 122.524 582.324 121.892Z" fill="#6B36B1"/>
<path d="M582.325 121.893C582.198 121.64 582.198 121.262 582.072 121.009C582.072 121.262 582.198 121.514 582.198 121.767C582.198 121.767 582.325 121.767 582.325 121.893Z" fill="#5480C4"/>
<path d="M582.703 123.912C582.956 124.922 583.082 125.932 583.334 127.068C583.082 126.058 582.956 124.922 582.703 123.912Z" fill="#5480C4"/>
<path d="M583.588 128.709C583.714 129.466 583.84 130.098 583.967 130.855C583.84 130.098 583.714 129.466 583.588 128.709Z" fill="#5480C4"/>
<path d="M582.197 121.64C582.197 121.387 582.071 121.135 582.071 120.882C581.945 120.504 581.945 120.125 581.818 119.873C581.945 120.504 582.071 121.135 582.197 121.64Z" fill="#5480C4"/>
<path d="M18.4111 129.19C18.5377 129.297 18.6643 129.404 18.9176 129.404H29.807C29.6804 130.156 29.5538 130.908 29.5538 131.659C29.5538 131.874 29.6804 131.981 29.807 132.089C29.9336 132.196 30.0603 132.303 30.3135 132.303H45.2548C45.6347 132.303 45.888 131.981 45.888 131.659C45.888 131.552 45.888 130.585 45.7613 129.297H56.6508C57.0306 129.297 57.2839 128.975 57.2839 128.653C57.2839 128.438 57.4105 123.07 53.9917 119.956C53.7385 119.742 53.3586 119.742 53.1054 119.956C53.1054 119.956 49.0535 122.963 45.3815 119.956C45.1282 119.742 44.7484 119.742 44.4951 119.956C44.3685 120.064 43.3555 121.03 42.3426 122.855C42.0893 122.748 41.8361 122.748 41.7095 122.963C41.5828 123.07 37.6576 125.969 33.9855 122.963C33.8589 122.855 33.6057 122.748 33.3524 122.855C32.8459 121.889 32.2128 120.815 31.3265 120.064C31.0732 119.849 30.6934 119.849 30.4401 120.064C30.4401 120.064 26.3883 123.07 22.7162 120.064C22.463 119.849 22.0831 119.849 21.8299 120.064C21.7032 120.171 18.4111 123.07 18.2845 128.76C18.2845 128.868 18.2845 129.082 18.4111 129.19ZM45.0016 121.459C48.547 123.929 52.0924 122.211 53.4852 121.459C55.5112 123.607 55.8911 126.828 55.8911 128.116H45.3815C45.0016 126.72 44.4951 125.217 43.3555 123.929C43.862 122.748 44.6217 121.889 45.0016 121.459ZM33.6057 124.358C37.1511 126.828 40.6965 125.11 42.0893 124.358C44.1152 126.506 44.4951 129.727 44.4951 131.015H30.9466C31.0733 127.472 32.8459 125.217 33.6057 124.358ZM22.2097 121.459C25.7551 123.929 29.3005 122.211 30.6934 121.459C31.3265 122.211 31.833 123.07 32.2128 123.929C31.5797 124.788 30.5668 126.184 30.0603 128.116H19.6773C19.8039 124.466 21.45 122.318 22.2097 121.459Z" fill="#F3F3F3"/>
<path d="M26.6935 119.523C28.3588 119.523 30.0241 118.846 31.3051 117.606C31.4332 117.38 31.6894 117.267 31.8175 117.042C32.3299 120.2 35.02 122.682 38.2224 122.682C39.8877 122.682 41.553 122.005 42.834 120.764C43.8588 119.749 44.4993 118.395 44.6274 116.929C45.7803 118.508 47.7018 119.523 49.7514 119.523C51.4167 119.523 53.082 118.846 54.363 117.606C55.644 116.365 56.2845 114.673 56.2845 112.981C56.2845 109.371 53.3382 106.325 49.8795 106.325C48.2142 106.325 46.5489 107.002 45.2679 108.243C44.2431 109.258 43.6026 110.612 43.4745 112.078C42.3216 110.499 40.4001 109.484 38.3506 109.484C36.6853 109.484 35.02 110.161 33.739 111.401C33.6109 111.627 33.3547 111.74 33.2266 111.965C32.7142 108.807 30.0241 106.325 26.8216 106.325C25.1563 106.325 23.491 107.002 22.21 108.243C20.929 109.484 20.2885 111.176 20.2885 112.868C20.1604 116.478 23.1067 119.523 26.6935 119.523ZM46.0365 109.145C47.0613 108.13 48.3423 107.566 49.6233 107.566C52.4415 107.566 54.7473 109.935 54.7473 112.755C54.7473 114.109 54.2349 115.462 53.2101 116.478C52.1853 117.493 51.0324 118.057 49.6233 118.057C46.8051 118.057 44.4993 115.688 44.4993 112.868C44.4993 111.514 45.0117 110.161 46.0365 109.145ZM34.5076 112.304C35.5324 111.289 36.8133 110.725 38.0943 110.725C40.9125 110.725 43.2183 113.093 43.2183 115.914C43.2183 117.267 42.7059 118.621 41.6811 119.636C40.6563 120.651 39.5034 121.215 38.0943 121.215C35.2761 121.215 32.9704 118.846 32.9704 116.026C32.9704 114.56 33.4828 113.319 34.5076 112.304ZM23.1067 109.145C24.1315 108.13 25.4125 107.566 26.6935 107.566C29.5117 107.566 31.8175 109.935 31.8175 112.755C31.8175 114.109 31.3051 115.462 30.2803 116.478C29.2555 117.493 28.1026 118.057 26.6935 118.057C23.8753 118.057 21.5695 115.688 21.5695 112.868C21.5695 111.514 22.0819 110.161 23.1067 109.145Z" fill="#F3F3F3"/>
<path d="M392.852 33.1519L389.317 36.9388C389.191 36.9388 388.938 36.9388 388.812 36.9388C387.55 36.4339 385.278 36.0552 382.627 38.2011L381.743 39.0848C378.461 36.6864 375.81 38.2011 375.053 38.7061L371.771 35.1716L361.42 46.1537L365.333 50.3194C365.333 52.2129 365.964 54.1063 367.227 55.9998C367.732 56.7572 368.363 57.5146 368.994 58.1458C369.751 59.0294 370.635 59.913 371.392 60.7966C370.509 62.1852 370.887 63.3213 371.771 64.3311C372.781 65.341 373.664 65.4672 374.927 65.0885C375.81 66.6033 376.694 67.2345 377.578 67.3607C377.956 67.7394 378.335 68.1181 378.714 68.4968C379.85 69.6329 381.617 69.8853 383.006 69.1279C383.637 68.7492 383.763 68.4968 384.015 67.9918C386.288 70.0116 387.929 70.1378 389.696 67.2344C390.958 67.6131 391.842 67.4869 392.852 66.4771C393.861 65.341 394.24 64.2049 393.104 62.6901L392.852 62.3114C393.609 62.3114 394.24 61.8065 394.619 61.3016C395.502 60.0392 395.502 58.7769 394.493 57.5146C394.871 57.0097 395.376 56.631 395.755 56.1261C396.386 55.4949 397.017 54.7375 397.522 53.9801C398.785 52.0866 399.416 50.1932 399.416 48.2997L403.329 44.134L392.852 33.1519ZM369.373 56.7572C368.236 55.3687 367.227 53.9801 366.848 52.3391C366.722 51.9604 366.722 51.5817 366.722 51.203C366.722 50.8243 366.722 50.5718 366.722 50.1932L362.682 46.0275L371.266 36.9388L374.043 39.8421L374.169 40.0946L375.432 40.2208L375.558 39.9684C376.063 39.5897 378.209 38.3274 381.112 40.5995L384.899 44.639C385.152 44.8914 385.151 45.1439 385.151 45.3964C385.151 45.6488 385.025 45.9013 384.899 46.1537L384.647 46.4062C384.268 46.7849 383.637 46.7849 383.132 46.4062L379.219 42.2406L378.209 42.9979L379.219 44.2603L379.724 44.7652C379.219 45.2701 378.84 45.775 378.335 46.1537C378.209 46.28 378.209 46.4062 378.083 46.5324C378.083 46.5324 378.083 46.5324 377.956 46.6587C375.305 49.4358 372.655 52.2129 370.004 54.99C370.004 55.6211 369.625 56.1261 369.373 56.7572ZM382.122 67.9918C381.869 68.2443 381.491 68.4968 381.112 68.4968C380.481 68.4968 380.102 67.9918 379.724 67.6131C379.597 67.3607 379.345 67.2345 379.219 66.982C379.597 66.7295 380.102 66.3508 380.607 65.9721C380.86 66.4771 380.986 66.7295 381.617 67.1082C381.869 67.2345 382.122 67.3607 382.501 67.4869C382.374 67.7394 382.248 67.8656 382.122 67.9918ZM387.802 67.4869C387.171 68.2443 386.54 68.2443 385.656 67.4869C385.53 67.3607 385.404 67.2345 385.278 67.1082C385.404 66.982 385.656 66.8558 385.783 66.6033C386.288 66.0984 386.793 65.5934 387.297 65.0885L387.424 65.2148C388.181 66.0984 388.307 66.7295 387.802 67.4869ZM391.842 65.2148C391.211 66.0984 390.327 66.0984 389.57 65.2148C389.191 64.8361 388.812 64.3311 388.307 63.9524C388.938 63.3213 389.696 62.5639 390.327 61.9327C390.706 62.3114 391.084 62.6901 391.463 63.0688C392.22 63.8262 392.347 64.5836 391.842 65.2148ZM393.483 60.1655C393.23 60.9229 392.347 61.3016 391.589 60.9229C391.463 60.9229 391.463 60.7966 391.337 60.7966C391.968 60.1655 392.599 59.4081 393.23 58.7769C393.609 59.1556 393.735 59.5343 393.483 60.1655ZM397.775 48.0472C397.775 48.4259 397.775 48.6784 397.775 49.0571C397.775 49.4358 397.648 49.8145 397.648 50.1932C397.27 51.8342 396.386 53.349 395.124 54.7375C393.483 56.5048 391.842 58.272 390.075 60.0392C388.307 61.9327 386.54 63.7 384.773 65.5934C384.52 65.9721 384.015 66.4771 383.384 66.4771C382.879 66.4771 382.627 66.3508 382.374 65.9721C382.122 65.7197 381.996 64.9623 382.122 64.5836C382.248 64.0787 382.627 63.7 383.006 63.3213C383.763 62.4377 384.647 61.554 385.404 60.7966C385.783 60.4179 386.161 59.913 386.54 59.5343C386.919 59.0294 388.181 58.1458 387.424 57.5146C386.793 56.8834 385.909 58.1458 385.53 58.5245C385.152 58.9032 384.773 59.4081 384.394 59.7868C382.501 61.6803 380.733 63.7 378.84 65.4672C377.956 66.3508 377.325 66.2246 376.694 65.4672C376.189 64.8361 376.189 64.0787 377.073 63.195C379.219 60.9229 381.238 58.7769 383.384 56.5047C383.637 56.2523 383.889 55.9998 384.015 55.4949C384.015 55.1162 383.889 54.8637 383.637 54.7375C383.006 54.6113 382.753 54.8637 382.374 55.2424C379.85 57.8933 377.451 60.5442 374.927 63.0688C374.169 63.9524 373.159 63.9524 372.655 63.0688C372.15 62.4377 372.276 61.6802 373.033 60.9229C375.558 58.272 378.083 55.6211 380.607 52.9703C380.986 52.5916 381.365 52.0866 380.86 51.5817C380.355 51.0768 379.976 51.5817 379.597 51.9604C377.704 53.9801 375.684 56.1261 373.791 58.1458C373.538 58.3982 373.286 58.6507 372.907 58.9032C372.15 59.2819 371.266 58.9032 371.014 58.1458C370.761 57.3884 371.14 56.7572 371.645 56.2523C374.801 52.844 378.083 49.4358 381.238 46.0275L382.501 47.4161C383.006 47.921 383.51 48.1735 384.142 48.1735C384.773 48.1735 385.278 47.921 385.783 47.4161L386.035 47.1636C386.414 46.6587 386.666 46.1537 386.666 45.3964C386.666 44.7652 386.414 44.2603 386.035 43.7553L383.132 40.5995L382.501 39.9684L383.258 39.0848C384.52 38.0749 385.53 37.8224 386.414 37.6962C388.055 37.57 389.443 38.4536 389.443 38.4536L390.327 37.57L393.104 34.6667L401.688 43.7553L397.775 48.0472Z" fill="#F9F9F9"/>
<path d="M209.309 233.987C209.435 235.249 209.94 236.385 210.823 237.269C210.95 237.395 211.076 237.395 211.202 237.395H211.328C211.581 237.269 211.707 237.143 211.707 236.89C211.833 236.007 212.591 235.502 213.348 235.502H216.125C216.882 235.502 217.514 235.88 217.766 236.638C217.892 236.89 218.019 237.016 218.271 237.016C218.524 237.016 218.65 237.017 218.776 236.764C219.66 235.628 220.038 234.239 219.912 232.851C219.66 230.326 217.64 228.306 215.115 228.054C214.863 228.054 214.737 228.054 214.61 228.054C213.096 228.054 211.581 228.685 210.571 229.821C209.561 230.831 209.182 232.346 209.309 233.987ZM214.737 234.618C213.6 234.618 212.717 233.734 212.717 232.598C212.717 231.462 213.6 230.579 214.737 230.579C215.873 230.579 216.756 231.462 216.756 232.598C216.756 233.734 215.873 234.618 214.737 234.618ZM211.455 230.452C212.212 229.569 213.474 229.064 214.61 229.064C214.737 229.064 214.863 229.064 215.115 229.064C217.135 229.316 218.776 230.831 218.902 232.851C219.028 233.734 218.776 234.492 218.397 235.249C217.892 234.744 217.261 234.366 216.63 234.239C217.009 233.734 217.261 233.103 217.261 232.472C217.261 230.957 215.999 229.695 214.484 229.695C212.969 229.695 211.707 230.957 211.707 232.472C211.707 233.23 211.959 233.861 212.464 234.366C211.833 234.618 211.202 234.997 210.823 235.628C210.445 235.123 210.192 234.366 210.192 233.734C210.318 232.598 210.697 231.462 211.455 230.452Z" fill="#F9F9F9"/>
<path d="M195.043 223.131C195.169 223.257 195.422 223.383 195.674 223.257C195.927 223.131 196.053 223.004 196.053 222.752V222.247C196.053 220.48 197.315 218.965 199.083 218.839C199.209 218.839 199.335 218.839 199.461 218.839H204.384C206.278 218.839 207.793 220.354 207.793 222.247V222.752C207.793 223.004 207.919 223.131 208.171 223.257C208.298 223.257 208.298 223.257 208.424 223.257C208.55 223.257 208.676 223.257 208.803 223.131C210.696 221.237 211.706 218.839 211.706 216.188C211.706 210.76 207.288 206.342 201.86 206.342C196.432 206.342 192.014 210.76 192.014 216.188C192.14 218.713 193.15 221.237 195.043 223.131ZM202.491 217.576H201.481C199.588 217.324 198.199 215.683 198.199 213.789C198.199 211.644 199.84 210.003 201.986 210.003C204.132 210.003 205.773 211.644 205.773 213.789C205.773 215.809 204.384 217.324 202.491 217.576ZM201.986 207.478C206.783 207.478 210.696 211.391 210.696 216.188C210.696 218.081 210.065 219.849 208.929 221.363C208.55 219.47 206.909 217.955 204.889 217.703C206.025 216.819 206.783 215.43 206.783 213.916C206.783 211.265 204.637 209.119 201.986 209.119C199.335 209.119 197.189 211.265 197.189 213.916C197.189 215.43 197.947 216.819 199.083 217.703C199.083 217.703 199.083 217.703 198.956 217.703C196.937 217.955 195.422 219.47 195.043 221.363C193.907 219.849 193.276 218.081 193.276 216.188C193.276 211.391 197.189 207.478 201.986 207.478Z" fill="#F9F9F9"/>
<path d="M223.825 215.809C227.865 215.809 231.147 212.527 231.147 208.487C231.147 204.448 227.865 201.166 223.825 201.166C219.786 201.166 216.504 204.448 216.504 208.487C216.504 212.527 219.786 215.809 223.825 215.809ZM223.825 202.302C227.234 202.302 230.011 205.079 230.011 208.487C230.011 211.896 227.234 214.673 223.825 214.673C220.417 214.673 217.64 211.896 217.64 208.487C217.64 205.079 220.417 202.302 223.825 202.302Z" fill="#F9F9F9"/>
<path d="M190.5 216.188C190.5 222.5 195.675 227.675 201.987 227.675C203.628 227.675 205.395 227.296 206.91 226.539L209.182 229.064C208.046 230.452 207.541 232.219 207.667 234.113C208.046 237.395 210.697 240.046 213.979 240.424C214.232 240.424 214.484 240.424 214.736 240.424C216.756 240.424 218.65 239.541 219.912 238.152C221.301 236.638 221.932 234.744 221.679 232.724C221.301 229.442 218.65 226.791 215.368 226.413C213.979 226.287 212.464 226.539 211.202 227.296L209.182 225.024C211.833 222.878 213.348 219.596 213.348 216.188C213.348 215.304 213.222 214.421 212.969 213.537L215.746 212.527C217.261 215.557 220.291 217.45 223.699 217.45C228.622 217.45 232.661 213.411 232.661 208.488C232.661 203.565 228.622 199.525 223.699 199.525C218.776 199.525 214.736 203.565 214.736 208.488C214.736 208.993 214.736 209.371 214.863 209.876L211.959 210.886C209.94 207.099 206.027 204.701 201.735 204.701C195.675 204.701 190.5 209.75 190.5 216.188ZM201.987 205.837C206.026 205.837 209.687 208.235 211.454 211.896C211.581 212.149 211.833 212.275 212.212 212.149L215.999 210.76C216.251 210.634 216.378 210.381 216.378 210.129C216.251 209.624 216.251 208.993 216.251 208.488C216.251 204.196 219.786 200.661 224.078 200.661C228.37 200.661 231.904 204.196 231.904 208.488C231.904 212.78 228.37 216.314 224.078 216.314C220.922 216.314 218.145 214.421 216.882 211.644C216.756 211.391 216.504 211.265 216.125 211.391L212.464 212.653C212.212 212.78 212.086 213.032 212.086 213.411C212.338 214.421 212.464 215.304 212.464 216.314C212.464 219.596 210.823 222.752 208.172 224.646C208.046 224.772 207.92 224.898 207.92 225.024C207.92 225.15 207.92 225.403 208.046 225.403L210.823 228.432C210.95 228.685 211.328 228.685 211.581 228.559C212.717 227.801 214.105 227.549 215.368 227.675C218.145 227.928 220.291 230.2 220.669 232.977C220.796 234.618 220.291 236.259 219.155 237.521C218.019 238.783 216.504 239.415 214.736 239.415C214.484 239.415 214.358 239.415 214.105 239.415C211.328 239.162 209.182 236.89 208.804 234.113C208.677 232.472 209.182 230.831 210.318 229.569C210.318 229.569 210.318 229.569 210.445 229.442C210.571 229.19 210.571 228.937 210.445 228.685L207.541 225.529C207.415 225.403 207.289 225.403 207.163 225.403C207.036 225.403 207.036 225.403 206.91 225.529C205.395 226.287 203.754 226.665 202.113 226.665C196.433 226.665 191.762 221.995 191.762 216.314C191.636 210.381 196.307 205.837 201.987 205.837ZM218.523 208.993C218.65 210.255 219.155 211.391 220.038 212.275C220.164 212.401 220.291 212.401 220.417 212.401H220.543C220.796 212.275 220.922 212.149 220.922 211.896C221.048 211.012 221.805 210.508 222.563 210.508H225.34C226.097 210.508 226.729 210.886 226.981 211.644C227.107 211.896 227.233 212.022 227.486 212.022C227.738 212.022 227.865 212.022 227.991 211.77C228.874 210.634 229.253 209.245 229.127 207.857C228.874 205.332 226.855 203.312 224.33 203.06C224.078 203.06 223.951 203.06 223.825 203.06C222.31 203.06 220.796 203.691 219.786 204.827C218.776 205.963 218.271 207.352 218.523 208.993ZM223.825 209.75C222.689 209.75 221.805 208.867 221.805 207.73C221.805 206.594 222.689 205.711 223.825 205.711C224.961 205.711 225.845 206.594 225.845 207.73C225.845 208.867 224.961 209.75 223.825 209.75ZM220.669 205.585C221.427 204.701 222.689 204.196 223.825 204.196C223.951 204.196 224.078 204.196 224.33 204.196C226.35 204.448 227.991 205.963 228.117 207.983C228.243 208.867 227.991 209.624 227.612 210.381C227.107 209.876 226.476 209.498 225.845 209.371C226.224 208.867 226.476 208.235 226.476 207.604C226.476 206.089 225.214 204.827 223.699 204.827C222.184 204.827 220.922 206.089 220.922 207.604C220.922 208.362 221.174 208.993 221.679 209.498C221.048 209.75 220.417 210.129 220.038 210.76C219.66 210.255 219.407 209.498 219.407 208.867C219.533 207.604 219.912 206.468 220.669 205.585Z" fill="#F9F9F9"/>
<defs>
<linearGradient id="paint0_linear_0_2036" x1="218.226" y1="176.405" x2="218.408" y2="176.405" gradientUnits="userSpaceOnUse">
<stop stop-color="#303980"/>
<stop offset="1" stop-color="#8D226A"/>
</linearGradient>
<linearGradient id="paint1_linear_0_2036" x1="218.322" y1="176.281" x2="218.526" y2="176.281" gradientUnits="userSpaceOnUse">
<stop stop-color="#303980"/>
<stop offset="1" stop-color="#8D226A"/>
</linearGradient>
<linearGradient id="paint2_linear_0_2036" x1="218.527" y1="176.04" x2="218.783" y2="176.04" gradientUnits="userSpaceOnUse">
<stop stop-color="#303980"/>
<stop offset="1" stop-color="#8D226A"/>
</linearGradient>
<linearGradient id="paint3_linear_0_2036" x1="10.7898" y1="119.272" x2="64.692" y2="119.272" gradientUnits="userSpaceOnUse">
<stop offset="1.1e-07" stop-color="#E15374"/>
<stop offset="1" stop-color="#DE3074"/>
</linearGradient>
<linearGradient id="paint4_linear_0_2036" x1="355.718" y1="217.921" x2="409.144" y2="217.921" gradientUnits="userSpaceOnUse">
<stop stop-color="#E26714"/>
<stop offset="1" stop-color="#E0480A"/>
</linearGradient>
<linearGradient id="paint5_linear_0_2036" x1="186.05" y1="50.887" x2="239.475" y2="50.887" gradientUnits="userSpaceOnUse">
<stop stop-color="#EFB93B"/>
<stop offset="0.5363" stop-color="#EBA43B"/>
<stop offset="1" stop-color="#E9973B"/>
</linearGradient>
</defs>
</svg>
