<svg width="15" height="14" viewBox="0 0 15 14" fill="none" xmlns="http://www.w3.org/2000/svg">
<mask id="mask0_0_2320" style="mask-type:alpha" maskUnits="userSpaceOnUse" x="0" y="0" width="15" height="14">
<path d="M1.61184 2.87179C2.42573 2.87179 3.08552 2.22892 3.08552 1.4359C3.08552 0.642873 2.42573 0 1.61184 0C0.797944 0 0.138153 0.642873 0.138153 1.4359C0.138153 2.22892 0.797944 2.87179 1.61184 2.87179Z" fill="white"/>
<path d="M0.138153 5.02563H3.08552V14H0.138153V5.02563ZM6.03289 8.43589V14H8.61184V8.97435C8.61184 8.07692 9.16447 7.35897 10.0855 7.35897C11.0066 7.35897 11.5592 8.2564 11.5592 8.97435V14H14.1382V8.43589C14.1382 7.35897 12.8487 5.02563 10.0855 5.02563C7.32236 5.02563 6.03289 7.35897 6.03289 8.43589Z" fill="white"/>
</mask>
<g mask="url(#mask0_0_2320)">
<path d="M-1.70389 -1.43604H15.9803V15.7947H-1.70389V-1.43604Z" fill="white"/>
</g>
</svg>
