<svg width="14" height="12" viewBox="0 0 14 12" fill="none" xmlns="http://www.w3.org/2000/svg">
<path d="M13.8506 1.62022C13.3426 1.83936 12.7898 1.99708 12.2203 2.0585C12.8115 1.70727 13.2543 1.15239 13.4654 0.497956C12.9107 0.827977 12.3029 1.05939 11.6692 1.18194C11.4043 0.898762 11.0839 0.673169 10.728 0.519218C10.3721 0.365268 9.98835 0.28626 9.6006 0.287116C8.03175 0.287116 6.77003 1.5588 6.77003 3.11934C6.77003 3.33848 6.79659 3.55762 6.83976 3.76846C4.49064 3.64561 2.39552 2.52335 1.00265 0.805085C0.748853 1.23858 0.615855 1.73216 0.617492 2.23448C0.617492 3.21729 1.1172 4.08389 1.87921 4.59356C1.43015 4.57588 0.991597 4.45244 0.599231 4.23331V4.26817C0.599231 5.64444 1.57208 6.78497 2.86866 7.04727C2.62522 7.11051 2.37478 7.14286 2.12325 7.14356C1.93898 7.14356 1.76466 7.1253 1.58868 7.1004C1.94728 8.22266 2.99152 9.0378 4.23497 9.06436C3.26212 9.82637 2.04357 10.2746 0.720422 10.2746C0.48302 10.2746 0.263879 10.2663 0.036438 10.2398C1.29152 11.0449 2.78068 11.5098 4.38439 11.5098C9.59064 11.5098 12.4395 7.19669 12.4395 3.45303C12.4395 3.33018 12.4395 3.20733 12.4312 3.08448C12.9823 2.68106 13.4654 2.18135 13.8506 1.62022Z" fill="white"/>
</svg>
