<svg width="15" height="13" viewBox="0 0 15 13" fill="none" xmlns="http://www.w3.org/2000/svg">
<path d="M12.6483 1.77512C11.7062 1.33596 10.6862 1.01721 9.6237 0.83304C9.61438 0.832742 9.60512 0.834491 9.59655 0.838162C9.58798 0.841834 9.58033 0.847339 9.57412 0.854291C9.44662 1.08804 9.29787 1.39262 9.1987 1.62637C8.07174 1.45637 6.92566 1.45637 5.7987 1.62637C5.69953 1.38554 5.55078 1.08804 5.4162 0.854291C5.40912 0.840124 5.38787 0.83304 5.36662 0.83304C4.30412 1.01721 3.2912 1.33596 2.34203 1.77512C2.33495 1.77512 2.32787 1.78221 2.32078 1.78929C0.394116 4.67221 -0.137134 7.47721 0.12495 10.2539C0.12495 10.268 0.132033 10.2822 0.1462 10.2893C1.4212 11.2243 2.64662 11.791 3.85787 12.1664C3.87912 12.1735 3.90037 12.1664 3.90745 12.1522C4.19078 11.7626 4.44578 11.3518 4.66537 10.9197C4.67953 10.8914 4.66537 10.863 4.63703 10.856C4.23328 10.7001 3.85078 10.516 3.47537 10.3035C3.44703 10.2893 3.44703 10.2468 3.46828 10.2255C3.5462 10.1689 3.62412 10.1051 3.70203 10.0485C3.7162 10.0343 3.73745 10.0343 3.75162 10.0414C6.18828 11.1535 8.8162 11.1535 11.2245 10.0414C11.2387 10.0343 11.2599 10.0343 11.2741 10.0485C11.352 10.1122 11.4299 10.1689 11.5079 10.2326C11.5362 10.2539 11.5362 10.2964 11.5008 10.3105C11.1324 10.5301 10.7429 10.7072 10.3391 10.863C10.3108 10.8701 10.3037 10.9055 10.3108 10.9268C10.5374 11.3589 10.7924 11.7697 11.0687 12.1593C11.0899 12.1664 11.1112 12.1735 11.1324 12.1664C12.3508 11.791 13.5762 11.2243 14.8512 10.2893C14.8654 10.2822 14.8724 10.268 14.8724 10.2539C15.1841 7.04512 14.3554 4.26137 12.6766 1.78929C12.6695 1.78221 12.6624 1.77512 12.6483 1.77512V1.77512ZM5.0337 8.56096C4.30412 8.56096 3.69495 7.88804 3.69495 7.05929C3.69495 6.23054 4.28995 5.55762 5.0337 5.55762C5.78453 5.55762 6.37953 6.23762 6.37245 7.05929C6.37245 7.88804 5.77745 8.56096 5.0337 8.56096ZM9.97078 8.56096C9.2412 8.56096 8.63203 7.88804 8.63203 7.05929C8.63203 6.23054 9.22703 5.55762 9.97078 5.55762C10.7216 5.55762 11.3166 6.23762 11.3095 7.05929C11.3095 7.88804 10.7216 8.56096 9.97078 8.56096Z" fill="white"/>
</svg>
